Caveat-Bold.ufo
<glyph name="numbersign" format="1">
  <advance width="559"/>
  <unicode hex="0023"/>
  <outline>
    <contour>
      <point x="402" y="-148" type="curve"/>
      <point x="412" y="-143"/>
      <point x="427" y="-137"/>
      <point x="427" y="-105" type="curve"/>
      <point x="427" y="-68"/>
      <point x="488" y="134"/>
      <point x="510" y="208" type="curve"/>
      <point x="520" y="235"/>
      <point x="526" y="256"/>
      <point x="526" y="261" type="curve"/>
      <point x="526" y="261"/>
      <point x="526" y="272"/>
      <point x="531" y="272" type="curve"/>
      <point x="536" y="277"/>
      <point x="536" y="283"/>
      <point x="536" y="288" type="curve"/>
      <point x="536" y="293"/>
      <point x="568" y="368"/>
      <point x="579" y="389" type="curve"/>
      <point x="584" y="405"/>
      <point x="590" y="416"/>
      <point x="590" y="421" type="curve"/>
      <point x="590" y="426"/>
      <point x="655" y="573"/>
      <point x="666" y="600" type="curve"/>
      <point x="703" y="679"/>
      <point x="709" y="685"/>
      <point x="709" y="711" type="curve"/>
      <point x="709" y="727"/>
      <point x="694" y="747"/>
      <point x="683" y="757" type="curve"/>
      <point x="672" y="768"/>
      <point x="667" y="773"/>
      <point x="667" y="773" type="curve"/>
      <point x="662" y="773"/>
      <point x="655" y="772"/>
      <point x="651" y="768" type="curve"/>
      <point x="640" y="768"/>
      <point x="621" y="754"/>
      <point x="621" y="743" type="curve"/>
      <point x="621" y="727"/>
      <point x="497" y="405"/>
      <point x="475" y="363" type="curve"/>
      <point x="475" y="357"/>
      <point x="470" y="352"/>
      <point x="470" y="347" type="curve"/>
      <point x="470" y="341"/>
      <point x="465" y="331"/>
      <point x="465" y="325" type="curve"/>
      <point x="459" y="320"/>
      <point x="454" y="304"/>
      <point x="454" y="293" type="curve"/>
      <point x="454" y="283"/>
      <point x="449" y="272"/>
      <point x="444" y="272" type="curve"/>
      <point x="438" y="261"/>
      <point x="366" y="41"/>
      <point x="361" y="14" type="curve"/>
      <point x="361" y="4"/>
      <point x="356" y="-12"/>
      <point x="350" y="-28" type="curve"/>
      <point x="334" y="-103"/>
      <point x="364" y="-158"/>
    </contour>
    <contour>
      <point x="140" y="173" type="curve"/>
      <point x="178" y="173"/>
      <point x="535" y="177"/>
      <point x="550" y="178" type="curve"/>
      <point x="574" y="180"/>
      <point x="596" y="182"/>
      <point x="606" y="183" type="curve"/>
      <point x="636" y="178"/>
      <point x="649" y="206"/>
      <point x="629" y="226" type="curve"/>
      <point x="614" y="240"/>
      <point x="608" y="245"/>
      <point x="574" y="245" type="curve"/>
      <point x="520" y="245"/>
      <point x="165" y="241"/>
      <point x="120" y="231" type="curve"/>
      <point x="71" y="226"/>
      <point x="53" y="217"/>
      <point x="68" y="197" type="curve"/>
      <point x="73" y="188"/>
      <point x="85" y="178"/>
      <point x="105" y="178" type="curve"/>
      <point x="120" y="173"/>
      <point x="132" y="173"/>
    </contour>
    <contour>
      <point x="154" y="-148" type="curve"/>
      <point x="164" y="-143"/>
      <point x="179" y="-137"/>
      <point x="179" y="-105" type="curve"/>
      <point x="179" y="-68"/>
      <point x="240" y="134"/>
      <point x="262" y="208" type="curve"/>
      <point x="272" y="235"/>
      <point x="278" y="256"/>
      <point x="278" y="261" type="curve"/>
      <point x="278" y="261"/>
      <point x="278" y="272"/>
      <point x="283" y="272" type="curve"/>
      <point x="288" y="277"/>
      <point x="288" y="283"/>
      <point x="288" y="288" type="curve"/>
      <point x="288" y="293"/>
      <point x="320" y="368"/>
      <point x="331" y="389" type="curve"/>
      <point x="336" y="405"/>
      <point x="342" y="416"/>
      <point x="342" y="421" type="curve"/>
      <point x="342" y="426"/>
      <point x="407" y="573"/>
      <point x="418" y="600" type="curve"/>
      <point x="455" y="679"/>
      <point x="461" y="685"/>
      <point x="461" y="711" type="curve"/>
      <point x="461" y="727"/>
      <point x="446" y="747"/>
      <point x="435" y="757" type="curve"/>
      <point x="424" y="768"/>
      <point x="419" y="773"/>
      <point x="419" y="773" type="curve"/>
      <point x="414" y="773"/>
      <point x="407" y="772"/>
      <point x="403" y="768" type="curve"/>
      <point x="392" y="768"/>
      <point x="373" y="754"/>
      <point x="373" y="743" type="curve"/>
      <point x="373" y="727"/>
      <point x="249" y="405"/>
      <point x="227" y="363" type="curve"/>
      <point x="227" y="357"/>
      <point x="222" y="352"/>
      <point x="222" y="347" type="curve"/>
      <point x="222" y="341"/>
      <point x="217" y="331"/>
      <point x="217" y="325" type="curve"/>
      <point x="211" y="320"/>
      <point x="206" y="304"/>
      <point x="206" y="293" type="curve"/>
      <point x="206" y="283"/>
      <point x="201" y="272"/>
      <point x="196" y="272" type="curve"/>
      <point x="190" y="261"/>
      <point x="118" y="41"/>
      <point x="113" y="14" type="curve"/>
      <point x="113" y="4"/>
      <point x="108" y="-12"/>
      <point x="102" y="-28" type="curve"/>
      <point x="86" y="-103"/>
      <point x="116" y="-158"/>
    </contour>
    <contour>
      <point x="201" y="374" type="curve"/>
      <point x="239" y="374"/>
      <point x="597" y="378"/>
      <point x="612" y="379" type="curve"/>
      <point x="636" y="381"/>
      <point x="657" y="383"/>
      <point x="667" y="384" type="curve"/>
      <point x="697" y="379"/>
      <point x="711" y="407"/>
      <point x="691" y="427" type="curve"/>
      <point x="676" y="441"/>
      <point x="670" y="446"/>
      <point x="636" y="446" type="curve"/>
      <point x="582" y="446"/>
      <point x="226" y="442"/>
      <point x="181" y="432" type="curve"/>
      <point x="132" y="427"/>
      <point x="115" y="417"/>
      <point x="130" y="397" type="curve"/>
      <point x="135" y="388"/>
      <point x="146" y="379"/>
      <point x="166" y="379" type="curve"/>
      <point x="181" y="374"/>
      <point x="193" y="374"/>
    </contour>
  </outline>
</glyph>
<glyph name="dollar" format="2">
  <advance width="450"/>
  <unicode hex="0024"/>
  <outline>
    <contour>
      <point x="170" y="-124" type="curve" smooth="yes"/>
      <point x="188" y="-124"/>
      <point x="192" y="-119"/>
      <point x="194" y="-83" type="curve"/>
      <point x="199" y="-47"/>
      <point x="279" y="140"/>
      <point x="308" y="214" type="curve"/>
      <point x="337" y="257"/>
      <point x="327" y="268"/>
      <point x="336" y="268" type="curve"/>
      <point x="339" y="270"/>
      <point x="340" y="277"/>
      <point x="342" y="283" type="curve" smooth="yes"/>
      <point x="345" y="295"/>
      <point x="377" y="349"/>
      <point x="395" y="384" type="curve" smooth="yes"/>
      <point x="408" y="410" type="line" smooth="yes"/>
      <point x="418" y="431"/>
      <point x="478" y="538"/>
      <point x="505" y="586" type="curve" smooth="yes"/>
      <point x="548" y="665"/>
      <point x="556" y="667"/>
      <point x="560" y="696" type="curve"/>
      <point x="560" y="716"/>
      <point x="550" y="732"/>
      <point x="546" y="738" type="curve"/>
      <point x="537" y="743" type="line" smooth="yes"/>
      <point x="535" y="744"/>
      <point x="533" y="745"/>
      <point x="533" y="745" type="curve"/>
      <point x="529" y="745"/>
      <point x="525" y="745"/>
      <point x="523" y="743" type="curve"/>
      <point x="520" y="743" type="line"/>
      <point x="519" y="743"/>
      <point x="518" y="743"/>
      <point x="518" y="743" type="curve"/>
      <point x="510" y="743"/>
      <point x="506" y="738"/>
      <point x="503" y="730" type="curve"/>
      <point x="502" y="710"/>
      <point x="325" y="338"/>
      <point x="325" y="357" type="curve" smooth="yes"/>
      <point x="325" y="339"/>
      <point x="301" y="328"/>
      <point x="301" y="299" type="curve"/>
      <point x="300" y="289"/>
      <point x="291" y="278"/>
      <point x="286" y="278" type="curve"/>
      <point x="279" y="267"/>
      <point x="187" y="59"/>
      <point x="178" y="33" type="curve"/>
      <point x="177" y="23"/>
      <point x="173" y="6"/>
      <point x="161" y="-11" type="curve"/>
      <point x="151" y="-46"/>
      <point x="146" y="-73"/>
      <point x="146" y="-93" type="curve" smooth="yes"/>
      <point x="146" y="-113"/>
      <point x="155" y="-124"/>
    </contour>
    <contour>
      <point x="164" y="33" type="curve" smooth="yes"/>
      <point x="267" y="33"/>
      <point x="345" y="61"/>
      <point x="400" y="105" type="curve" smooth="yes"/>
      <point x="422" y="122"/>
      <point x="455" y="159"/>
      <point x="455" y="176" type="curve" smooth="yes"/>
      <point x="455" y="228"/>
      <point x="432" y="268"/>
      <point x="432" y="264" type="curve" smooth="yes"/>
      <point x="432" y="270"/>
      <point x="404" y="307"/>
      <point x="402" y="307" type="curve"/>
      <point x="402" y="317"/>
      <point x="405" y="303"/>
      <point x="323" y="393" type="curve" smooth="yes"/>
      <point x="312" y="405"/>
      <point x="309" y="421"/>
      <point x="306" y="427" type="curve"/>
      <point x="306" y="443"/>
      <point x="319" y="467"/>
      <point x="354" y="489" type="curve"/>
      <point x="382" y="521"/>
      <point x="417" y="523"/>
      <point x="462" y="523" type="curve" smooth="yes"/>
      <point x="498" y="523"/>
      <point x="524" y="499"/>
      <point x="541" y="499" type="curve" smooth="yes"/>
      <point x="562" y="499"/>
      <point x="571" y="530"/>
      <point x="571" y="538" type="curve" smooth="yes"/>
      <point x="570" y="568"/>
      <point x="512" y="597"/>
      <point x="472" y="597" type="curve" smooth="yes"/>
      <point x="460" y="597"/>
      <point x="450" y="594"/>
      <point x="422" y="587" type="curve"/>
      <point x="392" y="587"/>
      <point x="355" y="568"/>
      <point x="351" y="568" type="curve"/>
      <point x="349" y="567"/>
      <point x="347" y="567"/>
      <point x="347" y="567" type="curve"/>
      <point x="340" y="567"/>
      <point x="288" y="532"/>
      <point x="272" y="513" type="curve"/>
      <point x="240" y="487"/>
      <point x="227" y="451"/>
      <point x="227" y="421" type="curve" smooth="yes"/>
      <point x="227" y="391"/>
      <point x="246" y="377"/>
      <point x="243" y="378" type="curve" smooth="yes"/>
      <point x="247" y="376"/>
      <point x="252" y="361"/>
      <point x="258" y="355" type="curve"/>
      <point x="275" y="346"/>
      <point x="289" y="323"/>
      <point x="299" y="307" type="curve"/>
      <point x="382" y="238"/>
      <point x="363" y="220"/>
      <point x="363" y="197" type="curve" smooth="yes"/>
      <point x="363" y="190"/>
      <point x="361" y="186"/>
      <point x="356" y="179" type="curve"/>
      <point x="356" y="168" type="line"/>
      <point x="349" y="144"/>
      <point x="315" y="102"/>
      <point x="172" y="102" type="curve" smooth="yes"/>
      <point x="125" y="102"/>
      <point x="111" y="115"/>
      <point x="111" y="125" type="curve" smooth="yes"/>
      <point x="111" y="134"/>
      <point x="116" y="143"/>
      <point x="122" y="156" type="curve"/>
      <point x="114" y="160"/>
      <point x="104" y="163"/>
      <point x="94" y="163" type="curve" smooth="yes"/>
      <point x="65" y="163"/>
      <point x="45" y="147"/>
      <point x="45" y="122" type="curve" smooth="yes"/>
      <point x="45" y="88"/>
      <point x="93" y="40"/>
      <point x="120" y="40" type="curve"/>
      <point x="124" y="36"/>
      <point x="142" y="33"/>
    </contour>
  </outline>
</glyph>
<glyph name="percent" format="1">
  <advance width="600"/>
  <unicode hex="0025"/>
  <outline>
    <contour>
      <point x="140" y="-91" type="curve"/>
      <point x="150" y="-89"/>
      <point x="171" y="-75"/>
      <point x="181" y="-50" type="curve"/>
      <point x="194" y="-20"/>
      <point x="312" y="121"/>
      <point x="355" y="173" type="curve"/>
      <point x="375" y="192"/>
      <point x="388" y="208"/>
      <point x="388" y="213" type="curve"/>
      <point x="388" y="213"/>
      <point x="392" y="220"/>
      <point x="395" y="219" type="curve"/>
      <point x="403" y="222"/>
      <point x="404" y="226"/>
      <point x="407" y="230" type="curve"/>
      <point x="408" y="234"/>
      <point x="462" y="285"/>
      <point x="479" y="300" type="curve"/>
      <point x="488" y="312"/>
      <point x="496" y="319"/>
      <point x="500" y="322" type="curve"/>
      <point x="501" y="327"/>
      <point x="597" y="426"/>
      <point x="616" y="445" type="curve"/>
      <point x="676" y="499"/>
      <point x="683" y="502"/>
      <point x="692" y="524" type="curve"/>
      <point x="698" y="535"/>
      <point x="698" y="547"/>
      <point x="690" y="559" type="curve"/>
      <point x="683" y="571"/>
      <point x="668" y="588"/>
      <point x="668" y="588" type="curve"/>
      <point x="663" y="590"/>
      <point x="656" y="590"/>
      <point x="652" y="588" type="curve"/>
      <point x="642" y="591"/>
      <point x="635" y="590"/>
      <point x="632" y="580" type="curve"/>
      <point x="626" y="567"/>
      <point x="408" y="331"/>
      <point x="373" y="302" type="curve"/>
      <point x="372" y="297"/>
      <point x="365" y="294"/>
      <point x="364" y="290" type="curve"/>
      <point x="362" y="285"/>
      <point x="355" y="279"/>
      <point x="352" y="273" type="curve"/>
      <point x="345" y="272"/>
      <point x="335" y="262"/>
      <point x="331" y="252" type="curve"/>
      <point x="328" y="243"/>
      <point x="320" y="235"/>
      <point x="315" y="237" type="curve"/>
      <point x="307" y="228"/>
      <point x="170" y="73"/>
      <point x="155" y="52" type="curve"/>
      <point x="152" y="44"/>
      <point x="142" y="33"/>
      <point x="132" y="22" type="curve"/>
      <point x="80" y="-50"/>
      <point x="101" y="-88"/>
    </contour>
    <contour>
      <point x="479" y="36" type="curve"/>
      <point x="422" y="-27"/>
      <point x="392" y="1"/>
      <point x="412" y="48" type="curve"/>
      <point x="432" y="90"/>
      <point x="449" y="126"/>
      <point x="477" y="148" type="curve"/>
      <point x="493" y="164"/>
      <point x="509" y="164"/>
      <point x="520" y="159" type="curve"/>
      <point x="525" y="155"/>
      <point x="525" y="124"/>
      <point x="521" y="109" type="curve"/>
      <point x="510" y="76"/>
      <point x="499" y="58"/>
    </contour>
    <contour>
      <point x="396" y="-81" type="curve"/>
      <point x="421" y="-80"/>
      <point x="461" y="-64"/>
      <point x="484" y="-49" type="curve"/>
      <point x="515" y="-30"/>
      <point x="536" y="-9"/>
      <point x="564" y="30" type="curve"/>
      <point x="607" y="93"/>
      <point x="609" y="132"/>
      <point x="606" y="165" type="curve"/>
      <point x="603" y="195"/>
      <point x="575" y="225"/>
      <point x="550" y="235" type="curve"/>
      <point x="534" y="253"/>
      <point x="530" y="251"/>
      <point x="505" y="244" type="curve"/>
      <point x="480" y="239"/>
      <point x="457" y="229"/>
      <point x="429" y="205" type="curve"/>
      <point x="408" y="189"/>
      <point x="373" y="129"/>
      <point x="364" y="113" type="curve"/>
      <point x="348" y="86"/>
      <point x="334" y="50"/>
      <point x="336" y="42" type="curve"/>
      <point x="337" y="37"/>
      <point x="337" y="32"/>
      <point x="333" y="32" type="curve"/>
      <point x="331" y="28"/>
      <point x="327" y="28"/>
      <point x="332" y="22" type="curve"/>
      <point x="332" y="22"/>
      <point x="334" y="13"/>
      <point x="331" y="4" type="curve"/>
      <point x="327" y="-15"/>
      <point x="342" y="-44"/>
      <point x="364" y="-65" type="curve"/>
      <point x="375" y="-76"/>
      <point x="382" y="-81"/>
    </contour>
    <contour>
      <point x="333" y="408" type="curve"/>
      <point x="276" y="345"/>
      <point x="247" y="373"/>
      <point x="266" y="420" type="curve"/>
      <point x="286" y="462"/>
      <point x="303" y="498"/>
      <point x="332" y="520" type="curve"/>
      <point x="348" y="536"/>
      <point x="364" y="536"/>
      <point x="374" y="531" type="curve"/>
      <point x="380" y="527"/>
      <point x="380" y="496"/>
      <point x="375" y="481" type="curve"/>
      <point x="365" y="448"/>
      <point x="353" y="430"/>
    </contour>
    <contour>
      <point x="250" y="292" type="curve"/>
      <point x="275" y="293"/>
      <point x="315" y="308"/>
      <point x="338" y="323" type="curve"/>
      <point x="369" y="342"/>
      <point x="390" y="364"/>
      <point x="418" y="403" type="curve"/>
      <point x="461" y="466"/>
      <point x="463" y="505"/>
      <point x="460" y="538" type="curve"/>
      <point x="457" y="568"/>
      <point x="429" y="597"/>
      <point x="404" y="607" type="curve"/>
      <point x="388" y="625"/>
      <point x="384" y="623"/>
      <point x="359" y="616" type="curve"/>
      <point x="334" y="611"/>
      <point x="311" y="602"/>
      <point x="283" y="578" type="curve"/>
      <point x="262" y="562"/>
      <point x="227" y="501"/>
      <point x="218" y="485" type="curve"/>
      <point x="202" y="458"/>
      <point x="188" y="422"/>
      <point x="190" y="414" type="curve"/>
      <point x="191" y="409"/>
      <point x="191" y="404"/>
      <point x="187" y="404" type="curve"/>
      <point x="185" y="400"/>
      <point x="181" y="400"/>
      <point x="186" y="394" type="curve"/>
      <point x="186" y="394"/>
      <point x="188" y="385"/>
      <point x="185" y="376" type="curve"/>
      <point x="181" y="357"/>
      <point x="196" y="329"/>
      <point x="218" y="308" type="curve"/>
      <point x="229" y="297"/>
      <point x="236" y="292"/>
    </contour>
  </outline>
</glyph>
<glyph name="ampersand" format="1">
  <advance width="564"/>
  <unicode hex="0026"/>
  <outline>
    <contour>
      <point x="667" y="-54" type="curve"/>
      <point x="665" y="-25"/>
      <point x="654" y="-9"/>
      <point x="613" y="5" type="curve"/>
      <point x="582" y="15"/>
      <point x="565" y="29"/>
      <point x="521" y="74" type="curve"/>
      <point x="505" y="89"/>
      <point x="484" y="114"/>
      <point x="484" y="114" type="curve"/>
      <point x="523" y="154"/>
      <point x="612" y="225"/>
      <point x="648" y="271" type="curve"/>
      <point x="650" y="273"/>
      <point x="668" y="329"/>
      <point x="642" y="334" type="curve"/>
      <point x="627" y="348"/>
      <point x="617" y="358"/>
      <point x="568" y="306" type="curve"/>
      <point x="519" y="260"/>
      <point x="471" y="221"/>
      <point x="427" y="179" type="curve"/>
      <point x="414" y="179"/>
      <point x="330" y="294"/>
      <point x="333" y="302" type="curve"/>
      <point x="334" y="307"/>
      <point x="394" y="361"/>
      <point x="417" y="381" type="curve"/>
      <point x="427" y="385"/>
      <point x="435" y="396"/>
      <point x="435" y="402" type="curve"/>
      <point x="435" y="402"/>
      <point x="457" y="422"/>
      <point x="475" y="443" type="curve"/>
      <point x="520" y="483"/>
      <point x="550" y="523"/>
      <point x="550" y="540" type="curve"/>
      <point x="550" y="558"/>
      <point x="521" y="601"/>
      <point x="492" y="623" type="curve"/>
      <point x="476" y="641"/>
      <point x="463" y="643"/>
      <point x="415" y="649" type="curve"/>
      <point x="388" y="658"/>
      <point x="344" y="661"/>
      <point x="337" y="657" type="curve"/>
      <point x="332" y="657"/>
      <point x="326" y="651"/>
      <point x="321" y="660" type="curve"/>
      <point x="317" y="666"/>
      <point x="242" y="595"/>
      <point x="216" y="553" type="curve"/>
      <point x="159" y="452"/>
      <point x="162" y="391"/>
      <point x="211" y="321" type="curve"/>
      <point x="142" y="252"/>
      <point x="62" y="143"/>
      <point x="55" y="119" type="curve"/>
      <point x="53" y="112"/>
      <point x="55" y="56"/>
      <point x="65" y="50" type="curve"/>
      <point x="75" y="39"/>
      <point x="121" y="9"/>
      <point x="137" y="4" type="curve"/>
      <point x="175" y="-9"/>
      <point x="212" y="-13"/>
      <point x="258" y="-9" type="curve"/>
      <point x="313" y="7"/>
      <point x="337" y="21"/>
      <point x="417" y="65" type="curve"/>
      <point x="469" y="3"/>
      <point x="508" y="-43"/>
      <point x="533" y="-50" type="curve"/>
      <point x="573" y="-74"/>
      <point x="670" y="-87"/>
    </contour>
    <contour>
      <point x="186" y="77" type="curve"/>
      <point x="166" y="90"/>
      <point x="149" y="87"/>
      <point x="163" y="120" type="curve"/>
      <point x="183" y="151"/>
      <point x="194" y="172"/>
      <point x="225" y="196" type="curve"/>
      <point x="237" y="216"/>
      <point x="272" y="253"/>
      <point x="278" y="253" type="curve"/>
      <point x="278" y="253"/>
      <point x="282" y="241"/>
      <point x="302" y="223" type="curve"/>
      <point x="320" y="200"/>
      <point x="331" y="181"/>
      <point x="341" y="170" type="curve"/>
      <point x="366" y="141" type="line"/>
      <point x="347" y="127" type="line"/>
      <point x="270" y="75"/>
      <point x="245" y="59"/>
    </contour>
    <contour>
      <point x="280" y="377" type="curve"/>
      <point x="253" y="416"/>
      <point x="268" y="455"/>
      <point x="302" y="504" type="curve"/>
      <point x="333" y="548"/>
      <point x="352" y="569"/>
      <point x="379" y="567" type="curve"/>
      <point x="402" y="568"/>
      <point x="430" y="554"/>
      <point x="435" y="546" type="curve"/>
      <point x="450" y="490"/>
      <point x="317" y="417"/>
    </contour>
  </outline>
</glyph>
<glyph name="quotesingle" format="1">
  <advance width="117"/>
  <unicode hex="0027"/>
  <outline>
    <contour>
      <point x="198" y="431" type="curve"/>
      <point x="213" y="436"/>
      <point x="223" y="436"/>
      <point x="222" y="441" type="curve"/>
      <point x="245" y="467"/>
      <point x="269" y="500"/>
      <point x="277" y="530" type="curve"/>
      <point x="285" y="556"/>
      <point x="300" y="598"/>
      <point x="303" y="630" type="curve"/>
      <point x="307" y="652"/>
      <point x="265" y="668"/>
      <point x="247" y="677" type="curve"/>
      <point x="237" y="682"/>
      <point x="226" y="644"/>
      <point x="227" y="635" type="curve"/>
      <point x="227" y="610"/>
      <point x="218" y="584"/>
      <point x="216" y="570" type="curve"/>
      <point x="209" y="550"/>
      <point x="184" y="506"/>
      <point x="168" y="480" type="curve"/>
      <point x="161" y="470"/>
      <point x="152" y="453"/>
      <point x="156" y="439" type="curve"/>
      <point x="165" y="431"/>
      <point x="177" y="427"/>
    </contour>
  </outline>
</glyph>
<glyph name="parenleft" format="2">
  <advance width="330"/>
  <unicode hex="0028"/>
  <outline>
    <contour>
      <point x="284" y="-138" type="curve"/>
      <point x="307" y="-141"/>
      <point x="336" y="-127"/>
      <point x="344" y="-96" type="curve"/>
      <point x="310" y="-75" type="line"/>
      <point x="290" y="-74"/>
      <point x="277" y="-67"/>
      <point x="262" y="-54" type="curve"/>
      <point x="225" y="-15"/>
      <point x="213" y="20"/>
      <point x="216" y="110" type="curve"/>
      <point x="227" y="191"/>
      <point x="227" y="199"/>
      <point x="232" y="199" type="curve"/>
      <point x="232" y="218"/>
      <point x="256" y="293"/>
      <point x="271" y="325" type="curve"/>
      <point x="283" y="350"/>
      <point x="291" y="370"/>
      <point x="295" y="384" type="curve"/>
      <point x="307" y="403"/>
      <point x="310" y="419"/>
      <point x="310" y="423" type="curve"/>
      <point x="323" y="438"/>
      <point x="328" y="449"/>
      <point x="340" y="471" type="curve"/>
      <point x="352" y="490"/>
      <point x="377" y="534"/>
      <point x="393" y="560" type="curve"/>
      <point x="418" y="592"/>
      <point x="429" y="618"/>
      <point x="429" y="618" type="curve"/>
      <point x="429" y="625"/>
      <point x="436" y="630"/>
      <point x="447" y="634" type="curve"/>
      <point x="455" y="639"/>
      <point x="472" y="656"/>
      <point x="484" y="671" type="curve"/>
      <point x="493" y="682"/>
      <point x="517" y="693"/>
      <point x="531" y="698" type="curve"/>
      <point x="557" y="710"/>
      <point x="557" y="710"/>
      <point x="553" y="729" type="curve"/>
      <point x="542" y="769"/>
      <point x="501" y="773"/>
      <point x="470" y="757" type="curve"/>
      <point x="458" y="757"/>
      <point x="438" y="746"/>
      <point x="433" y="732" type="curve"/>
      <point x="423" y="730"/>
      <point x="410" y="716"/>
      <point x="403" y="710" type="curve"/>
      <point x="382" y="693"/>
      <point x="285" y="559"/>
      <point x="255" y="493" type="curve"/>
      <point x="231" y="431"/>
      <point x="181" y="323"/>
      <point x="172" y="296" type="curve"/>
      <point x="171" y="286"/>
      <point x="165" y="255"/>
      <point x="158" y="230" type="curve"/>
      <point x="132" y="137"/>
      <point x="131" y="39"/>
      <point x="156" y="-17" type="curve"/>
      <point x="174" y="-75"/>
      <point x="220" y="-129"/>
    </contour>
  </outline>
</glyph>
<glyph name="asterisk" format="2">
  <advance width="363"/>
  <unicode hex="002A"/>
  <outline>
    <contour>
      <point x="414" y="392" type="curve"/>
      <point x="419" y="392"/>
      <point x="457" y="426"/>
      <point x="450" y="428" type="curve"/>
      <point x="450" y="428"/>
      <point x="450" y="434"/>
      <point x="450" y="434" type="curve"/>
      <point x="454" y="437"/>
      <point x="434" y="463"/>
      <point x="429" y="463" type="curve"/>
      <point x="425" y="463"/>
      <point x="420" y="463"/>
      <point x="420" y="459" type="curve"/>
      <point x="420" y="453"/>
      <point x="420" y="453"/>
      <point x="416" y="453" type="curve"/>
      <point x="415" y="453"/>
      <point x="412" y="472"/>
      <point x="405" y="497" type="curve"/>
      <point x="404" y="511"/>
      <point x="404" y="516"/>
      <point x="402" y="524" type="curve"/>
      <point x="395" y="534"/>
      <point x="395" y="541"/>
      <point x="402" y="541" type="curve"/>
      <point x="404" y="547"/>
      <point x="434" y="557"/>
      <point x="467" y="567" type="curve"/>
      <point x="502" y="578"/>
      <point x="527" y="600"/>
      <point x="529" y="601" type="curve"/>
      <point x="529" y="607"/>
      <point x="519" y="635"/>
      <point x="509" y="645" type="curve"/>
      <point x="502" y="649"/>
      <point x="496" y="649"/>
      <point x="485" y="645" type="curve"/>
      <point x="477" y="640"/>
      <point x="466" y="636"/>
      <point x="461" y="636" type="curve"/>
      <point x="458" y="635"/>
      <point x="451" y="633"/>
      <point x="436" y="626" type="curve"/>
      <point x="422" y="623"/>
      <point x="407" y="616"/>
      <point x="407" y="616" type="curve"/>
      <point x="404" y="616"/>
      <point x="424" y="660"/>
      <point x="454" y="704" type="curve"/>
      <point x="467" y="721" type="line"/>
      <point x="449" y="736" type="line" smooth="yes"/>
      <point x="446" y="746"/>
      <point x="439" y="749"/>
      <point x="434" y="756" type="curve"/>
      <point x="431" y="758"/>
      <point x="414" y="751"/>
      <point x="405" y="740" type="curve"/>
      <point x="405" y="740" type="line" smooth="yes"/>
      <point x="405" y="740" type="line"/>
      <point x="400" y="739"/>
      <point x="397" y="729"/>
      <point x="397" y="729" type="curve"/>
      <point x="397" y="729"/>
      <point x="390" y="721"/>
      <point x="387" y="713" type="curve"/>
      <point x="380" y="704"/>
      <point x="374" y="692"/>
      <point x="356" y="667" type="curve"/>
      <point x="353" y="643"/>
      <point x="339" y="622"/>
      <point x="339" y="622" type="curve"/>
      <point x="329" y="622"/>
      <point x="328" y="617"/>
      <point x="318" y="638" type="curve"/>
      <point x="308" y="652"/>
      <point x="288" y="677"/>
      <point x="283" y="677" type="curve"/>
      <point x="277" y="682"/>
      <point x="274" y="682"/>
      <point x="274" y="682" type="curve"/>
      <point x="269" y="677"/>
      <point x="257" y="647"/>
      <point x="265" y="642" type="curve"/>
      <point x="265" y="642"/>
      <point x="273" y="624"/>
      <point x="273" y="617" type="curve"/>
      <point x="273" y="614"/>
      <point x="275" y="606"/>
      <point x="279" y="600" type="curve"/>
      <point x="284" y="599"/>
      <point x="284" y="593"/>
      <point x="284" y="593" type="curve"/>
      <point x="279" y="593"/>
      <point x="284" y="589"/>
      <point x="289" y="583" type="curve"/>
      <point x="300" y="573"/>
      <point x="300" y="572"/>
      <point x="289" y="562" type="curve"/>
      <point x="279" y="554"/>
      <point x="197" y="469"/>
      <point x="183" y="452" type="curve"/>
      <point x="179" y="442"/>
      <point x="179" y="410"/>
      <point x="181" y="406" type="curve"/>
      <point x="181" y="405"/>
      <point x="191" y="396"/>
      <point x="200" y="395" type="curve"/>
      <point x="208" y="394"/>
      <point x="214" y="395"/>
      <point x="252" y="430" type="curve"/>
      <point x="312" y="490"/>
      <point x="345" y="517"/>
      <point x="346" y="516" type="curve"/>
      <point x="346" y="516"/>
      <point x="347" y="496"/>
      <point x="348" y="479" type="curve"/>
      <point x="356" y="457"/>
      <point x="362" y="438"/>
      <point x="366" y="429" type="curve"/>
      <point x="379" y="405"/>
      <point x="400" y="383"/>
    </contour>
  </outline>
</glyph>
<glyph name="plus" format="1">
  <advance width="446"/>
  <unicode hex="002B"/>
  <outline>
    <contour>
      <point x="170" y="172" type="curve"/>
      <point x="208" y="172"/>
      <point x="363" y="176"/>
      <point x="378" y="177" type="curve"/>
      <point x="402" y="179"/>
      <point x="446" y="181"/>
      <point x="456" y="182" type="curve"/>
      <point x="486" y="177"/>
      <point x="500" y="206"/>
      <point x="480" y="226" type="curve"/>
      <point x="465" y="240"/>
      <point x="436" y="247"/>
      <point x="402" y="247" type="curve"/>
      <point x="348" y="247"/>
      <point x="195" y="243"/>
      <point x="150" y="233" type="curve"/>
      <point x="101" y="228"/>
      <point x="84" y="217"/>
      <point x="99" y="197" type="curve"/>
      <point x="104" y="188"/>
      <point x="115" y="177"/>
      <point x="135" y="177" type="curve"/>
      <point x="150" y="172"/>
      <point x="162" y="172"/>
    </contour>
    <contour>
      <point x="304" y="16" type="curve"/>
      <point x="313" y="21"/>
      <point x="324" y="32"/>
      <point x="324" y="52" type="curve"/>
      <point x="329" y="67"/>
      <point x="329" y="79"/>
      <point x="329" y="87" type="curve"/>
      <point x="329" y="125"/>
      <point x="325" y="280"/>
      <point x="324" y="295" type="curve"/>
      <point x="322" y="319"/>
      <point x="320" y="363"/>
      <point x="319" y="373" type="curve"/>
      <point x="324" y="403"/>
      <point x="294" y="417"/>
      <point x="274" y="397" type="curve"/>
      <point x="260" y="382"/>
      <point x="254" y="353"/>
      <point x="254" y="319" type="curve"/>
      <point x="254" y="265"/>
      <point x="258" y="112"/>
      <point x="268" y="67" type="curve"/>
      <point x="273" y="18"/>
      <point x="284" y="1"/>
    </contour>
  </outline>
</glyph>
<glyph name="comma" format="1">
  <advance width="198"/>
  <unicode hex="002C"/>
  <outline>
    <contour>
      <point x="55" y="-86" type="curve"/>
      <point x="71" y="-86"/>
      <point x="82" y="-86"/>
      <point x="87" y="-81" type="curve"/>
      <point x="93" y="-76"/>
      <point x="97" y="-72"/>
      <point x="102" y="-72" type="curve"/>
      <point x="107" y="-72"/>
      <point x="152" y="-20"/>
      <point x="157" y="-6" type="curve"/>
      <point x="174" y="29"/>
      <point x="179" y="48"/>
      <point x="174" y="78" type="curve"/>
      <point x="162" y="154"/>
      <point x="129" y="131"/>
      <point x="114" y="117" type="curve"/>
      <point x="109" y="112"/>
      <point x="109" y="102"/>
      <point x="109" y="92" type="curve"/>
      <point x="103" y="68"/>
      <point x="98" y="48"/>
      <point x="93" y="33" type="curve"/>
      <point x="83" y="14"/>
      <point x="61" y="-25"/>
      <point x="40" y="-45" type="curve"/>
      <point x="30" y="-55"/>
      <point x="25" y="-60"/>
      <point x="25" y="-69" type="curve"/>
      <point x="30" y="-79"/>
      <point x="40" y="-86"/>
    </contour>
  </outline>
</glyph>
<glyph name="hyphen" format="2">
  <advance width="326"/>
  <unicode hex="002D"/>
  <outline>
    <contour>
      <point x="170" y="172" type="curve"/>
      <point x="208" y="172"/>
      <point x="251" y="176"/>
      <point x="266" y="177" type="curve"/>
      <point x="290" y="179"/>
      <point x="326" y="181"/>
      <point x="336" y="182" type="curve"/>
      <point x="366" y="177"/>
      <point x="380" y="206"/>
      <point x="360" y="226" type="curve"/>
      <point x="345" y="240"/>
      <point x="324" y="247"/>
      <point x="290" y="247" type="curve"/>
      <point x="236" y="247"/>
      <point x="195" y="243"/>
      <point x="150" y="233" type="curve"/>
      <point x="101" y="228"/>
      <point x="84" y="217"/>
      <point x="99" y="197" type="curve"/>
      <point x="104" y="188"/>
      <point x="115" y="177"/>
      <point x="135" y="177" type="curve"/>
      <point x="150" y="172"/>
      <point x="162" y="172"/>
    </contour>
  </outline>
</glyph>
<glyph name="slash" format="2">
  <advance width="330"/>
  <unicode hex="002F"/>
  <outline>
    <contour>
      <point x="79" y="-115" type="curve"/>
      <point x="89" y="-111"/>
      <point x="103" y="-88"/>
      <point x="109" y="-57" type="curve"/>
      <point x="116" y="-21"/>
      <point x="220" y="182"/>
      <point x="254" y="251" type="curve"/>
      <point x="270" y="277"/>
      <point x="279" y="296"/>
      <point x="278" y="301" type="curve"/>
      <point x="278" y="301"/>
      <point x="281" y="312"/>
      <point x="285" y="311" type="curve"/>
      <point x="292" y="315"/>
      <point x="292" y="321"/>
      <point x="294" y="325" type="curve"/>
      <point x="295" y="330"/>
      <point x="339" y="398"/>
      <point x="354" y="417" type="curve"/>
      <point x="361" y="433"/>
      <point x="369" y="443"/>
      <point x="371" y="448" type="curve"/>
      <point x="370" y="453"/>
      <point x="430" y="556"/>
      <point x="447" y="581" type="curve"/>
      <point x="497" y="653"/>
      <point x="504" y="657"/>
      <point x="508" y="684" type="curve"/>
      <point x="512" y="698"/>
      <point x="514" y="710"/>
      <point x="504" y="721" type="curve"/>
      <point x="494" y="734"/>
      <point x="476" y="752"/>
      <point x="476" y="752" type="curve"/>
      <point x="471" y="753"/>
      <point x="464" y="752"/>
      <point x="460" y="749" type="curve"/>
      <point x="449" y="751"/>
      <point x="442" y="748"/>
      <point x="441" y="737" type="curve"/>
      <point x="438" y="721"/>
      <point x="281" y="438"/>
      <point x="251" y="400" type="curve"/>
      <point x="251" y="394"/>
      <point x="245" y="390"/>
      <point x="244" y="385" type="curve"/>
      <point x="243" y="379"/>
      <point x="237" y="370"/>
      <point x="236" y="364" type="curve"/>
      <point x="229" y="361"/>
      <point x="222" y="347"/>
      <point x="219" y="335" type="curve"/>
      <point x="217" y="325"/>
      <point x="211" y="315"/>
      <point x="205" y="316" type="curve"/>
      <point x="198" y="305"/>
      <point x="78" y="80"/>
      <point x="68" y="54" type="curve"/>
      <point x="67" y="44"/>
      <point x="58" y="29"/>
      <point x="50" y="14" type="curve"/>
      <point x="12" y="-76"/>
      <point x="39" y="-117"/>
    </contour>
  </outline>
</glyph>
<glyph name="one" format="1">
  <advance width="450"/>
  <unicode hex="0031"/>
  <outline>
    <contour>
      <point x="363" y="-18" type="curve"/>
      <point x="369" y="-13"/>
      <point x="375" y="21"/>
      <point x="386" y="50" type="curve"/>
      <point x="392" y="79"/>
      <point x="409" y="145"/>
      <point x="423" y="177" type="curve"/>
      <point x="437" y="231"/>
      <point x="445" y="238"/>
      <point x="462" y="300" type="curve"/>
      <point x="478" y="356"/>
      <point x="519" y="473"/>
      <point x="530" y="497" type="curve"/>
      <point x="538" y="514"/>
      <point x="540" y="524"/>
      <point x="536" y="529" type="curve"/>
      <point x="534" y="541"/>
      <point x="492" y="566"/>
      <point x="487" y="567" type="curve"/>
      <point x="482" y="568"/>
      <point x="437" y="547"/>
      <point x="388" y="517" type="curve"/>
      <point x="341" y="482"/>
      <point x="295" y="451"/>
      <point x="288" y="443" type="curve"/>
      <point x="276" y="435"/>
      <point x="264" y="423"/>
      <point x="260" y="423" type="curve"/>
      <point x="247" y="416"/>
      <point x="181" y="365"/>
      <point x="175" y="363" type="curve"/>
      <point x="167" y="349"/>
      <point x="188" y="314"/>
      <point x="205" y="299" type="curve"/>
      <point x="217" y="292"/>
      <point x="224" y="299"/>
      <point x="260" y="327" type="curve"/>
      <point x="284" y="341"/>
      <point x="315" y="369"/>
      <point x="338" y="383" type="curve"/>
      <point x="380" y="415"/>
      <point x="421" y="437"/>
      <point x="421" y="437" type="curve"/>
      <point x="421" y="437"/>
      <point x="408" y="415"/>
      <point x="396" y="376" type="curve"/>
      <point x="382" y="334"/>
      <point x="367" y="283"/>
      <point x="362" y="265" type="curve"/>
      <point x="346" y="212"/>
      <point x="332" y="170"/>
      <point x="326" y="167" type="curve"/>
      <point x="326" y="167"/>
      <point x="308" y="110"/>
      <point x="300" y="71" type="curve"/>
      <point x="287" y="9"/>
      <point x="296" y="5"/>
      <point x="305" y="-3" type="curve"/>
      <point x="318" y="-16"/>
      <point x="356" y="-23"/>
    </contour>
  </outline>
</glyph>
<glyph name="two" format="1">
  <advance width="450"/>
  <unicode hex="0032"/>
  <outline>
    <contour>
      <point x="162" y="8" type="curve"/>
      <point x="176" y="4"/>
      <point x="270" y="31"/>
      <point x="293" y="40" type="curve"/>
      <point x="326" y="51"/>
      <point x="348" y="56"/>
      <point x="372" y="53" type="curve"/>
      <point x="388" y="54"/>
      <point x="409" y="53"/>
      <point x="414" y="56" type="curve"/>
      <point x="425" y="58"/>
      <point x="441" y="59"/>
      <point x="457" y="59" type="curve"/>
      <point x="510" y="49"/>
      <point x="533" y="77"/>
      <point x="512" y="95" type="curve"/>
      <point x="504" y="104"/>
      <point x="501" y="111"/>
      <point x="501" y="111" type="curve"/>
      <point x="501" y="116"/>
      <point x="491" y="124"/>
      <point x="477" y="128" type="curve"/>
      <point x="451" y="136"/>
      <point x="411" y="142"/>
      <point x="409" y="133" type="curve"/>
      <point x="409" y="133"/>
      <point x="407" y="128"/>
      <point x="404" y="135" type="curve"/>
      <point x="395" y="142"/>
      <point x="311" y="130"/>
      <point x="272" y="116" type="curve"/>
      <point x="260" y="112"/>
      <point x="239" y="102"/>
      <point x="241" y="108" type="curve"/>
      <point x="236" y="108"/>
      <point x="323" y="202"/>
      <point x="341" y="211" type="curve"/>
      <point x="355" y="223"/>
      <point x="450" y="327"/>
      <point x="463" y="343" type="curve"/>
      <point x="496" y="392"/>
      <point x="501" y="440"/>
      <point x="480" y="472" type="curve"/>
      <point x="467" y="500"/>
      <point x="420" y="532"/>
      <point x="404" y="531" type="curve"/>
      <point x="404" y="531"/>
      <point x="390" y="536"/>
      <point x="375" y="536" type="curve"/>
      <point x="337" y="548"/>
      <point x="285" y="527"/>
      <point x="231" y="492" type="curve"/>
      <point x="200" y="475" type="line"/>
      <point x="210" y="432" type="line"/>
      <point x="218" y="424"/>
      <point x="225" y="412"/>
      <point x="230" y="410" type="curve"/>
      <point x="240" y="408"/>
      <point x="256" y="418"/>
      <point x="275" y="422" type="curve"/>
      <point x="322" y="455"/>
      <point x="344" y="460"/>
      <point x="376" y="449" type="curve"/>
      <point x="405" y="440"/>
      <point x="409" y="440"/>
      <point x="405" y="426" type="curve"/>
      <point x="402" y="416"/>
      <point x="392" y="394"/>
      <point x="381" y="378" type="curve"/>
      <point x="368" y="365"/>
      <point x="356" y="349"/>
      <point x="354" y="339" type="curve"/>
      <point x="346" y="331"/>
      <point x="332" y="320"/>
      <point x="326" y="316" type="curve"/>
      <point x="319" y="312"/>
      <point x="314" y="306"/>
      <point x="314" y="306" type="curve"/>
      <point x="312" y="297"/>
      <point x="288" y="271"/>
      <point x="260" y="241" type="curve"/>
      <point x="233" y="213"/>
      <point x="200" y="183"/>
      <point x="190" y="170" type="curve"/>
      <point x="183" y="162"/>
      <point x="170" y="150"/>
      <point x="163" y="139" type="curve"/>
      <point x="157" y="135"/>
      <point x="150" y="132"/>
      <point x="149" y="127" type="curve"/>
      <point x="148" y="122"/>
      <point x="131" y="84"/>
      <point x="126" y="88" type="curve"/>
      <point x="121" y="88"/>
      <point x="114" y="63"/>
      <point x="118" y="57" type="curve"/>
      <point x="124" y="44"/>
      <point x="154" y="11"/>
    </contour>
  </outline>
</glyph>
<glyph name="five" format="1">
  <advance width="434"/>
  <unicode hex="0035"/>
  <outline>
    <contour>
      <point x="171" y="16" type="curve"/>
      <point x="230" y="-23"/>
      <point x="377" y="27"/>
      <point x="439" y="113" type="curve"/>
      <point x="457" y="141"/>
      <point x="458" y="150"/>
      <point x="462" y="180" type="curve"/>
      <point x="472" y="248"/>
      <point x="462" y="336"/>
      <point x="407" y="368" type="curve"/>
      <point x="374" y="388"/>
      <point x="365" y="389"/>
      <point x="332" y="394" type="curve"/>
      <point x="307" y="397"/>
      <point x="302" y="398"/>
      <point x="303" y="408" type="curve"/>
      <point x="304" y="413"/>
      <point x="304" y="418"/>
      <point x="304" y="418" type="curve"/>
      <point x="309" y="412"/>
      <point x="309" y="417"/>
      <point x="316" y="425" type="curve"/>
      <point x="316" y="430"/>
      <point x="322" y="436"/>
      <point x="322" y="436" type="curve"/>
      <point x="327" y="435"/>
      <point x="328" y="440"/>
      <point x="333" y="444" type="curve"/>
      <point x="340" y="459"/>
      <point x="357" y="463"/>
      <point x="385" y="474" type="curve"/>
      <point x="421" y="485"/>
      <point x="455" y="489"/>
      <point x="474" y="477" type="curve"/>
      <point x="497" y="465"/>
      <point x="514" y="503"/>
      <point x="498" y="531" type="curve"/>
      <point x="482" y="552"/>
      <point x="467" y="560"/>
      <point x="428" y="561" type="curve"/>
      <point x="373" y="564"/>
      <point x="313" y="541"/>
      <point x="273" y="497" type="curve"/>
      <point x="242" y="466"/>
      <point x="190" y="385"/>
      <point x="186" y="366" type="curve"/>
      <point x="186" y="356"/>
      <point x="223" y="324"/>
      <point x="233" y="322" type="curve"/>
      <point x="233" y="322"/>
      <point x="233" y="318"/>
      <point x="254" y="320" type="curve"/>
      <point x="274" y="323"/>
      <point x="310" y="326"/>
      <point x="320" y="324" type="curve"/>
      <point x="342" y="315"/>
      <point x="371" y="291"/>
      <point x="378" y="271" type="curve"/>
      <point x="382" y="260"/>
      <point x="384" y="249"/>
      <point x="384" y="249" type="curve"/>
      <point x="394" y="249"/>
      <point x="379" y="181"/>
      <point x="366" y="153" type="curve"/>
      <point x="334" y="111"/>
      <point x="292" y="86"/>
      <point x="236" y="85" type="curve"/>
      <point x="207" y="84"/>
      <point x="187" y="91"/>
      <point x="185" y="102" type="curve"/>
      <point x="182" y="117"/>
      <point x="141" y="110"/>
      <point x="134" y="95" type="curve"/>
      <point x="132" y="86"/>
      <point x="138" y="41"/>
      <point x="144" y="44" type="curve"/>
      <point x="149" y="44"/>
      <point x="149" y="44"/>
      <point x="153" y="38" type="curve"/>
      <point x="153" y="33"/>
      <point x="161" y="23"/>
    </contour>
  </outline>
</glyph>
<glyph name="eight" format="1">
  <advance width="450"/>
  <unicode hex="0038"/>
  <outline>
    <contour>
      <point x="182" y="-47" type="curve"/>
      <point x="196" y="-54"/>
      <point x="257" y="-43"/>
      <point x="283" y="-25" type="curve"/>
      <point x="296" y="-17"/>
      <point x="309" y="-13"/>
      <point x="314" y="-15" type="curve"/>
      <point x="321" y="-16"/>
      <point x="331" y="-13"/>
      <point x="334" y="-4" type="curve"/>
      <point x="340" y="0"/>
      <point x="348" y="5"/>
      <point x="348" y="5" type="curve"/>
      <point x="365" y="3"/>
      <point x="398" y="45"/>
      <point x="424" y="102" type="curve"/>
      <point x="444" y="130"/>
      <point x="424" y="188"/>
      <point x="393" y="245" type="curve"/>
      <point x="375" y="267"/>
      <point x="371" y="278"/>
      <point x="378" y="277" type="curve"/>
      <point x="386" y="282"/>
      <point x="390" y="281"/>
      <point x="390" y="281" type="curve"/>
      <point x="398" y="276"/>
      <point x="448" y="300"/>
      <point x="449" y="305" type="curve"/>
      <point x="449" y="310"/>
      <point x="455" y="309"/>
      <point x="461" y="305" type="curve"/>
      <point x="466" y="305"/>
      <point x="472" y="313"/>
      <point x="479" y="322" type="curve"/>
      <point x="490" y="325"/>
      <point x="498" y="335"/>
      <point x="505" y="340" type="curve"/>
      <point x="513" y="343"/>
      <point x="524" y="354"/>
      <point x="540" y="372" type="curve"/>
      <point x="552" y="390"/>
      <point x="556" y="444"/>
      <point x="545" y="466" type="curve"/>
      <point x="543" y="472"/>
      <point x="537" y="477"/>
      <point x="537" y="481" type="curve"/>
      <point x="534" y="492"/>
      <point x="477" y="534"/>
      <point x="453" y="544" type="curve"/>
      <point x="418" y="559"/>
      <point x="333" y="572"/>
      <point x="311" y="575" type="curve"/>
      <point x="271" y="569"/>
      <point x="232" y="531"/>
      <point x="211" y="483" type="curve"/>
      <point x="192" y="446"/>
      <point x="191" y="402"/>
      <point x="211" y="383" type="curve"/>
      <point x="215" y="373"/>
      <point x="219" y="369"/>
      <point x="219" y="369" type="curve"/>
      <point x="214" y="369"/>
      <point x="224" y="362"/>
      <point x="229" y="347" type="curve"/>
      <point x="255" y="311"/>
      <point x="254" y="306"/>
      <point x="239" y="287" type="curve"/>
      <point x="217" y="259"/>
      <point x="142" y="157"/>
      <point x="123" y="104" type="curve"/>
      <point x="114" y="90"/>
      <point x="111" y="66"/>
      <point x="111" y="50" type="curve"/>
      <point x="107" y="22"/>
      <point x="111" y="16"/>
      <point x="121" y="-6" type="curve"/>
      <point x="133" y="-17"/>
      <point x="168" y="-45"/>
    </contour>
    <contour>
      <point x="205" y="29" type="curve"/>
      <point x="188" y="31"/>
      <point x="195" y="68"/>
      <point x="225" y="119" type="curve"/>
      <point x="235" y="138"/>
      <point x="245" y="161"/>
      <point x="245" y="165" type="curve"/>
      <point x="249" y="169"/>
      <point x="257" y="177"/>
      <point x="267" y="187" type="curve"/>
      <point x="272" y="196"/>
      <point x="271" y="195"/>
      <point x="286" y="214" type="curve"/>
      <point x="292" y="228"/>
      <point x="300" y="238"/>
      <point x="300" y="238" type="curve"/>
      <point x="307" y="234"/>
      <point x="312" y="230"/>
      <point x="320" y="218" type="curve"/>
      <point x="327" y="207"/>
      <point x="337" y="186"/>
      <point x="345" y="170" type="curve"/>
      <point x="358" y="137"/>
      <point x="342" y="103"/>
      <point x="300" y="70" type="curve"/>
      <point x="270" y="49"/>
      <point x="224" y="27"/>
    </contour>
    <contour>
      <point x="360" y="355" type="curve"/>
      <point x="326" y="333"/>
      <point x="311" y="349"/>
      <point x="309" y="356" type="curve"/>
      <point x="304" y="356"/>
      <point x="301" y="361"/>
      <point x="301" y="365" type="curve"/>
      <point x="301" y="365"/>
      <point x="298" y="377"/>
      <point x="286" y="382" type="curve"/>
      <point x="275" y="404"/>
      <point x="276" y="417"/>
      <point x="284" y="442" type="curve"/>
      <point x="301" y="489"/>
      <point x="342" y="499"/>
      <point x="425" y="470" type="curve"/>
      <point x="467" y="453"/>
      <point x="464" y="448"/>
      <point x="463" y="428" type="curve"/>
      <point x="466" y="407"/>
      <point x="472" y="415"/>
      <point x="464" y="401" type="curve"/>
      <point x="442" y="378"/>
      <point x="414" y="364"/>
      <point x="411" y="369" type="curve"/>
      <point x="403" y="383"/>
      <point x="388" y="380"/>
    </contour>
  </outline>
</glyph>
<glyph name="nine" format="2">
  <advance width="438"/>
  <unicode hex="0039"/>
  <outline>
    <contour>
      <point x="312" y="-42" type="curve"/>
      <point x="322" y="-43"/>
      <point x="382" y="9"/>
      <point x="389" y="28" type="curve"/>
      <point x="395" y="42"/>
      <point x="395" y="47"/>
      <point x="391" y="53" type="curve"/>
      <point x="386" y="53"/>
      <point x="368" y="59"/>
      <point x="363" y="59" type="curve"/>
      <point x="354" y="60"/>
      <point x="358" y="114"/>
      <point x="377" y="170" type="curve"/>
      <point x="409" y="261"/>
      <point x="463" y="371"/>
      <point x="495" y="399" type="curve"/>
      <point x="512" y="417"/>
      <point x="524" y="436"/>
      <point x="533" y="480" type="curve"/>
      <point x="539" y="503"/>
      <point x="489" y="570"/>
      <point x="460" y="582" type="curve"/>
      <point x="444" y="588"/>
      <point x="409" y="590"/>
      <point x="388" y="586" type="curve"/>
      <point x="336" y="576"/>
      <point x="259" y="515"/>
      <point x="218" y="454" type="curve"/>
      <point x="200" y="425"/>
      <point x="194" y="412"/>
      <point x="193" y="392" type="curve"/>
      <point x="189" y="333"/>
      <point x="242" y="272"/>
      <point x="304" y="283" type="curve"/>
      <point x="336" y="286"/>
      <point x="336" y="281"/>
      <point x="317" y="233" type="curve"/>
      <point x="297" y="175"/>
      <point x="270" y="84"/>
      <point x="267" y="45" type="curve"/>
      <point x="267" y="35"/>
      <point x="265" y="15"/>
      <point x="265" y="11" type="curve"/>
      <point x="264" y="1"/>
      <point x="268" y="-9"/>
      <point x="268" y="-9" type="curve"/>
      <point x="273" y="-9"/>
      <point x="273" y="-9"/>
      <point x="272" y="-14" type="curve"/>
      <point x="272" y="-19"/>
      <point x="302" y="-41"/>
    </contour>
    <contour>
      <point x="283" y="369" type="curve"/>
      <point x="270" y="384"/>
      <point x="278" y="404"/>
      <point x="313" y="441" type="curve"/>
      <point x="324" y="450"/>
      <point x="328" y="459"/>
      <point x="325" y="464" type="curve"/>
      <point x="325" y="469"/>
      <point x="329" y="469"/>
      <point x="329" y="469" type="curve"/>
      <point x="334" y="468"/>
      <point x="340" y="468"/>
      <point x="345" y="473" type="curve"/>
      <point x="373" y="491"/>
      <point x="378" y="500"/>
      <point x="399" y="504" type="curve"/>
      <point x="431" y="516"/>
      <point x="436" y="515"/>
      <point x="446" y="500" type="curve"/>
      <point x="455" y="490"/>
      <point x="447" y="482"/>
      <point x="430" y="463" type="curve"/>
      <point x="424" y="459"/>
      <point x="423" y="448"/>
      <point x="407" y="429" type="curve"/>
      <point x="365" y="363"/>
      <point x="312" y="337"/>
    </contour>
  </outline>
</glyph>
<glyph name="semicolon" format="1">
  <advance width="198"/>
  <unicode hex="003B"/>
  <outline>
    <contour>
      <point x="57" y="-86" type="curve"/>
      <point x="73" y="-86"/>
      <point x="84" y="-86"/>
      <point x="89" y="-81" type="curve"/>
      <point x="94" y="-76"/>
      <point x="98" y="-72"/>
      <point x="103" y="-72" type="curve"/>
      <point x="109" y="-72"/>
      <point x="154" y="-20"/>
      <point x="159" y="-6" type="curve"/>
      <point x="176" y="29"/>
      <point x="181" y="48"/>
      <point x="176" y="78" type="curve"/>
      <point x="164" y="154"/>
      <point x="131" y="131"/>
      <point x="116" y="117" type="curve"/>
      <point x="111" y="112"/>
      <point x="111" y="102"/>
      <point x="111" y="92" type="curve"/>
      <point x="105" y="68"/>
      <point x="100" y="48"/>
      <point x="95" y="33" type="curve"/>
      <point x="84" y="14"/>
      <point x="63" y="-25"/>
      <point x="42" y="-45" type="curve"/>
      <point x="32" y="-55"/>
      <point x="27" y="-60"/>
      <point x="27" y="-69" type="curve"/>
      <point x="32" y="-79"/>
      <point x="42" y="-86"/>
    </contour>
    <contour>
      <point x="233" y="262" type="curve"/>
      <point x="287" y="289"/>
      <point x="292" y="326"/>
      <point x="248" y="354" type="curve"/>
      <point x="222" y="365"/>
      <point x="216" y="365"/>
      <point x="190" y="349" type="curve"/>
      <point x="151" y="322"/>
      <point x="140" y="294"/>
      <point x="167" y="268" type="curve"/>
      <point x="190" y="252"/>
      <point x="205" y="252"/>
    </contour>
  </outline>
</glyph>
<glyph name="less" format="1">
  <advance width="446"/>
  <unicode hex="003C"/>
  <outline>
    <contour>
      <point x="348" y="43" type="curve"/>
      <point x="390" y="24"/>
      <point x="455" y="35"/>
      <point x="465" y="53" type="curve"/>
      <point x="469" y="79"/>
      <point x="457" y="98"/>
      <point x="383" y="121" type="curve"/>
      <point x="283" y="152"/>
      <point x="237" y="178"/>
      <point x="214" y="205" type="curve"/>
      <point x="210" y="231"/>
      <point x="221" y="224"/>
      <point x="275" y="257" type="curve"/>
      <point x="362" y="310"/>
      <point x="415" y="329"/>
      <point x="442" y="352" type="curve"/>
      <point x="451" y="360"/>
      <point x="454" y="376"/>
      <point x="454" y="376" type="curve"/>
      <point x="452" y="387"/>
      <point x="446" y="387"/>
      <point x="432" y="397" type="curve"/>
      <point x="426" y="401"/>
      <point x="404" y="422"/>
      <point x="396" y="419" type="curve"/>
      <point x="390" y="419"/>
      <point x="378" y="416"/>
      <point x="370" y="407" type="curve"/>
      <point x="357" y="394"/>
      <point x="308" y="365"/>
      <point x="246" y="333" type="curve"/>
      <point x="170" y="290"/>
      <point x="153" y="273"/>
      <point x="129" y="261" type="curve"/>
      <point x="127" y="260"/>
      <point x="116" y="253"/>
      <point x="105" y="251" type="curve"/>
      <point x="116" y="198" type="line"/>
      <point x="149" y="158" type="line"/>
      <point x="174" y="122"/>
      <point x="198" y="112"/>
      <point x="243" y="86" type="curve"/>
      <point x="280" y="57"/>
      <point x="307" y="54"/>
    </contour>
  </outline>
</glyph>
<glyph name="question" format="2">
  <advance width="374"/>
  <unicode hex="003F"/>
  <outline>
    <contour>
      <point x="247" y="183" type="curve"/>
      <point x="265" y="183"/>
      <point x="283" y="191"/>
      <point x="298" y="223" type="curve"/>
      <point x="315" y="271"/>
      <point x="351" y="329"/>
      <point x="397" y="354" type="curve"/>
      <point x="418" y="378"/>
      <point x="469" y="421"/>
      <point x="481" y="433" type="curve"/>
      <point x="534" y="492"/>
      <point x="562" y="620"/>
      <point x="543" y="679" type="curve"/>
      <point x="529" y="695"/>
      <point x="484" y="724"/>
      <point x="460" y="731" type="curve"/>
      <point x="449" y="731"/>
      <point x="435" y="731"/>
      <point x="431" y="731" type="curve"/>
      <point x="431" y="737"/>
      <point x="418" y="734"/>
      <point x="410" y="735" type="curve"/>
      <point x="386" y="732"/>
      <point x="377" y="732"/>
      <point x="377" y="732" type="curve"/>
      <point x="377" y="732"/>
      <point x="347" y="714"/>
      <point x="319" y="702" type="curve"/>
      <point x="268" y="676"/>
      <point x="238" y="613"/>
      <point x="225" y="573" type="curve"/>
      <point x="225" y="553"/>
      <point x="222" y="546"/>
      <point x="230" y="535" type="curve"/>
      <point x="233" y="529"/>
      <point x="248" y="511"/>
      <point x="248" y="511" type="curve"/>
      <point x="271" y="489"/>
      <point x="306" y="505"/>
      <point x="315" y="507" type="curve"/>
      <point x="315" y="514"/>
      <point x="310" y="531"/>
      <point x="310" y="542" type="curve"/>
      <point x="306" y="555"/>
      <point x="306" y="558"/>
      <point x="314" y="581" type="curve"/>
      <point x="344" y="648"/>
      <point x="389" y="669"/>
      <point x="440" y="660" type="curve"/>
      <point x="456" y="648"/>
      <point x="460" y="645"/>
      <point x="459" y="599" type="curve"/>
      <point x="444" y="524"/>
      <point x="440" y="496"/>
      <point x="395" y="450" type="curve"/>
      <point x="385" y="441"/>
      <point x="362" y="425"/>
      <point x="362" y="425" type="curve"/>
      <point x="349" y="419"/>
      <point x="324" y="399"/>
      <point x="324" y="394" type="curve"/>
      <point x="324" y="394"/>
      <point x="319" y="391"/>
      <point x="307" y="382" type="curve"/>
      <point x="285" y="366"/>
      <point x="249" y="326"/>
      <point x="234" y="300" type="curve"/>
      <point x="225" y="276"/>
      <point x="215" y="258"/>
      <point x="215" y="250" type="curve"/>
      <point x="212" y="239"/>
      <point x="217" y="222"/>
      <point x="217" y="220" type="curve"/>
      <point x="217" y="204"/>
      <point x="226" y="185"/>
    </contour>
    <contour>
      <point x="224" y="6" type="curve"/>
      <point x="277" y="33"/>
      <point x="283" y="70"/>
      <point x="239" y="98" type="curve"/>
      <point x="212" y="109"/>
      <point x="207" y="109"/>
      <point x="180" y="92" type="curve"/>
      <point x="142" y="66"/>
      <point x="131" y="38"/>
      <point x="158" y="12" type="curve"/>
      <point x="180" y="-5"/>
      <point x="196" y="-5"/>
    </contour>
  </outline>
</glyph>
<glyph name="at" format="1">
  <advance width="643"/>
  <unicode hex="0040"/>
  <outline>
    <contour>
      <point x="307" y="-140" type="curve"/>
      <point x="324" y="-140"/>
      <point x="366" y="-132"/>
      <point x="378" y="-127" type="curve"/>
      <point x="389" y="-122"/>
      <point x="384" y="-108"/>
      <point x="384" y="-96" type="curve"/>
      <point x="377" y="-81"/>
      <point x="376" y="-63"/>
      <point x="376" y="-62" type="curve"/>
      <point x="377" y="-50"/>
      <point x="374" y="-49"/>
      <point x="364" y="-46" type="curve"/>
      <point x="313" y="-49"/>
      <point x="270" y="-45"/>
      <point x="240" y="-33" type="curve"/>
      <point x="210" y="-14"/>
      <point x="190" y="0"/>
      <point x="175" y="30" type="curve"/>
      <point x="171" y="38"/>
      <point x="162" y="56"/>
      <point x="167" y="96" type="curve"/>
      <point x="176" y="162"/>
      <point x="208" y="234"/>
      <point x="265" y="302" type="curve"/>
      <point x="297" y="340"/>
      <point x="360" y="398"/>
      <point x="395" y="410" type="curve"/>
      <point x="423" y="422"/>
      <point x="453" y="426"/>
      <point x="482" y="426" type="curve"/>
      <point x="502" y="426"/>
      <point x="522" y="424"/>
      <point x="537" y="418" type="curve"/>
      <point x="608" y="389"/>
      <point x="631" y="329"/>
      <point x="631" y="263" type="curve"/>
      <point x="631" y="250"/>
      <point x="630" y="237"/>
      <point x="629" y="229" type="curve"/>
      <point x="616" y="195"/>
      <point x="609" y="189"/>
      <point x="577" y="155" type="curve"/>
      <point x="563" y="139"/>
      <point x="551" y="127"/>
      <point x="545" y="127" type="curve"/>
      <point x="536" y="127"/>
      <point x="516" y="134"/>
      <point x="518" y="142" type="curve"/>
      <point x="514" y="153"/>
      <point x="518" y="153"/>
      <point x="522" y="165" type="curve"/>
      <point x="524" y="172"/>
      <point x="529" y="194"/>
      <point x="531" y="205" type="curve"/>
      <point x="533" y="213"/>
      <point x="534" y="221"/>
      <point x="536" y="227" type="curve"/>
      <point x="540" y="249"/>
      <point x="540" y="253"/>
      <point x="536" y="273" type="curve"/>
      <point x="528" y="292"/>
      <point x="492" y="330"/>
      <point x="479" y="332" type="curve"/>
      <point x="467" y="340"/>
      <point x="455" y="342"/>
      <point x="443" y="342" type="curve"/>
      <point x="429" y="342"/>
      <point x="415" y="340"/>
      <point x="407" y="336" type="curve"/>
      <point x="368" y="320"/>
      <point x="326" y="283"/>
      <point x="305" y="252" type="curve"/>
      <point x="282" y="220"/>
      <point x="269" y="197"/>
      <point x="261" y="161" type="curve"/>
      <point x="255" y="141"/>
      <point x="251" y="125"/>
      <point x="251" y="112" type="curve"/>
      <point x="251" y="102"/>
      <point x="263" y="71"/>
      <point x="268" y="58" type="curve"/>
      <point x="296" y="20"/>
      <point x="304" y="19"/>
      <point x="342" y="9" type="curve"/>
      <point x="358" y="5"/>
      <point x="413" y="24"/>
      <point x="441" y="51" type="curve"/>
      <point x="455" y="63"/>
      <point x="466" y="75"/>
      <point x="466" y="75" type="curve"/>
      <point x="478" y="68"/>
      <point x="486" y="63"/>
      <point x="485" y="63" type="curve"/>
      <point x="501" y="49"/>
      <point x="541" y="39"/>
      <point x="561" y="39" type="curve"/>
      <point x="589" y="47"/>
      <point x="674" y="144"/>
      <point x="703" y="207" type="curve"/>
      <point x="715" y="233"/>
      <point x="718" y="308"/>
      <point x="711" y="337" type="curve"/>
      <point x="703" y="372"/>
      <point x="676" y="429"/>
      <point x="623" y="471" type="curve"/>
      <point x="595" y="497"/>
      <point x="548" y="514"/>
      <point x="507" y="518" type="curve"/>
      <point x="477" y="520"/>
      <point x="469" y="520"/>
      <point x="464" y="519" type="curve"/>
      <point x="418" y="512"/>
      <point x="343" y="481"/>
      <point x="305" y="452" type="curve"/>
      <point x="227" y="396"/>
      <point x="193" y="349"/>
      <point x="126" y="259" type="curve"/>
      <point x="115" y="243"/>
      <point x="103" y="220"/>
      <point x="103" y="212" type="curve"/>
      <point x="101" y="204"/>
      <point x="99" y="200"/>
      <point x="99" y="196" type="curve"/>
      <point x="84" y="168"/>
      <point x="72" y="101"/>
      <point x="75" y="67" type="curve"/>
      <point x="76" y="42"/>
      <point x="84" y="15"/>
      <point x="95" y="0" type="curve"/>
      <point x="111" y="-28"/>
      <point x="139" y="-62"/>
      <point x="162" y="-83" type="curve"/>
      <point x="205" y="-117"/>
      <point x="262" y="-140"/>
    </contour>
    <contour>
      <point x="376" y="99" type="curve"/>
      <point x="358" y="91"/>
      <point x="342" y="99"/>
      <point x="334" y="115" type="curve"/>
      <point x="330" y="152"/>
      <point x="372" y="234"/>
      <point x="404" y="247" type="curve"/>
      <point x="417" y="254"/>
      <point x="438" y="250"/>
      <point x="452" y="247" type="curve"/>
      <point x="451" y="247" type="line"/>
      <point x="460" y="241"/>
      <point x="460" y="238"/>
      <point x="460" y="231" type="curve"/>
      <point x="456" y="219"/>
      <point x="455" y="216"/>
      <point x="453" y="213" type="curve"/>
      <point x="450" y="194"/>
      <point x="440" y="174"/>
      <point x="432" y="160" type="curve"/>
      <point x="427" y="151"/>
      <point x="425" y="148"/>
      <point x="425" y="147" type="curve"/>
      <point x="420" y="134"/>
      <point x="392" y="109"/>
    </contour>
  </outline>
</glyph>
<glyph name="A" format="2">
  <advance width="511"/>
  <unicode hex="0041"/>
  <anchor x="483" y="40" name="ogonek"/>
  <anchor x="538" y="785" name="topUC"/>
  <outline>
    <contour>
      <point x="61" y="-33" type="curve"/>
      <point x="96" y="-60" type="line"/>
      <point x="123" y="-22" type="line" smooth="yes"/>
      <point x="151" y="20"/>
      <point x="181" y="96"/>
      <point x="181" y="109" type="curve"/>
      <point x="181" y="109"/>
      <point x="188" y="121"/>
      <point x="197" y="128" type="curve"/>
      <point x="197" y="134"/>
      <point x="216" y="159"/>
      <point x="222" y="178" type="curve"/>
      <point x="236" y="203"/>
      <point x="255" y="221"/>
      <point x="267" y="221" type="curve"/>
      <point x="291" y="228"/>
      <point x="408" y="242"/>
      <point x="433" y="242" type="curve"/>
      <point x="446" y="243" type="line"/>
      <point x="441" y="90" type="line" smooth="yes"/>
      <point x="436" y="-5"/>
      <point x="435" y="6"/>
      <point x="442" y="1" type="curve"/>
      <point x="446" y="-18"/>
      <point x="516" y="-28"/>
      <point x="528" y="-15" type="curve"/>
      <point x="528" y="-9"/>
      <point x="530" y="3"/>
      <point x="529" y="15" type="curve"/>
      <point x="522" y="127"/>
      <point x="549" y="336"/>
      <point x="558" y="445" type="curve"/>
      <point x="565" y="528"/>
      <point x="574" y="604"/>
      <point x="565" y="621" type="curve"/>
      <point x="553" y="651"/>
      <point x="502" y="693"/>
      <point x="459" y="693" type="curve"/>
      <point x="447" y="693"/>
      <point x="429" y="682"/>
      <point x="415" y="663" type="curve"/>
      <point x="379" y="615"/>
      <point x="339" y="551"/>
      <point x="313" y="504" type="curve"/>
      <point x="249" y="395"/>
      <point x="229" y="359"/>
      <point x="211" y="318" type="curve"/>
      <point x="197" y="294"/>
      <point x="166" y="275"/>
      <point x="160" y="269" type="curve"/>
      <point x="148" y="263"/>
      <point x="142" y="257"/>
      <point x="145" y="245" type="curve"/>
      <point x="145" y="239"/>
      <point x="149" y="214"/>
      <point x="102" y="124" type="curve"/>
      <point x="38" y="-3"/>
      <point x="25" y="-14"/>
    </contour>
    <contour>
      <point x="300" y="311" type="curve"/>
      <point x="293" y="317"/>
      <point x="342" y="396"/>
      <point x="348" y="402" type="curve"/>
      <point x="354" y="402"/>
      <point x="366" y="418"/>
      <point x="380" y="443" type="curve"/>
      <point x="421" y="525"/>
      <point x="471" y="598"/>
      <point x="483" y="598" type="curve"/>
      <point x="483" y="598"/>
      <point x="487" y="573"/>
      <point x="486" y="548" type="curve"/>
      <point x="484" y="498"/>
      <point x="458" y="330"/>
      <point x="456" y="323" type="curve"/>
      <point x="456" y="323"/>
      <point x="450" y="323"/>
      <point x="445" y="330" type="curve"/>
      <point x="433" y="335"/>
      <point x="411" y="332"/>
      <point x="365" y="320" type="curve"/>
      <point x="340" y="319"/>
      <point x="300" y="311"/>
    </contour>
  </outline>
</glyph>
<glyph name="B" format="2">
  <advance width="523"/>
  <unicode hex="0042"/>
  <outline>
    <contour>
      <point x="203" y="-72" type="curve"/>
      <point x="238" y="-94"/>
      <point x="324" y="-94"/>
      <point x="380" y="-69" type="curve"/>
      <point x="418" y="-55"/>
      <point x="469" y="-14"/>
      <point x="489" y="3" type="curve"/>
      <point x="508" y="26"/>
      <point x="536" y="71"/>
      <point x="537" y="76" type="curve"/>
      <point x="537" y="76"/>
      <point x="543" y="89"/>
      <point x="552" y="98" type="curve"/>
      <point x="565" y="128"/>
      <point x="581" y="184"/>
      <point x="574" y="215" type="curve"/>
      <point x="559" y="276"/>
      <point x="525" y="307"/>
      <point x="464" y="330" type="curve"/>
      <point x="452" y="334"/>
      <point x="439" y="339"/>
      <point x="439" y="339" type="curve"/>
      <point x="439" y="339"/>
      <point x="476" y="365"/>
      <point x="502" y="388" type="curve"/>
      <point x="545" y="427"/>
      <point x="588" y="498"/>
      <point x="590" y="533" type="curve"/>
      <point x="591" y="627"/>
      <point x="527" y="667"/>
      <point x="438" y="675" type="curve"/>
      <point x="413" y="677"/>
      <point x="388" y="673"/>
      <point x="384" y="673" type="curve"/>
      <point x="384" y="667"/>
      <point x="371" y="668"/>
      <point x="365" y="668" type="curve"/>
      <point x="347" y="671"/>
      <point x="281" y="647"/>
      <point x="281" y="640" type="curve"/>
      <point x="280" y="634"/>
      <point x="286" y="628"/>
      <point x="286" y="622" type="curve"/>
      <point x="292" y="620"/>
      <point x="289" y="603"/>
      <point x="271" y="562" type="curve"/>
      <point x="223" y="453"/>
      <point x="115" y="184"/>
      <point x="98" y="134" type="curve"/>
      <point x="91" y="109"/>
      <point x="89" y="103"/>
      <point x="82" y="91" type="curve"/>
      <point x="68" y="67"/>
      <point x="88" y="43"/>
      <point x="99" y="25" type="curve"/>
      <point x="126" y="-14"/>
      <point x="142" y="-10"/>
      <point x="185" y="113" type="curve"/>
      <point x="243" y="276"/>
      <point x="236" y="248"/>
      <point x="255" y="254" type="curve"/>
      <point x="256" y="254"/>
      <point x="298" y="263"/>
      <point x="313" y="266" type="curve"/>
      <point x="393" y="287"/>
      <point x="438" y="267"/>
      <point x="472" y="220" type="curve"/>
      <point x="491" y="197"/>
      <point x="486" y="141"/>
      <point x="445" y="87" type="curve"/>
      <point x="408" y="41"/>
      <point x="386" y="18"/>
      <point x="330" y="1" type="curve"/>
      <point x="280" y="-12"/>
      <point x="248" y="-6"/>
      <point x="222" y="18" type="curve"/>
      <point x="210" y="30"/>
      <point x="180" y="34"/>
      <point x="172" y="29" type="curve"/>
      <point x="136" y="6"/>
      <point x="145" y="-35"/>
    </contour>
    <contour>
      <point x="275" y="343" type="curve"/>
      <point x="275" y="350"/>
      <point x="281" y="372"/>
      <point x="305" y="429" type="curve"/>
      <point x="324" y="479"/>
      <point x="344" y="506"/>
      <point x="344" y="512" type="curve"/>
      <point x="344" y="512"/>
      <point x="354" y="522"/>
      <point x="356" y="532" type="curve"/>
      <point x="362" y="538"/>
      <point x="372" y="553"/>
      <point x="372" y="565" type="curve"/>
      <point x="372" y="580"/>
      <point x="381" y="586"/>
      <point x="399" y="591" type="curve"/>
      <point x="433" y="600"/>
      <point x="476" y="594"/>
      <point x="494" y="573" type="curve"/>
      <point x="511" y="556"/>
      <point x="510" y="540"/>
      <point x="480" y="492" type="curve"/>
      <point x="457" y="448"/>
      <point x="420" y="412"/>
      <point x="392" y="386" type="curve"/>
      <point x="378" y="372"/>
      <point x="365" y="367"/>
      <point x="358" y="363" type="curve"/>
      <point x="337" y="355"/>
      <point x="275" y="343"/>
    </contour>
  </outline>
</glyph>
<glyph name="C" format="2">
  <advance width="477"/>
  <unicode hex="0043"/>
  <outline>
    <contour>
      <point x="217" y="-65" type="curve"/>
      <point x="274" y="-78"/>
      <point x="349" y="-41"/>
      <point x="392" y="-9" type="curve"/>
      <point x="410" y="-2"/>
      <point x="432" y="6"/>
      <point x="443" y="17" type="curve"/>
      <point x="475" y="39"/>
      <point x="513" y="68"/>
      <point x="505" y="96" type="curve"/>
      <point x="505" y="107"/>
      <point x="498" y="133"/>
      <point x="476" y="126" type="curve"/>
      <point x="464" y="126"/>
      <point x="443" y="111"/>
      <point x="432" y="103" type="curve"/>
      <point x="419" y="91"/>
      <point x="381" y="72"/>
      <point x="349" y="59" type="curve"/>
      <point x="288" y="33"/>
      <point x="251" y="14"/>
      <point x="226" y="33" type="curve"/>
      <point x="195" y="62"/>
      <point x="190" y="150"/>
      <point x="211" y="240" type="curve"/>
      <point x="218" y="254"/>
      <point x="224" y="281"/>
      <point x="223" y="286" type="curve"/>
      <point x="223" y="286"/>
      <point x="233" y="309"/>
      <point x="236" y="315" type="curve"/>
      <point x="254" y="368"/>
      <point x="283" y="412"/>
      <point x="337" y="483" type="curve"/>
      <point x="383" y="549"/>
      <point x="435" y="594"/>
      <point x="466" y="607" type="curve"/>
      <point x="486" y="617"/>
      <point x="492" y="615"/>
      <point x="497" y="610" type="curve"/>
      <point x="505" y="601"/>
      <point x="504" y="590"/>
      <point x="491" y="531" type="curve"/>
      <point x="484" y="512"/>
      <point x="463" y="471"/>
      <point x="441" y="441" type="curve"/>
      <point x="437" y="441"/>
      <point x="433" y="441"/>
      <point x="447" y="417" type="curve"/>
      <point x="492" y="386"/>
      <point x="511" y="381"/>
      <point x="544" y="432" type="curve"/>
      <point x="610" y="547"/>
      <point x="606" y="620"/>
      <point x="566" y="667" type="curve"/>
      <point x="533" y="707"/>
      <point x="463" y="713"/>
      <point x="416" y="684" type="curve"/>
      <point x="326" y="622"/>
      <point x="305" y="601"/>
      <point x="231" y="493" type="curve"/>
      <point x="206" y="457"/>
      <point x="171" y="398"/>
      <point x="163" y="378" type="curve"/>
      <point x="154" y="357"/>
      <point x="137" y="313"/>
      <point x="134" y="307" type="curve"/>
      <point x="113" y="253"/>
      <point x="105" y="222"/>
      <point x="104" y="127" type="curve"/>
      <point x="103" y="78"/>
      <point x="108" y="45"/>
      <point x="127" y="4" type="curve"/>
      <point x="146" y="-29"/>
      <point x="187" y="-54"/>
    </contour>
  </outline>
</glyph>
<glyph name="D" format="2">
  <advance width="587"/>
  <unicode hex="0044"/>
  <outline>
    <contour>
      <point x="234" y="-103" type="curve"/>
      <point x="263" y="-98"/>
      <point x="322" y="-97"/>
      <point x="332" y="-89" type="curve"/>
      <point x="345" y="-83"/>
      <point x="370" y="-74"/>
      <point x="383" y="-64" type="curve"/>
      <point x="437" y="-38"/>
      <point x="515" y="33"/>
      <point x="537" y="65" type="curve"/>
      <point x="537" y="70"/>
      <point x="540" y="69"/>
      <point x="540" y="69" type="curve"/>
      <point x="545" y="69"/>
      <point x="553" y="75"/>
      <point x="555" y="85" type="curve"/>
      <point x="562" y="90"/>
      <point x="578" y="113"/>
      <point x="584" y="118" type="curve"/>
      <point x="589" y="124"/>
      <point x="592" y="128"/>
      <point x="592" y="133" type="curve"/>
      <point x="587" y="134"/>
      <point x="593" y="137"/>
      <point x="599" y="137" type="curve"/>
      <point x="619" y="171"/>
      <point x="656" y="254"/>
      <point x="661" y="307" type="curve"/>
      <point x="668" y="326"/>
      <point x="677" y="361"/>
      <point x="679" y="365" type="curve"/>
      <point x="673" y="367"/>
      <point x="676" y="376"/>
      <point x="679" y="381" type="curve"/>
      <point x="688" y="393"/>
      <point x="678" y="466"/>
      <point x="672" y="490" type="curve"/>
      <point x="639" y="594"/>
      <point x="548" y="659"/>
      <point x="485" y="683" type="curve"/>
      <point x="451" y="695"/>
      <point x="400" y="708"/>
      <point x="365" y="711" type="curve"/>
      <point x="297" y="717"/>
      <point x="201" y="690"/>
      <point x="199" y="675" type="curve"/>
      <point x="199" y="675"/>
      <point x="202" y="656"/>
      <point x="205" y="651" type="curve"/>
      <point x="217" y="639"/>
      <point x="229" y="625"/>
      <point x="245" y="626" type="curve"/>
      <point x="248" y="624"/>
      <point x="256" y="621"/>
      <point x="272" y="626" type="curve"/>
      <point x="283" y="621" type="line"/>
      <point x="276" y="588" type="line"/>
      <point x="255" y="537"/>
      <point x="246" y="495"/>
      <point x="240" y="478" type="curve"/>
      <point x="233" y="465"/>
      <point x="211" y="404"/>
      <point x="196" y="353" type="curve"/>
      <point x="187" y="321"/>
      <point x="177" y="291"/>
      <point x="173" y="281" type="curve"/>
      <point x="161" y="245"/>
      <point x="119" y="128"/>
      <point x="107" y="77" type="curve"/>
      <point x="98" y="41"/>
      <point x="102" y="9"/>
      <point x="106" y="-5" type="curve"/>
      <point x="147" y="-53"/>
      <point x="181" y="-42"/>
      <point x="181" y="-7" type="curve"/>
      <point x="185" y="-3"/>
      <point x="185" y="4"/>
      <point x="185" y="4" type="curve"/>
      <point x="190" y="10"/>
      <point x="190" y="28"/>
      <point x="202" y="74" type="curve"/>
      <point x="213" y="160"/>
      <point x="230" y="199"/>
      <point x="245" y="222" type="curve"/>
      <point x="245" y="231"/>
      <point x="269" y="299"/>
      <point x="280" y="338" type="curve"/>
      <point x="326" y="463"/>
      <point x="379" y="622"/>
      <point x="389" y="625" type="curve"/>
      <point x="398" y="628"/>
      <point x="465" y="600"/>
      <point x="503" y="574" type="curve"/>
      <point x="573" y="514"/>
      <point x="603" y="446"/>
      <point x="577" y="322" type="curve"/>
      <point x="564" y="273"/>
      <point x="531" y="206"/>
      <point x="508" y="175" type="curve"/>
      <point x="508" y="167"/>
      <point x="504" y="161"/>
      <point x="502" y="149" type="curve"/>
      <point x="495" y="144"/>
      <point x="459" y="104"/>
      <point x="443" y="88" type="curve"/>
      <point x="432" y="84"/>
      <point x="423" y="81"/>
      <point x="421" y="76" type="curve"/>
      <point x="421" y="76"/>
      <point x="387" y="45"/>
      <point x="316" y="-3" type="curve"/>
      <point x="294" y="-20"/>
      <point x="245" y="-17"/>
      <point x="212" y="-21" type="curve"/>
      <point x="192" y="-24"/>
      <point x="164" y="-8"/>
      <point x="134" y="8" type="curve"/>
      <point x="122" y="17"/>
      <point x="94" y="30"/>
      <point x="86" y="30" type="curve"/>
      <point x="49" y="30"/>
      <point x="41" y="-22"/>
      <point x="65" y="-58" type="curve"/>
      <point x="85" y="-83"/>
      <point x="94" y="-94"/>
      <point x="131" y="-99" type="curve"/>
      <point x="188" y="-110"/>
      <point x="208" y="-107"/>
    </contour>
  </outline>
</glyph>
<glyph name="G" format="2">
  <advance width="494"/>
  <unicode hex="0047"/>
  <anchor x="201" y="-110" name="bottom"/>
  <anchor x="531" y="785" name="topUC"/>
  <outline>
    <contour>
      <point x="159" y="-46" type="curve"/>
      <point x="207" y="-82"/>
      <point x="268" y="-63"/>
      <point x="322" y="-39" type="curve"/>
      <point x="372" y="-18"/>
      <point x="440" y="33"/>
      <point x="471" y="76" type="curve"/>
      <point x="506" y="121"/>
      <point x="525" y="164"/>
      <point x="537" y="211" type="curve"/>
      <point x="545" y="253"/>
      <point x="544" y="311"/>
      <point x="501" y="334" type="curve"/>
      <point x="463" y="355"/>
      <point x="375" y="356"/>
      <point x="342" y="339" type="curve"/>
      <point x="317" y="323"/>
      <point x="320" y="290"/>
      <point x="337" y="286" type="curve"/>
      <point x="349" y="264"/>
      <point x="381" y="262"/>
      <point x="436" y="263" type="curve"/>
      <point x="471" y="265"/>
      <point x="447" y="209"/>
      <point x="412" y="141" type="curve"/>
      <point x="371" y="79"/>
      <point x="314" y="42"/>
      <point x="263" y="30" type="curve"/>
      <point x="204" y="16"/>
      <point x="189" y="41"/>
      <point x="195" y="111" type="curve"/>
      <point x="199" y="160"/>
      <point x="219" y="245"/>
      <point x="233" y="292" type="curve"/>
      <point x="253" y="366"/>
      <point x="278" y="428"/>
      <point x="315" y="489" type="curve"/>
      <point x="335" y="525"/>
      <point x="365" y="554"/>
      <point x="380" y="566" type="curve"/>
      <point x="417" y="597"/>
      <point x="467" y="601"/>
      <point x="489" y="588" type="curve"/>
      <point x="506" y="581"/>
      <point x="522" y="568"/>
      <point x="539" y="542" type="curve"/>
      <point x="557" y="520"/>
      <point x="609" y="553"/>
      <point x="610" y="584" type="curve"/>
      <point x="610" y="600"/>
      <point x="602" y="615"/>
      <point x="587" y="628" type="curve"/>
      <point x="561" y="653"/>
      <point x="525" y="671"/>
      <point x="491" y="680" type="curve"/>
      <point x="442" y="691"/>
      <point x="385" y="678"/>
      <point x="348" y="659" type="curve"/>
      <point x="325" y="646"/>
      <point x="276" y="603"/>
      <point x="235" y="532" type="curve"/>
      <point x="204" y="485"/>
      <point x="170" y="404"/>
      <point x="145" y="332" type="curve"/>
      <point x="119" y="256"/>
      <point x="103" y="163"/>
      <point x="104" y="81" type="curve"/>
      <point x="102" y="38"/>
      <point x="123" y="-19"/>
    </contour>
  </outline>
</glyph>
<glyph name="H" format="1">
  <advance width="574"/>
  <unicode hex="0048"/>
  <outline>
    <contour>
      <point x="153" y="-91" type="curve"/>
      <point x="158" y="-76"/>
      <point x="188" y="39"/>
      <point x="198" y="86" type="curve"/>
      <point x="203" y="117"/>
      <point x="249" y="260"/>
      <point x="254" y="271" type="curve"/>
      <point x="254" y="271"/>
      <point x="265" y="271"/>
      <point x="280" y="271" type="curve"/>
      <point x="291" y="271"/>
      <point x="325" y="271"/>
      <point x="340" y="271" type="curve"/>
      <point x="418" y="281"/>
      <point x="521" y="280"/>
      <point x="526" y="274" type="curve"/>
      <point x="526" y="274"/>
      <point x="526" y="269"/>
      <point x="526" y="264" type="curve"/>
      <point x="521" y="259"/>
      <point x="496" y="165"/>
      <point x="481" y="124" type="curve"/>
      <point x="470" y="82"/>
      <point x="459" y="32"/>
      <point x="453" y="22" type="curve"/>
      <point x="438" y="-9"/>
      <point x="442" y="-30"/>
      <point x="468" y="-45" type="curve"/>
      <point x="483" y="-51"/>
      <point x="496" y="-70"/>
      <point x="531" y="-66" type="curve"/>
      <point x="531" y="-60"/>
      <point x="544" y="20"/>
      <point x="554" y="66" type="curve"/>
      <point x="554" y="72"/>
      <point x="565" y="103"/>
      <point x="570" y="119" type="curve"/>
      <point x="570" y="129"/>
      <point x="580" y="145"/>
      <point x="580" y="155" type="curve"/>
      <point x="601" y="207"/>
      <point x="637" y="339"/>
      <point x="642" y="355" type="curve"/>
      <point x="647" y="360"/>
      <point x="652" y="376"/>
      <point x="652" y="386" type="curve"/>
      <point x="652" y="391"/>
      <point x="671" y="438"/>
      <point x="676" y="443" type="curve"/>
      <point x="681" y="448"/>
      <point x="686" y="458"/>
      <point x="686" y="474" type="curve"/>
      <point x="697" y="500"/>
      <point x="710" y="548"/>
      <point x="731" y="584" type="curve"/>
      <point x="752" y="615"/>
      <point x="752" y="631"/>
      <point x="736" y="646" type="curve"/>
      <point x="731" y="657"/>
      <point x="701" y="677"/>
      <point x="696" y="677" type="curve"/>
      <point x="680" y="677"/>
      <point x="653" y="655"/>
      <point x="632" y="594" type="curve"/>
      <point x="619" y="556"/>
      <point x="598" y="495"/>
      <point x="588" y="458" type="curve"/>
      <point x="560" y="369" type="line"/>
      <point x="508" y="364" type="line"/>
      <point x="476" y="358"/>
      <point x="278" y="363"/>
      <point x="278" y="356" type="curve"/>
      <point x="278" y="361"/>
      <point x="294" y="390"/>
      <point x="309" y="432" type="curve"/>
      <point x="320" y="468"/>
      <point x="336" y="511"/>
      <point x="336" y="511" type="curve"/>
      <point x="336" y="516"/>
      <point x="354" y="552"/>
      <point x="375" y="589" type="curve"/>
      <point x="412" y="661" type="line"/>
      <point x="402" y="677" type="line"/>
      <point x="391" y="698"/>
      <point x="359" y="738"/>
      <point x="330" y="708" type="curve"/>
      <point x="330" y="702"/>
      <point x="315" y="672"/>
      <point x="310" y="661" type="curve"/>
      <point x="274" y="583"/>
      <point x="253" y="531"/>
      <point x="248" y="526" type="curve"/>
      <point x="248" y="526"/>
      <point x="248" y="526"/>
      <point x="248" y="521" type="curve"/>
      <point x="248" y="521"/>
      <point x="227" y="474"/>
      <point x="216" y="443" type="curve"/>
      <point x="206" y="417"/>
      <point x="195" y="386"/>
      <point x="190" y="380" type="curve"/>
      <point x="190" y="375"/>
      <point x="185" y="354"/>
      <point x="180" y="339" type="curve"/>
      <point x="169" y="323"/>
      <point x="169" y="308"/>
      <point x="169" y="308" type="curve"/>
      <point x="169" y="302"/>
      <point x="169" y="297"/>
      <point x="169" y="297" type="curve"/>
      <point x="159" y="287"/>
      <point x="106" y="95"/>
      <point x="96" y="38" type="curve"/>
      <point x="91" y="17"/>
      <point x="91" y="17"/>
      <point x="86" y="7" type="curve"/>
      <point x="86" y="-4"/>
      <point x="83" y="-26"/>
      <point x="78" y="-31" type="curve"/>
      <point x="73" y="-52"/>
      <point x="83" y="-73"/>
      <point x="104" y="-78" type="curve"/>
      <point x="115" y="-78"/>
      <point x="153" y="-91"/>
    </contour>
    <contour>
      <point x="242" y="-110" type="move" name="bottom"/>
    </contour>
    <contour>
      <point x="568" y="785" type="move" name="topUC"/>
    </contour>
  </outline>
</glyph>
<glyph name="K" format="2">
  <advance width="508"/>
  <unicode hex="004B"/>
  <anchor x="215" y="-110" name="bottom"/>
  <outline>
    <contour>
      <point x="108" y="-47" type="curve"/>
      <point x="116" y="-54"/>
      <point x="123" y="-58"/>
      <point x="128" y="-58" type="curve" smooth="yes"/>
      <point x="141" y="-58"/>
      <point x="149" y="-40"/>
      <point x="161" y="-6" type="curve"/>
      <point x="192" y="81"/>
      <point x="233" y="231"/>
      <point x="244" y="251" type="curve"/>
      <point x="286" y="354" type="line"/>
      <point x="285" y="371"/>
      <point x="360" y="532"/>
      <point x="388" y="591" type="curve"/>
      <point x="396" y="607"/>
      <point x="398" y="613"/>
      <point x="388" y="642" type="curve"/>
      <point x="378" y="674"/>
      <point x="353" y="670"/>
      <point x="318" y="652" type="curve"/>
      <point x="313" y="647"/>
      <point x="306" y="635"/>
      <point x="306" y="635" type="curve"/>
      <point x="306" y="635"/>
      <point x="301" y="613"/>
      <point x="288" y="593" type="curve"/>
      <point x="278" y="571"/>
      <point x="265" y="549"/>
      <point x="265" y="543" type="curve"/>
      <point x="265" y="538"/>
      <point x="265" y="532"/>
      <point x="265" y="532" type="curve"/>
      <point x="259" y="532"/>
      <point x="239" y="480"/>
      <point x="222" y="443" type="curve"/>
      <point x="205" y="398"/>
      <point x="187" y="347"/>
      <point x="179" y="325" type="curve"/>
      <point x="174" y="303"/>
      <point x="163" y="283"/>
      <point x="155" y="266" type="curve"/>
      <point x="155" y="255"/>
      <point x="151" y="233"/>
      <point x="145" y="217" type="curve"/>
      <point x="138" y="206"/>
      <point x="132" y="195"/>
      <point x="132" y="184" type="curve"/>
      <point x="132" y="178"/>
      <point x="119" y="148"/>
      <point x="109" y="125" type="curve"/>
      <point x="101" y="97"/>
      <point x="91" y="68"/>
      <point x="91" y="58" type="curve"/>
      <point x="91" y="53"/>
      <point x="90" y="43"/>
      <point x="84" y="43" type="curve"/>
      <point x="83" y="37"/>
      <point x="78" y="21"/>
      <point x="79" y="4" type="curve"/>
      <point x="71" y="-23"/>
      <point x="91" y="-37"/>
    </contour>
    <contour>
      <point x="462" y="-45" type="curve"/>
      <point x="494" y="-60"/>
      <point x="506" y="-56"/>
      <point x="515" y="-46" type="curve"/>
      <point x="528" y="-40"/>
      <point x="535" y="-5"/>
      <point x="533" y="2" type="curve"/>
      <point x="534" y="12"/>
      <point x="528" y="25"/>
      <point x="491" y="44" type="curve"/>
      <point x="479" y="44"/>
      <point x="453" y="60"/>
      <point x="423" y="93" type="curve"/>
      <point x="399" y="116"/>
      <point x="380" y="151"/>
      <point x="364" y="186" type="curve"/>
      <point x="344" y="223"/>
      <point x="328" y="267"/>
      <point x="322" y="339" type="curve"/>
      <point x="249" y="334" type="line"/>
      <point x="248" y="272" type="line"/>
      <point x="248" y="252"/>
      <point x="261" y="228"/>
      <point x="270" y="186" type="curve"/>
      <point x="286" y="128"/>
      <point x="325" y="73"/>
      <point x="347" y="42" type="curve"/>
      <point x="371" y="13"/>
      <point x="439" y="-47"/>
    </contour>
    <contour>
      <point x="230" y="337" type="line"/>
      <point x="266" y="262" type="line"/>
      <point x="268" y="268"/>
      <point x="357" y="336"/>
      <point x="377" y="347" type="curve"/>
      <point x="389" y="346"/>
      <point x="398" y="360"/>
      <point x="401" y="367" type="curve"/>
      <point x="406" y="375"/>
      <point x="421" y="384"/>
      <point x="421" y="384" type="curve"/>
      <point x="426" y="382"/>
      <point x="430" y="389"/>
      <point x="436" y="389" type="curve"/>
      <point x="447" y="405"/>
      <point x="481" y="433"/>
      <point x="535" y="469" type="curve"/>
      <point x="573" y="496"/>
      <point x="606" y="521"/>
      <point x="606" y="521" type="curve"/>
      <point x="609" y="528"/>
      <point x="629" y="542"/>
      <point x="662" y="557" type="curve"/>
      <point x="690" y="573"/>
      <point x="693" y="580"/>
      <point x="691" y="593" type="curve"/>
      <point x="693" y="609"/>
      <point x="663" y="659"/>
      <point x="647" y="651" type="curve"/>
      <point x="641" y="652"/>
      <point x="613" y="630"/>
      <point x="590" y="614" type="curve"/>
      <point x="571" y="602"/>
      <point x="542" y="577"/>
      <point x="509" y="560" type="curve"/>
      <point x="377" y="453" type="line"/>
      <point x="321" y="410"/>
      <point x="307" y="395"/>
      <point x="303" y="391" type="curve"/>
    </contour>
  </outline>
</glyph>
<glyph name="L" format="2">
  <advance width="426"/>
  <unicode hex="004C"/>
  <outline>
    <contour>
      <point x="217" y="-38" type="curve"/>
      <point x="248" y="-49"/>
      <point x="318" y="-42"/>
      <point x="359" y="-24" type="curve"/>
      <point x="396" y="-13"/>
      <point x="443" y="14"/>
      <point x="447" y="24" type="curve"/>
      <point x="451" y="36"/>
      <point x="448" y="42"/>
      <point x="441" y="48" type="curve"/>
      <point x="434" y="53"/>
      <point x="423" y="49"/>
      <point x="394" y="41" type="curve"/>
      <point x="386" y="38"/>
      <point x="370" y="34"/>
      <point x="354" y="32" type="curve"/>
      <point x="336" y="28"/>
      <point x="316" y="23"/>
      <point x="299" y="20" type="curve"/>
      <point x="300" y="20" type="line"/>
      <point x="271" y="15"/>
      <point x="256" y="12"/>
      <point x="245" y="14" type="curve"/>
      <point x="235" y="14"/>
      <point x="226" y="17"/>
      <point x="211" y="23" type="curve"/>
      <point x="181" y="35"/>
      <point x="159" y="53"/>
      <point x="156" y="76" type="curve"/>
      <point x="153" y="102"/>
      <point x="164" y="168"/>
      <point x="179" y="205" type="curve"/>
      <point x="179" y="215"/>
      <point x="179" y="228"/>
      <point x="186" y="234" type="curve"/>
      <point x="190" y="243"/>
      <point x="190" y="252"/>
      <point x="193" y="251" type="curve"/>
      <point x="193" y="251"/>
      <point x="193" y="262"/>
      <point x="201" y="272" type="curve"/>
      <point x="214" y="309"/>
      <point x="226" y="340"/>
      <point x="246" y="382" type="curve"/>
      <point x="247" y="384"/>
      <point x="248" y="387"/>
      <point x="250" y="391" type="curve"/>
      <point x="250" y="391"/>
      <point x="267" y="424"/>
      <point x="285" y="463" type="curve"/>
      <point x="316" y="519"/>
      <point x="382" y="616"/>
      <point x="400" y="628" type="curve"/>
      <point x="407" y="629"/>
      <point x="406" y="656"/>
      <point x="392" y="671" type="curve"/>
      <point x="372" y="691"/>
      <point x="362" y="690"/>
      <point x="340" y="665" type="curve"/>
      <point x="306" y="633"/>
      <point x="239" y="522"/>
      <point x="210" y="458" type="curve"/>
      <point x="203" y="443"/>
      <point x="197" y="425"/>
      <point x="196" y="419" type="curve"/>
      <point x="192" y="413"/>
      <point x="188" y="406"/>
      <point x="185" y="398" type="curve"/>
      <point x="185" y="396" type="line"/>
      <point x="178" y="385"/>
      <point x="151" y="315"/>
      <point x="150" y="306" type="curve"/>
      <point x="150" y="306"/>
      <point x="144" y="294"/>
      <point x="141" y="291" type="curve"/>
      <point x="137" y="285"/>
      <point x="132" y="274"/>
      <point x="133" y="269" type="curve"/>
      <point x="133" y="269"/>
      <point x="136" y="259"/>
      <point x="128" y="251" type="curve"/>
      <point x="123" y="245"/>
      <point x="118" y="234"/>
      <point x="118" y="234" type="curve"/>
      <point x="119" y="229"/>
      <point x="120" y="219"/>
      <point x="114" y="203" type="curve"/>
      <point x="110" y="190"/>
      <point x="106" y="175"/>
      <point x="107" y="170" type="curve"/>
      <point x="107" y="165"/>
      <point x="107" y="160"/>
      <point x="104" y="158" type="curve"/>
      <point x="99" y="152"/>
      <point x="102" y="89"/>
      <point x="105" y="64" type="curve"/>
      <point x="117" y="21"/>
      <point x="164" y="-25"/>
    </contour>
  </outline>
</glyph>
<glyph name="M" format="2">
  <advance width="729"/>
  <unicode hex="004D"/>
  <outline>
    <contour>
      <point x="84" y="-58" type="curve"/>
      <point x="91" y="-50"/>
      <point x="110" y="-25"/>
      <point x="248" y="229" type="curve"/>
      <point x="306" y="356"/>
      <point x="356" y="441"/>
      <point x="364" y="454" type="curve"/>
      <point x="367" y="459"/>
      <point x="370" y="461"/>
      <point x="370" y="461" type="curve"/>
      <point x="371" y="460"/>
      <point x="372" y="457"/>
      <point x="372" y="452" type="curve"/>
      <point x="372" y="447"/>
      <point x="372" y="441"/>
      <point x="369" y="432" type="curve"/>
      <point x="359" y="402"/>
      <point x="330" y="287"/>
      <point x="310" y="199" type="curve"/>
      <point x="304" y="161"/>
      <point x="300" y="130"/>
      <point x="300" y="109" type="curve"/>
      <point x="300" y="59"/>
      <point x="335" y="20"/>
      <point x="370" y="20" type="curve"/>
      <point x="414" y="20"/>
      <point x="500" y="113"/>
      <point x="509" y="131" type="curve"/>
      <point x="512" y="137"/>
      <point x="560" y="195"/>
      <point x="571" y="219" type="curve"/>
      <point x="576" y="229"/>
      <point x="586" y="252"/>
      <point x="602" y="274" type="curve"/>
      <point x="672" y="405" type="line"/>
      <point x="721" y="490"/>
      <point x="727" y="504"/>
      <point x="736" y="518" type="curve"/>
      <point x="735" y="496"/>
      <point x="629" y="91"/>
      <point x="624" y="46" type="curve"/>
      <point x="623" y="34"/>
      <point x="623" y="24"/>
      <point x="623" y="16" type="curve"/>
      <point x="623" y="-17"/>
      <point x="626" y="-51"/>
      <point x="663" y="-51" type="curve"/>
      <point x="678" y="-51"/>
      <point x="674" y="-42"/>
      <point x="685" y="-42" type="curve"/>
      <point x="686" y="-42"/>
      <point x="687" y="-43"/>
      <point x="688" y="-43" type="curve"/>
      <point x="695" y="-43"/>
      <point x="715" y="-23"/>
      <point x="721" y="27" type="curve"/>
      <point x="721" y="69"/>
      <point x="724" y="113"/>
      <point x="736" y="135" type="curve"/>
      <point x="736" y="135"/>
      <point x="736" y="139"/>
      <point x="736" y="143" type="curve"/>
      <point x="736" y="195"/>
      <point x="779" y="320"/>
      <point x="792" y="389" type="curve"/>
      <point x="819" y="472"/>
      <point x="840" y="571"/>
      <point x="840" y="601" type="curve"/>
      <point x="840" y="646"/>
      <point x="797" y="678"/>
      <point x="769" y="679" type="curve"/>
      <point x="759" y="679"/>
      <point x="750" y="676"/>
      <point x="744" y="671" type="curve"/>
      <point x="727" y="658"/>
      <point x="690" y="591"/>
      <point x="659" y="544" type="curve"/>
      <point x="487" y="239"/>
      <point x="471" y="232"/>
      <point x="440" y="185" type="curve"/>
      <point x="427" y="165" type="line"/>
      <point x="418" y="145"/>
      <point x="404" y="139"/>
      <point x="403" y="139" type="curve"/>
      <point x="400" y="139"/>
      <point x="396" y="143"/>
      <point x="396" y="152" type="curve"/>
      <point x="396" y="186"/>
      <point x="425" y="289"/>
      <point x="458" y="456" type="curve"/>
      <point x="463" y="478" type="line"/>
      <point x="473" y="546" type="line" smooth="yes"/>
      <point x="474" y="553"/>
      <point x="474" y="559"/>
      <point x="474" y="565" type="curve"/>
      <point x="474" y="626"/>
      <point x="424" y="655"/>
      <point x="402" y="655" type="curve"/>
      <point x="375" y="655"/>
      <point x="332" y="555"/>
      <point x="335" y="559" type="curve"/>
      <point x="330" y="552" type="line"/>
      <point x="306" y="528"/>
      <point x="212" y="337"/>
      <point x="140" y="224" type="curve"/>
      <point x="125" y="194"/>
      <point x="109" y="167"/>
      <point x="103" y="159" type="curve"/>
      <point x="99" y="125"/>
      <point x="86" y="134"/>
      <point x="48" y="55" type="curve"/>
      <point x="38" y="35"/>
      <point x="37" y="20"/>
      <point x="37" y="10" type="curve"/>
      <point x="37" y="-32"/>
      <point x="66" y="-58"/>
    </contour>
  </outline>
</glyph>
<glyph name="O" format="2">
  <advance width="505"/>
  <unicode hex="004F"/>
  <anchor x="212" y="-110" name="bottom"/>
  <anchor x="252" y="40" name="ogonek"/>
  <anchor x="543" y="785" name="topUC"/>
  <outline>
    <contour>
      <point x="187" y="-35" type="curve"/>
      <point x="268" y="-96"/>
      <point x="430" y="-23"/>
      <point x="539" y="193" type="curve"/>
      <point x="628" y="340"/>
      <point x="631" y="397"/>
      <point x="613" y="514" type="curve"/>
      <point x="596" y="607"/>
      <point x="540" y="654"/>
      <point x="466" y="670" type="curve"/>
      <point x="451" y="676"/>
      <point x="428" y="665"/>
      <point x="401" y="649" type="curve"/>
      <point x="360" y="630"/>
      <point x="310" y="599"/>
      <point x="256" y="543" type="curve"/>
      <point x="219" y="494"/>
      <point x="185" y="440"/>
      <point x="145" y="320" type="curve"/>
      <point x="136" y="274"/>
      <point x="122" y="245"/>
      <point x="123" y="238" type="curve"/>
      <point x="123" y="238"/>
      <point x="126" y="223"/>
      <point x="119" y="216" type="curve"/>
      <point x="113" y="186"/>
      <point x="101" y="97"/>
      <point x="105" y="61" type="curve"/>
      <point x="107" y="32"/>
      <point x="138" y="1"/>
    </contour>
    <contour>
      <point x="267" y="31" type="curve"/>
      <point x="247" y="27"/>
      <point x="217" y="45"/>
      <point x="209" y="58" type="curve"/>
      <point x="196" y="78"/>
      <point x="197" y="90"/>
      <point x="198" y="123" type="curve"/>
      <point x="203" y="210"/>
      <point x="245" y="360"/>
      <point x="281" y="398" type="curve"/>
      <point x="286" y="405"/>
      <point x="286" y="413"/>
      <point x="286" y="413" type="curve"/>
      <point x="285" y="437"/>
      <point x="386" y="557"/>
      <point x="426" y="574" type="curve"/>
      <point x="455" y="587"/>
      <point x="484" y="572"/>
      <point x="498" y="557" type="curve"/>
      <point x="509" y="545"/>
      <point x="518" y="511"/>
      <point x="519" y="488" type="curve"/>
      <point x="520" y="392"/>
      <point x="524" y="418"/>
      <point x="503" y="338" type="curve"/>
      <point x="466" y="209"/>
      <point x="449" y="192"/>
      <point x="380" y="113" type="curve"/>
      <point x="322" y="46"/>
      <point x="313" y="36"/>
    </contour>
  </outline>
</glyph>
<glyph name="Q" format="1">
  <advance width="492"/>
  <unicode hex="0051"/>
  <outline>
    <contour>
      <point x="235" y="-86" type="curve"/>
      <point x="334" y="-98"/>
      <point x="452" y="12"/>
      <point x="517" y="192" type="curve"/>
      <point x="537" y="231"/>
      <point x="545" y="267"/>
      <point x="542" y="277" type="curve"/>
      <point x="542" y="283"/>
      <point x="548" y="283"/>
      <point x="548" y="283" type="curve"/>
      <point x="575" y="283"/>
      <point x="610" y="430"/>
      <point x="609" y="501" type="curve"/>
      <point x="604" y="539"/>
      <point x="607" y="569"/>
      <point x="581" y="599" type="curve"/>
      <point x="555" y="651"/>
      <point x="513" y="676"/>
      <point x="447" y="672" type="curve"/>
      <point x="425" y="670"/>
      <point x="375" y="656"/>
      <point x="364" y="649" type="curve"/>
      <point x="331" y="632"/>
      <point x="294" y="593"/>
      <point x="268" y="559" type="curve"/>
      <point x="234" y="529"/>
      <point x="182" y="442"/>
      <point x="182" y="429" type="curve"/>
      <point x="182" y="420"/>
      <point x="182" y="415"/>
      <point x="179" y="412" type="curve"/>
      <point x="173" y="412"/>
      <point x="131" y="285"/>
      <point x="119" y="239" type="curve"/>
      <point x="96" y="129"/>
      <point x="98" y="59"/>
      <point x="132" y="-9" type="curve"/>
      <point x="146" y="-38"/>
      <point x="204" y="-81"/>
    </contour>
    <contour>
      <point x="441" y="-126" type="curve"/>
      <point x="476" y="-127"/>
      <point x="485" y="-111"/>
      <point x="454" y="-63" type="curve"/>
      <point x="448" y="-44"/>
      <point x="431" y="-27"/>
      <point x="427" y="-12" type="curve"/>
      <point x="418" y="0"/>
      <point x="410" y="21"/>
      <point x="403" y="36" type="curve"/>
      <point x="391" y="46"/>
      <point x="362" y="110"/>
      <point x="360" y="121" type="curve"/>
      <point x="347" y="153"/>
      <point x="333" y="169"/>
      <point x="318" y="169" type="curve"/>
      <point x="293" y="176"/>
      <point x="269" y="157"/>
      <point x="262" y="141" type="curve"/>
      <point x="255" y="133"/>
      <point x="256" y="125"/>
      <point x="260" y="121" type="curve"/>
      <point x="266" y="112"/>
      <point x="331" y="-11"/>
      <point x="349" y="-49" type="curve"/>
      <point x="353" y="-64"/>
      <point x="365" y="-77"/>
      <point x="370" y="-79" type="curve"/>
      <point x="372" y="-82"/>
      <point x="370" y="-90"/>
      <point x="379" y="-98" type="curve"/>
      <point x="384" y="-116"/>
      <point x="420" y="-127"/>
    </contour>
    <contour>
      <point x="250" y="0" type="curve"/>
      <point x="217" y="-10"/>
      <point x="202" y="14"/>
      <point x="199" y="55" type="curve"/>
      <point x="179" y="145"/>
      <point x="201" y="241"/>
      <point x="283" y="416" type="curve"/>
      <point x="340" y="556"/>
      <point x="416" y="610"/>
      <point x="481" y="587" type="curve"/>
      <point x="513" y="572"/>
      <point x="527" y="558"/>
      <point x="519" y="499" type="curve"/>
      <point x="518" y="416"/>
      <point x="479" y="349"/>
      <point x="461" y="300" type="curve"/>
      <point x="400" y="129"/>
      <point x="334" y="11"/>
    </contour>
  </outline>
</glyph>
<glyph name="R" format="1">
  <advance width="544"/>
  <unicode hex="0052"/>
  <outline>
    <contour>
      <point x="160" y="-60" type="curve"/>
      <point x="203" y="53"/>
      <point x="237" y="155"/>
      <point x="251" y="203" type="curve"/>
      <point x="268" y="235" type="line"/>
      <point x="283" y="229"/>
      <point x="318" y="229"/>
      <point x="339" y="235" type="curve"/>
      <point x="377" y="247"/>
      <point x="422" y="265"/>
      <point x="455" y="281" type="curve"/>
      <point x="526" y="311"/>
      <point x="635" y="398"/>
      <point x="657" y="454" type="curve"/>
      <point x="679" y="510"/>
      <point x="666" y="591"/>
      <point x="571" y="647" type="curve"/>
      <point x="512" y="678"/>
      <point x="443" y="682"/>
      <point x="381" y="668" type="curve"/>
      <point x="289" y="637" type="line" smooth="yes"/>
      <point x="274" y="630"/>
      <point x="276" y="611"/>
      <point x="290" y="596" type="curve"/>
      <point x="313" y="596"/>
      <point x="322" y="577"/>
      <point x="317" y="564" type="curve"/>
      <point x="276" y="475"/>
      <point x="255" y="422"/>
      <point x="233" y="369" type="curve"/>
      <point x="213" y="320"/>
      <point x="144" y="157"/>
      <point x="134" y="121" type="curve"/>
      <point x="127" y="107"/>
      <point x="110" y="70"/>
      <point x="105" y="38" type="curve"/>
      <point x="70" y="-41"/>
      <point x="69" y="-33"/>
      <point x="93" y="-57" type="curve"/>
      <point x="115" y="-75"/>
      <point x="155" y="-74"/>
    </contour>
    <contour>
      <point x="557" y="-79" type="curve"/>
      <point x="564" y="-77"/>
      <point x="583" y="-29"/>
      <point x="571" y="-18" type="curve"/>
      <point x="514" y="10"/>
      <point x="429" y="88"/>
      <point x="393" y="130" type="curve"/>
      <point x="363" y="163"/>
      <point x="333" y="207"/>
      <point x="312" y="254" type="curve"/>
      <point x="268" y="290" type="line"/>
      <point x="230" y="265" type="line"/>
      <point x="244" y="211" type="line"/>
      <point x="265" y="160"/>
      <point x="274" y="131"/>
      <point x="302" y="98" type="curve"/>
      <point x="375" y="14"/>
      <point x="430" y="-30"/>
      <point x="489" y="-65" type="curve"/>
      <point x="520" y="-85"/>
      <point x="546" y="-83"/>
    </contour>
    <contour>
      <point x="305" y="313" type="curve"/>
      <point x="297" y="321"/>
      <point x="304" y="331"/>
      <point x="362" y="449" type="curve"/>
      <point x="383" y="505"/>
      <point x="412" y="555"/>
      <point x="412" y="561" type="curve"/>
      <point x="422" y="601"/>
      <point x="438" y="602"/>
      <point x="518" y="583" type="curve"/>
      <point x="544" y="575"/>
      <point x="572" y="534"/>
      <point x="572" y="508" type="curve"/>
      <point x="576" y="438"/>
      <point x="491" y="385"/>
      <point x="414" y="349" type="curve"/>
      <point x="373" y="332"/>
      <point x="335" y="315"/>
    </contour>
  </outline>
</glyph>
<glyph name="S" format="2">
  <advance width="495"/>
  <unicode hex="0053"/>
  <outline>
    <contour>
      <point x="266" y="-65" type="curve"/>
      <point x="312" y="-67"/>
      <point x="395" y="-53"/>
      <point x="410" y="-44" type="curve"/>
      <point x="419" y="-40"/>
      <point x="424" y="-34"/>
      <point x="439" y="-30" type="curve"/>
      <point x="455" y="-31"/>
      <point x="477" y="-1"/>
      <point x="487" y="21" type="curve"/>
      <point x="494" y="46"/>
      <point x="503" y="102"/>
      <point x="479" y="136" type="curve"/>
      <point x="467" y="162"/>
      <point x="405" y="211"/>
      <point x="337" y="249" type="curve"/>
      <point x="285" y="280"/>
      <point x="254" y="297"/>
      <point x="248" y="319" type="curve"/>
      <point x="239" y="340"/>
      <point x="249" y="380"/>
      <point x="272" y="411" type="curve"/>
      <point x="298" y="456"/>
      <point x="315" y="485"/>
      <point x="342" y="501" type="curve"/>
      <point x="354" y="506"/>
      <point x="364" y="515"/>
      <point x="365" y="521" type="curve"/>
      <point x="368" y="527"/>
      <point x="470" y="594"/>
      <point x="476" y="593" type="curve"/>
      <point x="481" y="592"/>
      <point x="480" y="598"/>
      <point x="480" y="598" type="curve"/>
      <point x="480" y="604"/>
      <point x="573" y="627"/>
      <point x="588" y="623" type="curve"/>
      <point x="615" y="619"/>
      <point x="614" y="595"/>
      <point x="572" y="533" type="curve"/>
      <point x="538" y="495"/>
      <point x="536" y="485"/>
      <point x="536" y="475" type="curve"/>
      <point x="534" y="449"/>
      <point x="565" y="434"/>
      <point x="602" y="450" type="curve"/>
      <point x="652" y="478"/>
      <point x="707" y="565"/>
      <point x="694" y="614" type="curve"/>
      <point x="687" y="661"/>
      <point x="633" y="699"/>
      <point x="583" y="702" type="curve"/>
      <point x="583" y="702" type="line" smooth="yes"/>
      <point x="583" y="702" type="line"/>
      <point x="547" y="702"/>
      <point x="484" y="690"/>
      <point x="395" y="647" type="curve"/>
      <point x="368" y="622"/>
      <point x="342" y="615"/>
      <point x="336" y="611" type="curve"/>
      <point x="336" y="611"/>
      <point x="331" y="612"/>
      <point x="330" y="606" type="curve"/>
      <point x="330" y="606"/>
      <point x="315" y="591"/>
      <point x="304" y="581" type="curve"/>
      <point x="275" y="562"/>
      <point x="194" y="465"/>
      <point x="178" y="428" type="curve"/>
      <point x="152" y="379"/>
      <point x="146" y="305"/>
      <point x="178" y="276" type="curve"/>
      <point x="195" y="244"/>
      <point x="245" y="203"/>
      <point x="277" y="188" type="curve"/>
      <point x="296" y="179"/>
      <point x="311" y="171"/>
      <point x="331" y="162" type="curve"/>
      <point x="368" y="126"/>
      <point x="379" y="126"/>
      <point x="385" y="110" type="curve"/>
      <point x="407" y="75"/>
      <point x="406" y="48"/>
      <point x="374" y="34" type="curve"/>
      <point x="301" y="3"/>
      <point x="224" y="34"/>
      <point x="199" y="80" type="curve"/>
      <point x="188" y="102"/>
      <point x="170" y="91"/>
      <point x="155" y="81" type="curve"/>
      <point x="140" y="74"/>
      <point x="125" y="74"/>
      <point x="135" y="54" type="curve"/>
      <point x="142" y="35"/>
      <point x="180" y="-20"/>
      <point x="210" y="-39" type="curve"/>
      <point x="225" y="-40"/>
      <point x="228" y="-47"/>
      <point x="226" y="-53" type="curve"/>
      <point x="226" y="-53"/>
      <point x="242" y="-58"/>
    </contour>
  </outline>
</glyph>
<glyph name="T" format="2">
  <advance width="458"/>
  <unicode hex="0054"/>
  <outline>
    <contour>
      <point x="224" y="-53" type="curve"/>
      <point x="240" y="-52"/>
      <point x="251" y="-51"/>
      <point x="274" y="28" type="curve"/>
      <point x="283" y="62"/>
      <point x="301" y="113"/>
      <point x="312" y="134" type="curve"/>
      <point x="338" y="205"/>
      <point x="349" y="243"/>
      <point x="360" y="265" type="curve"/>
      <point x="366" y="281"/>
      <point x="417" y="443"/>
      <point x="424" y="451" type="curve"/>
      <point x="423" y="457"/>
      <point x="434" y="481"/>
      <point x="441" y="508" type="curve"/>
      <point x="461" y="546"/>
      <point x="463" y="568"/>
      <point x="466" y="584" type="curve"/>
      <point x="377" y="583" type="line"/>
      <point x="372" y="549" type="line"/>
      <point x="365" y="542"/>
      <point x="366" y="549"/>
      <point x="361" y="545" type="curve"/>
      <point x="361" y="540"/>
      <point x="354" y="536"/>
      <point x="354" y="530" type="curve"/>
      <point x="354" y="525"/>
      <point x="354" y="514"/>
      <point x="346" y="509" type="curve"/>
      <point x="344" y="503"/>
      <point x="339" y="487"/>
      <point x="329" y="471" type="curve"/>
      <point x="322" y="449"/>
      <point x="265" y="275"/>
      <point x="260" y="249" type="curve"/>
      <point x="255" y="227"/>
      <point x="244" y="200"/>
      <point x="240" y="195" type="curve"/>
      <point x="239" y="190"/>
      <point x="233" y="171"/>
      <point x="228" y="150" type="curve"/>
      <point x="212" y="114"/>
      <point x="185" y="26"/>
      <point x="183" y="-6" type="curve"/>
      <point x="182" y="-22"/>
      <point x="200" y="-54"/>
    </contour>
    <contour>
      <point x="233" y="535" type="curve"/>
      <point x="250" y="539"/>
      <point x="301" y="542"/>
      <point x="322" y="544" type="curve"/>
      <point x="371" y="549" type="line"/>
      <point x="430" y="552" type="line"/>
      <point x="430" y="558"/>
      <point x="463" y="556"/>
      <point x="500" y="560" type="curve"/>
      <point x="565" y="556"/>
      <point x="571" y="550"/>
      <point x="582" y="540" type="curve"/>
      <point x="600" y="533"/>
      <point x="617" y="542"/>
      <point x="648" y="551" type="curve"/>
      <point x="658" y="556"/>
      <point x="663" y="564"/>
      <point x="659" y="580" type="curve"/>
      <point x="653" y="602"/>
      <point x="634" y="621"/>
      <point x="604" y="628" type="curve"/>
      <point x="583" y="636"/>
      <point x="519" y="642"/>
      <point x="513" y="642" type="curve"/>
      <point x="513" y="642"/>
      <point x="481" y="639"/>
      <point x="443" y="637" type="curve"/>
      <point x="373" y="633"/>
      <point x="351" y="629"/>
      <point x="286" y="621" type="curve"/>
      <point x="264" y="617"/>
      <point x="238" y="613"/>
      <point x="224" y="610" type="curve"/>
      <point x="183" y="602"/>
      <point x="171" y="591"/>
      <point x="167" y="575" type="curve"/>
      <point x="162" y="554"/>
      <point x="178" y="530"/>
    </contour>
  </outline>
</glyph>
<glyph name="U" format="2">
  <advance width="482"/>
  <unicode hex="0055"/>
  <outline>
    <contour>
      <point x="229" y="-60" type="curve"/>
      <point x="247" y="-64"/>
      <point x="260" y="-64"/>
      <point x="284" y="-54" type="curve"/>
      <point x="338" y="-34"/>
      <point x="419" y="39"/>
      <point x="464" y="106" type="curve"/>
      <point x="468" y="111"/>
      <point x="467" y="121"/>
      <point x="474" y="124" type="curve"/>
      <point x="482" y="129"/>
      <point x="492" y="134"/>
      <point x="493" y="141" type="curve"/>
      <point x="493" y="141"/>
      <point x="498" y="152"/>
      <point x="502" y="164" type="curve"/>
      <point x="509" y="168"/>
      <point x="512" y="177"/>
      <point x="519" y="189" type="curve"/>
      <point x="524" y="199"/>
      <point x="529" y="205"/>
      <point x="538" y="210" type="curve"/>
      <point x="538" y="216"/>
      <point x="538" y="216"/>
      <point x="538" y="216" type="curve"/>
      <point x="583" y="319"/>
      <point x="624" y="404"/>
      <point x="652" y="513" type="curve"/>
      <point x="671" y="605"/>
      <point x="681" y="624"/>
      <point x="669" y="640" type="curve"/>
      <point x="657" y="646"/>
      <point x="620" y="675"/>
      <point x="599" y="657" type="curve"/>
      <point x="597" y="651"/>
      <point x="591" y="640"/>
      <point x="588" y="623" type="curve"/>
      <point x="580" y="584"/>
      <point x="526" y="406"/>
      <point x="515" y="371" type="curve"/>
      <point x="485" y="308"/>
      <point x="437" y="216"/>
      <point x="427" y="206" type="curve"/>
      <point x="420" y="198"/>
      <point x="414" y="193"/>
      <point x="414" y="187" type="curve"/>
      <point x="414" y="175"/>
      <point x="362" y="96"/>
      <point x="340" y="87" type="curve"/>
      <point x="335" y="82"/>
      <point x="330" y="77"/>
      <point x="331" y="72" type="curve"/>
      <point x="329" y="67"/>
      <point x="326" y="61"/>
      <point x="323" y="68" type="curve"/>
      <point x="323" y="68"/>
      <point x="309" y="63"/>
      <point x="302" y="50" type="curve"/>
      <point x="274" y="34"/>
      <point x="252" y="35"/>
      <point x="229" y="46" type="curve"/>
      <point x="218" y="48"/>
      <point x="213" y="63"/>
      <point x="203" y="81" type="curve"/>
      <point x="203" y="117"/>
      <point x="202" y="111"/>
      <point x="226" y="222" type="curve"/>
      <point x="241" y="308"/>
      <point x="263" y="373"/>
      <point x="304" y="490" type="curve"/>
      <point x="328" y="533"/>
      <point x="353" y="587"/>
      <point x="368" y="604" type="curve"/>
      <point x="401" y="626"/>
      <point x="384" y="676"/>
      <point x="337" y="685" type="curve"/>
      <point x="316" y="688"/>
      <point x="295" y="672"/>
      <point x="264" y="618" type="curve"/>
      <point x="212" y="526"/>
      <point x="157" y="369"/>
      <point x="138" y="275" type="curve"/>
      <point x="95" y="66"/>
      <point x="124" y="-33"/>
    </contour>
  </outline>
</glyph>
<glyph name="W" format="2">
  <advance width="720"/>
  <unicode hex="0057"/>
  <outline>
    <contour>
      <point x="503" y="-62" type="curve"/>
      <point x="516" y="-62"/>
      <point x="586" y="-29"/>
      <point x="636" y="34" type="curve"/>
      <point x="671" y="79"/>
      <point x="766" y="252"/>
      <point x="766" y="265" type="curve"/>
      <point x="766" y="276"/>
      <point x="782" y="296"/>
      <point x="797" y="324" type="curve"/>
      <point x="825" y="385"/>
      <point x="895" y="558"/>
      <point x="908" y="601" type="curve"/>
      <point x="909" y="617"/>
      <point x="890" y="630"/>
      <point x="885" y="635" type="curve"/>
      <point x="873" y="645"/>
      <point x="845" y="644"/>
      <point x="838" y="639" type="curve"/>
      <point x="817" y="627"/>
      <point x="798" y="583"/>
      <point x="761" y="476" type="curve"/>
      <point x="725" y="391"/>
      <point x="665" y="262"/>
      <point x="616" y="170" type="curve"/>
      <point x="587" y="116"/>
      <point x="585" y="98"/>
      <point x="557" y="57" type="curve"/>
      <point x="547" y="44"/>
      <point x="537" y="36"/>
      <point x="534" y="47" type="curve"/>
      <point x="529" y="59"/>
      <point x="527" y="64"/>
      <point x="528" y="101" type="curve"/>
      <point x="529" y="181"/>
      <point x="561" y="300"/>
      <point x="578" y="386" type="curve"/>
      <point x="582" y="408"/>
      <point x="592" y="447"/>
      <point x="606" y="483" type="curve"/>
      <point x="614" y="519"/>
      <point x="626" y="552"/>
      <point x="628" y="561" type="curve"/>
      <point x="633" y="573"/>
      <point x="631" y="592"/>
      <point x="629" y="599" type="curve"/>
      <point x="618" y="625"/>
      <point x="603" y="647"/>
      <point x="567" y="647" type="curve"/>
      <point x="555" y="642"/>
      <point x="522" y="580"/>
      <point x="488" y="520" type="curve"/>
      <point x="467" y="481"/>
      <point x="442" y="432"/>
      <point x="420" y="393" type="curve"/>
      <point x="370" y="296"/>
      <point x="323" y="208"/>
      <point x="269" y="118" type="curve"/>
      <point x="254" y="86"/>
      <point x="242" y="71"/>
      <point x="231" y="74" type="curve"/>
      <point x="225" y="76"/>
      <point x="241" y="182"/>
      <point x="252" y="247" type="curve"/>
      <point x="272" y="380"/>
      <point x="297" y="471"/>
      <point x="324" y="537" type="curve"/>
      <point x="342" y="580"/>
      <point x="323" y="607"/>
      <point x="310" y="621" type="curve"/>
      <point x="296" y="640"/>
      <point x="238" y="649"/>
      <point x="237" y="606" type="curve"/>
      <point x="228" y="577"/>
      <point x="220" y="539"/>
      <point x="209" y="513" type="curve"/>
      <point x="192" y="422"/>
      <point x="168" y="332"/>
      <point x="156" y="247" type="curve"/>
      <point x="146" y="189"/>
      <point x="129" y="52"/>
      <point x="133" y="15" type="curve"/>
      <point x="127" y="-10"/>
      <point x="155" y="-43"/>
      <point x="175" y="-45" type="curve"/>
      <point x="202" y="-58"/>
      <point x="234" y="-53"/>
      <point x="263" y="-25" type="curve"/>
      <point x="292" y="1"/>
      <point x="321" y="55"/>
      <point x="339" y="75" type="curve"/>
      <point x="367" y="122"/>
      <point x="414" y="201"/>
      <point x="442" y="263" type="curve"/>
      <point x="461" y="298"/>
      <point x="476" y="342"/>
      <point x="486" y="343" type="curve"/>
      <point x="495" y="344"/>
      <point x="449" y="272"/>
      <point x="440" y="156" type="curve"/>
      <point x="436" y="84"/>
      <point x="437" y="53"/>
      <point x="441" y="10" type="curve"/>
      <point x="444" y="-6"/>
      <point x="459" y="-34"/>
      <point x="465" y="-40" type="curve"/>
      <point x="470" y="-53"/>
      <point x="485" y="-63"/>
    </contour>
  </outline>
</glyph>
<glyph name="X" format="1">
  <advance width="524"/>
  <unicode hex="0058"/>
  <outline>
    <contour>
      <point x="92" y="-56" type="curve"/>
      <point x="103" y="-59"/>
      <point x="115" y="-56"/>
      <point x="121" y="-45" type="curve"/>
      <point x="128" y="-30"/>
      <point x="286" y="142"/>
      <point x="323" y="177" type="curve"/>
      <point x="325" y="182"/>
      <point x="391" y="241"/>
      <point x="396" y="245" type="curve"/>
      <point x="398" y="252"/>
      <point x="407" y="259"/>
      <point x="409" y="265" type="curve"/>
      <point x="416" y="268"/>
      <point x="424" y="279"/>
      <point x="433" y="289" type="curve"/>
      <point x="441" y="299"/>
      <point x="484" y="340"/>
      <point x="513" y="365" type="curve"/>
      <point x="523" y="373"/>
      <point x="592" y="452"/>
      <point x="611" y="475" type="curve"/>
      <point x="613" y="486"/>
      <point x="623" y="500"/>
      <point x="637" y="514" type="curve"/>
      <point x="684" y="582"/>
      <point x="673" y="648"/>
      <point x="634" y="650" type="curve"/>
      <point x="623" y="649"/>
      <point x="618" y="658"/>
      <point x="605" y="630" type="curve"/>
      <point x="587" y="592"/>
      <point x="540" y="530"/>
      <point x="487" y="467" type="curve"/>
      <point x="466" y="442"/>
      <point x="391" y="367"/>
      <point x="388" y="363" type="curve"/>
      <point x="375" y="347"/>
      <point x="363" y="336"/>
      <point x="355" y="326" type="curve"/>
      <point x="321" y="293"/>
      <point x="241" y="215"/>
      <point x="223" y="201" type="curve"/>
      <point x="213" y="187"/>
      <point x="202" y="178"/>
      <point x="201" y="173" type="curve"/>
      <point x="200" y="169"/>
      <point x="172" y="146"/>
      <point x="151" y="125" type="curve"/>
      <point x="81" y="59"/>
      <point x="74" y="56"/>
      <point x="61" y="30" type="curve"/>
      <point x="55" y="15"/>
      <point x="44" y="-21"/>
      <point x="52" y="-34" type="curve"/>
      <point x="55" y="-49"/>
      <point x="58" y="-55"/>
      <point x="58" y="-55" type="curve"/>
      <point x="61" y="-56"/>
      <point x="87" y="-59"/>
    </contour>
    <contour>
      <point x="493" y="-31" type="curve"/>
      <point x="522" y="-35"/>
      <point x="561" y="-17"/>
      <point x="557" y="-2" type="curve"/>
      <point x="556" y="17"/>
      <point x="559" y="57"/>
      <point x="537" y="52" type="curve"/>
      <point x="534" y="48"/>
      <point x="519" y="49"/>
      <point x="516" y="52" type="curve"/>
      <point x="500" y="61"/>
      <point x="478" y="92"/>
      <point x="463" y="124" type="curve"/>
      <point x="434" y="182"/>
      <point x="422" y="217"/>
      <point x="407" y="281" type="curve"/>
      <point x="381" y="371" type="line" smooth="yes"/>
      <point x="377" y="388"/>
      <point x="371" y="407"/>
      <point x="372" y="414" type="curve"/>
      <point x="373" y="421"/>
      <point x="369" y="443"/>
      <point x="368" y="454" type="curve"/>
      <point x="365" y="458"/>
      <point x="366" y="465"/>
      <point x="368" y="471" type="curve"/>
      <point x="365" y="483"/>
      <point x="357" y="559"/>
      <point x="360" y="565" type="curve"/>
      <point x="356" y="569"/>
      <point x="354" y="579"/>
      <point x="354" y="597" type="curve"/>
      <point x="354" y="647"/>
      <point x="307" y="674"/>
      <point x="277" y="653" type="curve"/>
      <point x="273" y="649"/>
      <point x="256" y="635"/>
      <point x="253" y="627" type="curve"/>
      <point x="253" y="627"/>
      <point x="252" y="620"/>
      <point x="256" y="617" type="curve"/>
      <point x="258" y="606"/>
      <point x="262" y="568"/>
      <point x="267" y="520" type="curve"/>
      <point x="271" y="474"/>
      <point x="280" y="440"/>
      <point x="280" y="440" type="curve"/>
      <point x="283" y="433"/>
      <point x="287" y="429"/>
      <point x="283" y="425" type="curve"/>
      <point x="283" y="425"/>
      <point x="277" y="423"/>
      <point x="279" y="418" type="curve"/>
      <point x="282" y="415"/>
      <point x="291" y="377"/>
      <point x="298" y="330" type="curve"/>
      <point x="313" y="218"/>
      <point x="353" y="118"/>
      <point x="402" y="50" type="curve"/>
      <point x="432" y="-5"/>
      <point x="467" y="-29"/>
    </contour>
  </outline>
</glyph>
<glyph name="Y" format="2">
  <advance width="504"/>
  <unicode hex="0059"/>
  <outline>
    <contour>
      <point x="330" y="267" type="line"/>
      <point x="357" y="254" type="line"/>
      <point x="364" y="264"/>
      <point x="388" y="285"/>
      <point x="389" y="288" type="curve"/>
      <point x="399" y="297"/>
      <point x="451" y="352"/>
      <point x="510" y="420" type="curve"/>
      <point x="550" y="470"/>
      <point x="629" y="551"/>
      <point x="656" y="574" type="curve"/>
      <point x="665" y="583"/>
      <point x="677" y="593"/>
      <point x="678" y="600" type="curve"/>
      <point x="679" y="607"/>
      <point x="678" y="612"/>
      <point x="675" y="618" type="curve"/>
      <point x="665" y="631"/>
      <point x="669" y="648"/>
      <point x="658" y="651" type="curve"/>
      <point x="658" y="651"/>
      <point x="644" y="650"/>
      <point x="637" y="638" type="curve"/>
      <point x="605" y="619"/>
      <point x="522" y="511"/>
      <point x="449" y="433" type="curve"/>
      <point x="374" y="353"/>
      <point x="368" y="341"/>
      <point x="344" y="348" type="curve"/>
      <point x="314" y="367"/>
      <point x="298" y="452"/>
      <point x="294" y="595" type="curve"/>
      <point x="295" y="652"/>
      <point x="276" y="696"/>
      <point x="257" y="673" type="curve"/>
      <point x="252" y="662"/>
      <point x="238" y="643"/>
      <point x="237" y="593" type="curve"/>
      <point x="235" y="511"/>
      <point x="232" y="478"/>
      <point x="246" y="431" type="curve"/>
      <point x="253" y="380"/>
      <point x="268" y="351"/>
      <point x="295" y="311" type="curve"/>
    </contour>
    <contour>
      <point x="259" y="-68" type="curve"/>
      <point x="278" y="-74"/>
      <point x="278" y="-54"/>
      <point x="302" y="37" type="curve"/>
      <point x="314" y="71"/>
      <point x="334" y="142"/>
      <point x="351" y="197" type="curve"/>
      <point x="370" y="276"/>
      <point x="373" y="284"/>
      <point x="381" y="297" type="curve"/>
      <point x="353" y="328" type="line"/>
      <point x="313" y="294" type="line"/>
      <point x="295" y="242" type="line"/>
      <point x="282" y="211"/>
      <point x="264" y="159"/>
      <point x="264" y="137" type="curve"/>
      <point x="248" y="108"/>
      <point x="235" y="57"/>
      <point x="234" y="26" type="curve"/>
      <point x="220" y="-28"/>
      <point x="214" y="-33"/>
      <point x="229" y="-49" type="curve"/>
      <point x="242" y="-58"/>
      <point x="254" y="-67"/>
    </contour>
  </outline>
</glyph>
<glyph name="Z" format="1">
  <advance width="522"/>
  <unicode hex="005A"/>
  <outline>
    <contour>
      <point x="118" y="-57" type="curve"/>
      <point x="154" y="-59"/>
      <point x="220" y="-58"/>
      <point x="270" y="-50" type="curve"/>
      <point x="326" y="-44"/>
      <point x="380" y="-40"/>
      <point x="398" y="-41" type="curve"/>
      <point x="430" y="-43"/>
      <point x="482" y="-31"/>
      <point x="497" y="-30" type="curve"/>
      <point x="514" y="-17"/>
      <point x="523" y="22"/>
      <point x="505" y="28" type="curve"/>
      <point x="491" y="47"/>
      <point x="486" y="46"/>
      <point x="476" y="46" type="curve"/>
      <point x="438" y="46"/>
      <point x="396" y="43"/>
      <point x="327" y="39" type="curve"/>
      <point x="273" y="36"/>
      <point x="266" y="27"/>
      <point x="221" y="25" type="curve"/>
      <point x="166" y="22"/>
      <point x="163" y="35"/>
      <point x="177" y="52" type="curve"/>
      <point x="214" y="87"/>
      <point x="244" y="113"/>
      <point x="281" y="145" type="curve"/>
      <point x="340" y="195"/>
      <point x="395" y="246"/>
      <point x="470" y="316" type="curve"/>
      <point x="545" y="385"/>
      <point x="626" y="480"/>
      <point x="650" y="525" type="curve"/>
      <point x="665" y="565"/>
      <point x="677" y="583"/>
      <point x="663" y="614" type="curve"/>
      <point x="645" y="658"/>
      <point x="554" y="666"/>
      <point x="482" y="673" type="curve"/>
      <point x="445" y="677"/>
      <point x="359" y="675"/>
      <point x="329" y="670" type="curve"/>
      <point x="298" y="665"/>
      <point x="264" y="661"/>
      <point x="254" y="656" type="curve"/>
      <point x="248" y="650"/>
      <point x="240" y="636"/>
      <point x="246" y="623" type="curve"/>
      <point x="256" y="615"/>
      <point x="255" y="601"/>
      <point x="250" y="594" type="curve"/>
      <point x="250" y="588"/>
      <point x="267" y="571"/>
      <point x="276" y="574" type="curve"/>
      <point x="335" y="584"/>
      <point x="402" y="594"/>
      <point x="485" y="588" type="curve"/>
      <point x="554" y="583"/>
      <point x="563" y="581"/>
      <point x="551" y="542" type="curve"/>
      <point x="544" y="515"/>
      <point x="509" y="481"/>
      <point x="463" y="433" type="curve"/>
      <point x="417" y="385"/>
      <point x="393" y="360"/>
      <point x="314" y="292" type="curve"/>
      <point x="160" y="155"/>
      <point x="115" y="102"/>
      <point x="70" y="53" type="curve"/>
      <point x="57" y="39"/>
      <point x="39" y="0"/>
      <point x="51" y="-28" type="curve"/>
      <point x="61" y="-53"/>
      <point x="90" y="-55"/>
    </contour>
  </outline>
</glyph>
<glyph name="backslash" format="2">
  <advance width="330"/>
  <unicode hex="005C"/>
  <outline>
    <contour>
      <point x="333" y="-121" type="curve"/>
      <point x="333" y="-121"/>
      <point x="356" y="-110"/>
      <point x="369" y="-101" type="curve"/>
      <point x="382" y="-92"/>
      <point x="384" y="-81"/>
      <point x="384" y="-66" type="curve"/>
      <point x="389" y="-41"/>
      <point x="381" y="-34"/>
      <point x="358" y="41" type="curve"/>
      <point x="351" y="69"/>
      <point x="325" y="156"/>
      <point x="326" y="161" type="curve"/>
      <point x="327" y="166"/>
      <point x="322" y="178"/>
      <point x="321" y="196" type="curve"/>
      <point x="312" y="218"/>
      <point x="291" y="296"/>
      <point x="293" y="301" type="curve"/>
      <point x="291" y="306"/>
      <point x="293" y="312"/>
      <point x="288" y="318" type="curve"/>
      <point x="283" y="318"/>
      <point x="284" y="329"/>
      <point x="284" y="329" type="curve"/>
      <point x="286" y="334"/>
      <point x="285" y="355"/>
      <point x="276" y="384" type="curve"/>
      <point x="266" y="460"/>
      <point x="231" y="638"/>
      <point x="235" y="674" type="curve"/>
      <point x="240" y="705"/>
      <point x="233" y="732"/>
      <point x="225" y="739" type="curve"/>
      <point x="188" y="754"/>
      <point x="149" y="723"/>
      <point x="158" y="625" type="curve"/>
      <point x="160" y="608"/>
      <point x="164" y="592"/>
      <point x="162" y="582" type="curve"/>
      <point x="163" y="554"/>
      <point x="206" y="350"/>
      <point x="210" y="337" type="curve"/>
      <point x="216" y="337"/>
      <point x="219" y="324"/>
      <point x="218" y="314" type="curve"/>
      <point x="217" y="303"/>
      <point x="218" y="288"/>
      <point x="224" y="283" type="curve"/>
      <point x="223" y="277"/>
      <point x="226" y="266"/>
      <point x="226" y="259" type="curve"/>
      <point x="225" y="254"/>
      <point x="229" y="248"/>
      <point x="228" y="243" type="curve"/>
      <point x="244" y="198"/>
      <point x="306" y="-79"/>
      <point x="305" y="-95" type="curve"/>
      <point x="302" y="-107"/>
      <point x="308" y="-112"/>
      <point x="319" y="-114" type="curve"/>
      <point x="321" y="-118"/>
      <point x="328" y="-121"/>
    </contour>
  </outline>
</glyph>
<glyph name="bracketright" format="2">
  <advance width="330"/>
  <unicode hex="005D"/>
  <outline>
    <contour>
      <point x="120" y="-126" type="curve"/>
      <point x="139" y="-131"/>
      <point x="92" y="-119"/>
      <point x="155" y="-126" type="curve"/>
      <point x="208" y="-130"/>
      <point x="231" y="-115"/>
      <point x="231" y="-72" type="curve"/>
      <point x="231" y="-64"/>
      <point x="231" y="-52"/>
      <point x="235" y="-52" type="curve"/>
      <point x="235" y="-52"/>
      <point x="238" y="-48"/>
      <point x="234" y="-48" type="curve"/>
      <point x="234" y="-48"/>
      <point x="233" y="-39"/>
      <point x="237" y="-32" type="curve"/>
      <point x="244" y="-27"/>
      <point x="242" y="-17"/>
      <point x="242" y="-11" type="curve"/>
      <point x="242" y="-5"/>
      <point x="251" y="0"/>
      <point x="251" y="4" type="curve"/>
      <point x="254" y="10"/>
      <point x="261" y="43"/>
      <point x="267" y="74" type="curve"/>
      <point x="278" y="108"/>
      <point x="285" y="139"/>
      <point x="285" y="144" type="curve"/>
      <point x="295" y="163"/>
      <point x="312" y="228"/>
      <point x="312" y="234" type="curve"/>
      <point x="312" y="234"/>
      <point x="314" y="249"/>
      <point x="318" y="262" type="curve"/>
      <point x="320" y="270"/>
      <point x="331" y="300"/>
      <point x="343" y="318" type="curve"/>
      <point x="345" y="339"/>
      <point x="352" y="368"/>
      <point x="357" y="379" type="curve"/>
      <point x="359" y="388"/>
      <point x="365" y="400"/>
      <point x="365" y="400" type="curve"/>
      <point x="365" y="404"/>
      <point x="381" y="437"/>
      <point x="395" y="484" type="curve"/>
      <point x="402" y="502"/>
      <point x="405" y="517"/>
      <point x="405" y="522" type="curve"/>
      <point x="405" y="528"/>
      <point x="410" y="529"/>
      <point x="410" y="529" type="curve"/>
      <point x="415" y="529"/>
      <point x="424" y="555"/>
      <point x="422" y="566" type="curve"/>
      <point x="422" y="572"/>
      <point x="427" y="573"/>
      <point x="427" y="573" type="curve"/>
      <point x="434" y="574"/>
      <point x="434" y="578"/>
      <point x="434" y="582" type="curve"/>
      <point x="432" y="591"/>
      <point x="470" y="669"/>
      <point x="482" y="686" type="curve"/>
      <point x="490" y="696"/>
      <point x="490" y="696"/>
      <point x="480" y="715" type="curve"/>
      <point x="480" y="728"/>
      <point x="468" y="751"/>
      <point x="464" y="751" type="curve"/>
      <point x="450" y="761"/>
      <point x="382" y="750"/>
      <point x="361" y="745" type="curve"/>
      <point x="357" y="745"/>
      <point x="347" y="750"/>
      <point x="289" y="743" type="curve"/>
      <point x="218" y="734"/>
      <point x="154" y="715"/>
      <point x="155" y="697" type="curve"/>
      <point x="156" y="688"/>
      <point x="162" y="674"/>
      <point x="168" y="675" type="curve"/>
      <point x="172" y="675"/>
      <point x="171" y="667"/>
      <point x="175" y="663" type="curve"/>
      <point x="176" y="659"/>
      <point x="176" y="659"/>
      <point x="302" y="667" type="curve"/>
      <point x="340" y="670"/>
      <point x="370" y="672"/>
      <point x="370" y="672" type="curve"/>
      <point x="370" y="672"/>
      <point x="363" y="638"/>
      <point x="348" y="609" type="curve"/>
      <point x="319" y="516"/>
      <point x="278" y="400"/>
      <point x="261" y="344" type="curve"/>
      <point x="259" y="324"/>
      <point x="247" y="302"/>
      <point x="244" y="282" type="curve"/>
      <point x="241" y="266"/>
      <point x="227" y="230"/>
      <point x="219" y="203" type="curve"/>
      <point x="213" y="170"/>
      <point x="195" y="128"/>
      <point x="193" y="107" type="curve"/>
      <point x="185" y="81"/>
      <point x="177" y="61"/>
      <point x="173" y="50" type="curve"/>
      <point x="174" y="42"/>
      <point x="169" y="29"/>
      <point x="161" y="23" type="curve"/>
      <point x="161" y="18"/>
      <point x="159" y="-2"/>
      <point x="156" y="-18" type="curve"/>
      <point x="146" y="-45" type="line"/>
      <point x="119" y="-48" type="line" smooth="yes"/>
      <point x="104" y="-49"/>
      <point x="89" y="-46"/>
      <point x="85" y="-46" type="curve"/>
      <point x="71" y="-42"/>
      <point x="-33" y="-64"/>
      <point x="-43" y="-77" type="curve"/>
      <point x="-55" y="-82" type="line"/>
      <point x="-41" y="-92" type="line"/>
      <point x="-35" y="-100"/>
      <point x="-26" y="-112"/>
      <point x="-26" y="-112" type="curve"/>
      <point x="-20" y="-111"/>
      <point x="10" y="-125"/>
      <point x="30" y="-123" type="curve"/>
      <point x="52" y="-127"/>
      <point x="77" y="-125"/>
      <point x="87" y="-124" type="curve"/>
      <point x="100" y="-127"/>
      <point x="115" y="-126"/>
    </contour>
  </outline>
</glyph>
<glyph name="asciicircum" format="1">
  <advance width="446"/>
  <unicode hex="005E"/>
  <outline>
    <contour>
      <point x="134" y="287" type="curve"/>
      <point x="154" y="276"/>
      <point x="185" y="305"/>
      <point x="200" y="349" type="curve"/>
      <point x="241" y="440"/>
      <point x="262" y="461"/>
      <point x="288" y="470" type="curve"/>
      <point x="307" y="476"/>
      <point x="306" y="464"/>
      <point x="338" y="411" type="curve"/>
      <point x="376" y="329"/>
      <point x="376" y="322"/>
      <point x="386" y="293" type="curve"/>
      <point x="407" y="224"/>
      <point x="469" y="298"/>
      <point x="455" y="329" type="curve"/>
      <point x="431" y="385"/>
      <point x="351" y="563"/>
      <point x="321" y="566" type="curve"/>
      <point x="280" y="570"/>
      <point x="196" y="495"/>
      <point x="172" y="453" type="curve"/>
      <point x="157" y="436"/>
      <point x="152" y="419"/>
      <point x="129" y="374" type="curve"/>
      <point x="102" y="306"/>
      <point x="123" y="294"/>
    </contour>
  </outline>
</glyph>
<glyph name="grave" format="2">
  <advance width="353"/>
  <unicode hex="0060"/>
  <anchor x="379" y="560" name="_top"/>
  <outline>
    <contour>
      <point x="340" y="426" type="curve"/>
      <point x="351" y="431"/>
      <point x="375" y="459"/>
      <point x="374" y="465" type="curve"/>
      <point x="361" y="513"/>
      <point x="330" y="596"/>
      <point x="305" y="604" type="curve"/>
      <point x="285" y="609"/>
      <point x="266" y="588"/>
      <point x="259" y="578" type="curve"/>
      <point x="237" y="552"/>
      <point x="297" y="485"/>
      <point x="308" y="446" type="curve"/>
      <point x="314" y="414"/>
      <point x="323" y="413"/>
    </contour>
  </outline>
</glyph>
<glyph name="d" format="2">
  <advance width="402"/>
  <unicode hex="0064"/>
  <anchor x="170" y="-110" name="bottom"/>
  <anchor x="422" y="560" name="caronalt"/>
  <outline>
    <contour>
      <point x="374" y="-19" type="curve"/>
      <point x="395" y="-17"/>
      <point x="424" y="-12"/>
      <point x="413" y="29" type="curve"/>
      <point x="407" y="51"/>
      <point x="409" y="194"/>
      <point x="425" y="253" type="curve"/>
      <point x="451" y="347"/>
      <point x="512" y="514"/>
      <point x="548" y="577" type="curve"/>
      <point x="556" y="591"/>
      <point x="556" y="605"/>
      <point x="551" y="617" type="curve"/>
      <point x="544" y="635"/>
      <point x="517" y="647"/>
      <point x="502" y="647" type="curve"/>
      <point x="491" y="648"/>
      <point x="475" y="637"/>
      <point x="461" y="607" type="curve"/>
      <point x="441" y="564"/>
      <point x="417" y="514"/>
      <point x="384" y="413" type="curve"/>
      <point x="372" y="376"/>
      <point x="366" y="362"/>
      <point x="361" y="341" type="curve"/>
      <point x="358" y="326"/>
      <point x="349" y="323"/>
      <point x="325" y="335" type="curve"/>
      <point x="274" y="363"/>
      <point x="200" y="347"/>
      <point x="156" y="281" type="curve"/>
      <point x="106" y="225"/>
      <point x="75" y="115"/>
      <point x="90" y="78" type="curve"/>
      <point x="99" y="57"/>
      <point x="139" y="14"/>
      <point x="162" y="10" type="curve"/>
      <point x="194" y="10"/>
      <point x="233" y="26"/>
      <point x="279" y="69" type="curve"/>
      <point x="320" y="106" type="line"/>
      <point x="321" y="72" type="line" smooth="yes"/>
      <point x="322" y="46"/>
      <point x="323" y="29"/>
      <point x="331" y="8" type="curve"/>
      <point x="338" y="-7"/>
      <point x="356" y="-23"/>
    </contour>
    <contour>
      <point x="209" y="102" type="curve"/>
      <point x="184" y="92"/>
      <point x="171" y="99"/>
      <point x="174" y="113" type="curve"/>
      <point x="189" y="185"/>
      <point x="211" y="218"/>
      <point x="243" y="247" type="curve"/>
      <point x="272" y="274"/>
      <point x="295" y="273"/>
      <point x="310" y="261" type="curve"/>
      <point x="325" y="248"/>
      <point x="331" y="234"/>
      <point x="325" y="214" type="curve"/>
      <point x="314" y="180"/>
      <point x="300" y="162"/>
      <point x="260" y="132" type="curve"/>
      <point x="240" y="117"/>
      <point x="227" y="109"/>
    </contour>
  </outline>
</glyph>
<glyph name="e" format="2">
  <advance width="334"/>
  <unicode hex="0065"/>
  <outline>
    <contour>
      <point x="276" y="35" type="curve"/>
      <point x="320" y="62"/>
      <point x="350" y="106"/>
      <point x="331" y="106" type="curve"/>
      <point x="326" y="108"/>
      <point x="321" y="117"/>
      <point x="314" y="117" type="curve"/>
      <point x="307" y="117"/>
      <point x="303" y="112"/>
      <point x="294" y="103" type="curve"/>
      <point x="273" y="82"/>
      <point x="287" y="94"/>
      <point x="255" y="75" type="curve"/>
      <point x="232" y="62"/>
      <point x="222" y="67"/>
      <point x="195" y="72" type="curve"/>
      <point x="172" y="76"/>
      <point x="156" y="97"/>
      <point x="162" y="148" type="curve"/>
      <point x="168" y="201"/>
      <point x="173" y="211"/>
      <point x="198" y="201" type="curve"/>
      <point x="221" y="185"/>
      <point x="260" y="185"/>
      <point x="289" y="194" type="curve"/>
      <point x="343" y="221"/>
      <point x="380" y="270"/>
      <point x="385" y="299" type="curve"/>
      <point x="385" y="317"/>
      <point x="380" y="337"/>
      <point x="360" y="357" type="curve"/>
      <point x="350" y="370"/>
      <point x="338" y="378"/>
      <point x="307" y="382" type="curve"/>
      <point x="278" y="385"/>
      <point x="269" y="388"/>
      <point x="249" y="375" type="curve"/>
      <point x="186" y="350"/>
      <point x="114" y="260"/>
      <point x="108" y="183" type="curve"/>
      <point x="102" y="121"/>
      <point x="108" y="87"/>
      <point x="131" y="58" type="curve"/>
      <point x="165" y="10"/>
      <point x="233" y="-2"/>
    </contour>
    <contour>
      <point x="275" y="247" type="curve"/>
      <point x="252" y="237"/>
      <point x="203" y="240"/>
      <point x="198" y="250" type="curve"/>
      <point x="193" y="255"/>
      <point x="245" y="320"/>
      <point x="275" y="328" type="curve"/>
      <point x="309" y="337"/>
      <point x="327" y="320"/>
      <point x="327" y="302" type="curve"/>
      <point x="327" y="285"/>
      <point x="296" y="256"/>
    </contour>
  </outline>
</glyph>
<glyph name="f" format="1">
  <advance width="300"/>
  <unicode hex="0066"/>
  <outline>
    <contour>
      <point x="147" y="-121" type="curve"/>
      <point x="154" y="-114"/>
      <point x="155" y="-102"/>
      <point x="157" y="-84" type="curve"/>
      <point x="160" y="-55" type="line"/>
      <point x="160" y="-34"/>
      <point x="163" y="-9"/>
      <point x="164" y="4" type="curve"/>
      <point x="165" y="8"/>
      <point x="165" y="13"/>
      <point x="165" y="14" type="curve"/>
      <point x="165" y="19"/>
      <point x="165" y="28"/>
      <point x="171" y="39" type="curve"/>
      <point x="171" y="50"/>
      <point x="171" y="65"/>
      <point x="179" y="75" type="curve"/>
      <point x="179" y="92"/>
      <point x="201" y="190"/>
      <point x="207" y="207" type="curve"/>
      <point x="210" y="212"/>
      <point x="211" y="218"/>
      <point x="211" y="228" type="curve"/>
      <point x="211" y="232"/>
      <point x="215" y="240"/>
      <point x="221" y="240" type="curve"/>
      <point x="221" y="246"/>
      <point x="283" y="256"/>
      <point x="319" y="265" type="curve"/>
      <point x="347" y="270"/>
      <point x="381" y="281"/>
      <point x="383" y="287" type="curve"/>
      <point x="388" y="294"/>
      <point x="378" y="338"/>
      <point x="362" y="348" type="curve"/>
      <point x="342" y="353"/>
      <point x="342" y="353"/>
      <point x="323" y="348" type="curve"/>
      <point x="291" y="339"/>
      <point x="249" y="333"/>
      <point x="249" y="341" type="curve"/>
      <point x="249" y="345"/>
      <point x="268" y="390"/>
      <point x="268" y="390" type="curve"/>
      <point x="267" y="390" type="line"/>
      <point x="272" y="395"/>
      <point x="282" y="412"/>
      <point x="287" y="425" type="curve"/>
      <point x="297" y="443"/>
      <point x="301" y="457"/>
      <point x="301" y="457" type="curve"/>
      <point x="307" y="457"/>
      <point x="307" y="464"/>
      <point x="307" y="470" type="curve"/>
      <point x="307" y="473"/>
      <point x="315" y="487"/>
      <point x="325" y="501" type="curve"/>
      <point x="339" y="518"/>
      <point x="344" y="531"/>
      <point x="344" y="531" type="curve"/>
      <point x="344" y="540"/>
      <point x="390" y="585"/>
      <point x="399" y="590" type="curve"/>
      <point x="419" y="590"/>
      <point x="426" y="583"/>
      <point x="426" y="573" type="curve"/>
      <point x="426" y="564"/>
      <point x="420" y="553"/>
      <point x="414" y="545" type="curve"/>
      <point x="405" y="526"/>
      <point x="402" y="512"/>
      <point x="402" y="501" type="curve"/>
      <point x="402" y="485"/>
      <point x="411" y="477"/>
      <point x="423" y="477" type="curve"/>
      <point x="428" y="477"/>
      <point x="433" y="479"/>
      <point x="439" y="481" type="curve"/>
      <point x="450" y="482"/>
      <point x="508" y="571"/>
      <point x="513" y="597" type="curve"/>
      <point x="513" y="616"/>
      <point x="513" y="616"/>
      <point x="495" y="636" type="curve"/>
      <point x="478" y="652"/>
      <point x="453" y="672"/>
      <point x="428" y="672" type="curve"/>
      <point x="400" y="672"/>
      <point x="373" y="661"/>
      <point x="344" y="646" type="curve"/>
      <point x="320" y="626"/>
      <point x="261" y="569"/>
      <point x="251" y="543" type="curve"/>
      <point x="240" y="530"/>
      <point x="230" y="502"/>
      <point x="222" y="480" type="curve"/>
      <point x="203" y="447"/>
      <point x="189" y="407"/>
      <point x="162" y="331" type="curve"/>
      <point x="157" y="322"/>
      <point x="148" y="305"/>
      <point x="147" y="298" type="curve"/>
      <point x="138" y="293"/>
      <point x="133" y="283"/>
      <point x="133" y="272" type="curve"/>
      <point x="133" y="260"/>
      <point x="124" y="222"/>
      <point x="114" y="189" type="curve"/>
      <point x="110" y="159"/>
      <point x="105" y="140"/>
      <point x="102" y="128" type="curve"/>
      <point x="101" y="124"/>
      <point x="99" y="117"/>
      <point x="99" y="116" type="curve"/>
      <point x="93" y="90"/>
      <point x="81" y="15"/>
      <point x="81" y="4" type="curve"/>
      <point x="81" y="-1"/>
      <point x="81" y="-16"/>
      <point x="76" y="-31" type="curve"/>
      <point x="72" y="-65"/>
      <point x="74" y="-71"/>
      <point x="84" y="-82" type="curve"/>
      <point x="103" y="-104"/>
      <point x="139" y="-126"/>
    </contour>
  </outline>
</glyph>
<glyph name="h" format="2">
  <advance width="473"/>
  <unicode hex="0068"/>
  <anchor x="196" y="-110" name="bottom"/>
  <anchor x="445" y="560" name="top"/>
  <outline>
    <contour>
      <point x="139" y="38" type="curve"/>
      <point x="165" y="39"/>
      <point x="183" y="63"/>
      <point x="199" y="83" type="curve"/>
      <point x="249" y="147"/>
      <point x="339" y="216"/>
      <point x="370" y="216" type="curve"/>
      <point x="385" y="216"/>
      <point x="380" y="191"/>
      <point x="375" y="133" type="curve"/>
      <point x="373" y="91"/>
      <point x="381" y="70"/>
      <point x="406" y="53" type="curve"/>
      <point x="433" y="38"/>
      <point x="455" y="45"/>
      <point x="487" y="66" type="curve"/>
      <point x="500" y="74"/>
      <point x="515" y="99"/>
      <point x="507" y="110" type="curve"/>
      <point x="501" y="112"/>
      <point x="496" y="119"/>
      <point x="489" y="123" type="curve"/>
      <point x="489" y="123"/>
      <point x="471" y="130"/>
      <point x="457" y="125" type="curve"/>
      <point x="449" y="125" type="line"/>
      <point x="458" y="159" type="line"/>
      <point x="461" y="174"/>
      <point x="469" y="211"/>
      <point x="469" y="222" type="curve"/>
      <point x="472" y="260"/>
      <point x="469" y="281"/>
      <point x="456" y="299" type="curve"/>
      <point x="441" y="321"/>
      <point x="423" y="335"/>
      <point x="407" y="335" type="curve"/>
      <point x="386" y="335"/>
      <point x="363" y="328"/>
      <point x="346" y="317" type="curve"/>
      <point x="339" y="312"/>
      <point x="332" y="306"/>
      <point x="329" y="304" type="curve"/>
      <point x="325" y="302"/>
      <point x="321" y="296"/>
      <point x="319" y="292" type="curve"/>
      <point x="319" y="292"/>
      <point x="303" y="280"/>
      <point x="289" y="270" type="curve"/>
      <point x="273" y="259"/>
      <point x="258" y="246"/>
      <point x="237" y="228" type="curve"/>
      <point x="218" y="211"/>
      <point x="207" y="200"/>
      <point x="200" y="192" type="curve"/>
      <point x="201" y="202"/>
      <point x="205" y="214"/>
      <point x="206" y="221" type="curve"/>
      <point x="210" y="232"/>
      <point x="214" y="249"/>
      <point x="216" y="257" type="curve"/>
      <point x="216" y="257"/>
      <point x="221" y="268"/>
      <point x="227" y="279" type="curve"/>
      <point x="232" y="289"/>
      <point x="242" y="309"/>
      <point x="243" y="316" type="curve"/>
      <point x="273" y="389"/>
      <point x="302" y="493"/>
      <point x="335" y="566" type="curve"/>
      <point x="358" y="606"/>
      <point x="325" y="659"/>
      <point x="297" y="661" type="curve"/>
      <point x="285" y="661"/>
      <point x="265" y="648"/>
      <point x="265" y="638" type="curve"/>
      <point x="260" y="622"/>
      <point x="252" y="603"/>
      <point x="209" y="484" type="curve"/>
      <point x="176" y="392"/>
      <point x="163" y="357"/>
      <point x="149" y="307" type="curve"/>
      <point x="143" y="291"/>
      <point x="125" y="247"/>
      <point x="121" y="223" type="curve"/>
      <point x="108" y="181"/>
      <point x="98" y="143"/>
      <point x="92" y="122" type="curve"/>
      <point x="88" y="91"/>
      <point x="88" y="78"/>
      <point x="108" y="55" type="curve"/>
      <point x="117" y="48"/>
      <point x="129" y="37"/>
    </contour>
  </outline>
</glyph>
<glyph name="i" format="2">
  <advance width="196"/>
  <unicode hex="0069"/>
  <outline>
    <contour>
      <point x="111" y="32" type="curve"/>
      <point x="134" y="7"/>
      <point x="140" y="13"/>
      <point x="152" y="68" type="curve"/>
      <point x="162" y="84"/>
      <point x="165" y="110"/>
      <point x="169" y="121" type="curve"/>
      <point x="174" y="138"/>
      <point x="183" y="160"/>
      <point x="188" y="171" type="curve"/>
      <point x="191" y="187"/>
      <point x="200" y="210"/>
      <point x="205" y="221" type="curve"/>
      <point x="219" y="253"/>
      <point x="223" y="274"/>
      <point x="212" y="285" type="curve"/>
      <point x="199" y="306"/>
      <point x="194" y="309"/>
      <point x="178" y="304" type="curve"/>
      <point x="167" y="303"/>
      <point x="162" y="297"/>
      <point x="162" y="291" type="curve"/>
      <point x="159" y="281"/>
      <point x="133" y="193"/>
      <point x="114" y="150" type="curve"/>
      <point x="110" y="138"/>
      <point x="105" y="122"/>
      <point x="106" y="117" type="curve"/>
      <point x="107" y="112"/>
      <point x="102" y="106"/>
      <point x="102" y="96" type="curve"/>
      <point x="93" y="80"/>
      <point x="95" y="48"/>
    </contour>
    <contour>
      <point x="208" y="438" type="curve"/>
      <point x="226" y="423"/>
      <point x="242" y="424"/>
      <point x="262" y="451" type="curve"/>
      <point x="286" y="480"/>
      <point x="291" y="491"/>
      <point x="279" y="517" type="curve"/>
      <point x="266" y="538"/>
      <point x="250" y="547"/>
      <point x="234" y="536" type="curve"/>
      <point x="229" y="535"/>
      <point x="224" y="529"/>
      <point x="224" y="524" type="curve"/>
      <point x="226" y="508"/>
      <point x="206" y="480"/>
      <point x="196" y="479" type="curve"/>
      <point x="190" y="479"/>
      <point x="198" y="447"/>
    </contour>
  </outline>
</glyph>
<glyph name="k" format="2">
  <advance width="374"/>
  <unicode hex="006B"/>
  <anchor x="144" y="-110" name="bottom"/>
  <outline>
    <contour>
      <point x="128" y="-3" type="curve"/>
      <point x="149" y="-3"/>
      <point x="164" y="18"/>
      <point x="163" y="33" type="curve"/>
      <point x="165" y="79"/>
      <point x="177" y="102"/>
      <point x="190" y="133" type="curve"/>
      <point x="196" y="146"/>
      <point x="204" y="156"/>
      <point x="209" y="160" type="curve"/>
      <point x="218" y="159"/>
      <point x="224" y="148"/>
      <point x="228" y="134" type="curve"/>
      <point x="228" y="134"/>
      <point x="236" y="124"/>
      <point x="241" y="113" type="curve"/>
      <point x="243" y="110"/>
      <point x="255" y="86"/>
      <point x="255" y="81" type="curve"/>
      <point x="285" y="41"/>
      <point x="308" y="15"/>
      <point x="336" y="-6" type="curve"/>
      <point x="368" y="-27"/>
      <point x="403" y="-2"/>
      <point x="441" y="24" type="curve"/>
      <point x="458" y="39"/>
      <point x="455" y="48"/>
      <point x="450" y="59" type="curve"/>
      <point x="440" y="72"/>
      <point x="427" y="79"/>
      <point x="407" y="74" type="curve"/>
      <point x="376" y="63"/>
      <point x="364" y="70"/>
      <point x="350" y="92" type="curve"/>
      <point x="342" y="105"/>
      <point x="323" y="146"/>
      <point x="312" y="167" type="curve"/>
      <point x="301" y="183"/>
      <point x="286" y="205"/>
      <point x="286" y="205" type="curve"/>
      <point x="304" y="218"/>
      <point x="363" y="246"/>
      <point x="408" y="279" type="curve"/>
      <point x="446" y="310"/>
      <point x="445" y="326"/>
      <point x="431" y="344" type="curve"/>
      <point x="419" y="360"/>
      <point x="406" y="371"/>
      <point x="381" y="352" type="curve"/>
      <point x="370" y="345"/>
      <point x="357" y="336"/>
      <point x="350" y="331" type="curve"/>
      <point x="333" y="327"/>
      <point x="297" y="296"/>
      <point x="276" y="282" type="curve"/>
      <point x="254" y="267"/>
      <point x="244" y="265"/>
      <point x="244" y="265" type="curve"/>
      <point x="242" y="274"/>
      <point x="255" y="311"/>
      <point x="325" y="461" type="curve"/>
      <point x="363" y="539"/>
      <point x="385" y="602"/>
      <point x="385" y="623" type="curve"/>
      <point x="385" y="639"/>
      <point x="364" y="669"/>
      <point x="348" y="672" type="curve"/>
      <point x="343" y="672"/>
      <point x="323" y="671"/>
      <point x="317" y="667" type="curve"/>
      <point x="310" y="665"/>
      <point x="306" y="661"/>
      <point x="307" y="651" type="curve"/>
      <point x="302" y="630"/>
      <point x="275" y="562"/>
      <point x="246" y="501" type="curve"/>
      <point x="223" y="446"/>
      <point x="210" y="415"/>
      <point x="183" y="355" type="curve"/>
      <point x="167" y="318"/>
      <point x="144" y="260"/>
      <point x="128" y="225" type="curve"/>
      <point x="123" y="209"/>
      <point x="117" y="188"/>
      <point x="107" y="173" type="curve"/>
      <point x="92" y="126"/>
      <point x="80" y="86"/>
      <point x="74" y="71" type="curve"/>
      <point x="74" y="49"/>
      <point x="112" y="2"/>
    </contour>
  </outline>
</glyph>
<glyph name="l" format="2">
  <advance width="178"/>
  <unicode hex="006C"/>
  <outline>
    <contour>
      <point x="130" y="0" type="curve"/>
      <point x="140" y="5"/>
      <point x="140" y="11"/>
      <point x="140" y="43" type="curve"/>
      <point x="140" y="80"/>
      <point x="161" y="144"/>
      <point x="183" y="218" type="curve"/>
      <point x="193" y="245"/>
      <point x="199" y="266"/>
      <point x="199" y="271" type="curve"/>
      <point x="199" y="271"/>
      <point x="199" y="282"/>
      <point x="204" y="282" type="curve"/>
      <point x="209" y="287"/>
      <point x="209" y="293"/>
      <point x="209" y="298" type="curve"/>
      <point x="209" y="303"/>
      <point x="241" y="378"/>
      <point x="252" y="399" type="curve"/>
      <point x="257" y="415"/>
      <point x="263" y="426"/>
      <point x="263" y="431" type="curve"/>
      <point x="263" y="436"/>
      <point x="278" y="463"/>
      <point x="289" y="490" type="curve"/>
      <point x="326" y="569"/>
      <point x="332" y="575"/>
      <point x="332" y="601" type="curve"/>
      <point x="332" y="617"/>
      <point x="332" y="628"/>
      <point x="321" y="638" type="curve"/>
      <point x="310" y="649"/>
      <point x="305" y="654"/>
      <point x="305" y="654" type="curve"/>
      <point x="300" y="654"/>
      <point x="293" y="653"/>
      <point x="289" y="649" type="curve"/>
      <point x="278" y="649"/>
      <point x="273" y="644"/>
      <point x="273" y="633" type="curve"/>
      <point x="273" y="617"/>
      <point x="199" y="415"/>
      <point x="177" y="373" type="curve"/>
      <point x="177" y="367"/>
      <point x="172" y="362"/>
      <point x="172" y="357" type="curve"/>
      <point x="172" y="351"/>
      <point x="167" y="341"/>
      <point x="167" y="335" type="curve"/>
      <point x="161" y="330"/>
      <point x="156" y="314"/>
      <point x="156" y="303" type="curve"/>
      <point x="156" y="293"/>
      <point x="151" y="282"/>
      <point x="146" y="282" type="curve"/>
      <point x="140" y="271"/>
      <point x="108" y="181"/>
      <point x="103" y="154" type="curve"/>
      <point x="103" y="144"/>
      <point x="98" y="128"/>
      <point x="92" y="112" type="curve"/>
      <point x="76" y="37"/>
      <point x="92" y="-10"/>
    </contour>
  </outline>
</glyph>
<glyph name="m" format="1">
  <advance width="569"/>
  <unicode hex="006D"/>
  <outline>
    <contour>
      <point x="579" y="23" type="curve"/>
      <point x="608" y="23"/>
      <point x="645" y="30"/>
      <point x="645" y="63" type="curve"/>
      <point x="645" y="99"/>
      <point x="608" y="89"/>
      <point x="604" y="104" type="curve"/>
      <point x="583" y="155"/>
      <point x="608" y="276"/>
      <point x="536" y="276" type="curve"/>
      <point x="505" y="274"/>
      <point x="423" y="214"/>
      <point x="401" y="188" type="curve"/>
      <point x="406" y="195"/>
      <point x="420" y="255"/>
      <point x="421" y="257" type="curve"/>
      <point x="421" y="260"/>
      <point x="422" y="262"/>
      <point x="422" y="265" type="curve"/>
      <point x="422" y="299"/>
      <point x="382" y="324"/>
      <point x="368" y="324" type="curve"/>
      <point x="341" y="316"/>
      <point x="267" y="263"/>
      <point x="225" y="223" type="curve"/>
      <point x="213" y="211"/>
      <point x="209" y="211"/>
      <point x="208" y="212" type="curve"/>
      <point x="206" y="212"/>
      <point x="206" y="213"/>
      <point x="206" y="215" type="curve"/>
      <point x="206" y="222"/>
      <point x="221" y="253"/>
      <point x="231" y="276" type="curve"/>
      <point x="242" y="303" type="line" smooth="yes"/>
      <point x="246" y="311"/>
      <point x="250" y="323"/>
      <point x="250" y="336" type="curve"/>
      <point x="250" y="357"/>
      <point x="237" y="393"/>
      <point x="198" y="393" type="curve"/>
      <point x="174" y="393"/>
      <point x="151" y="377"/>
      <point x="151" y="357" type="curve"/>
      <point x="151" y="354"/>
      <point x="153" y="346"/>
      <point x="153" y="335" type="curve"/>
      <point x="153" y="327"/>
      <point x="152" y="318"/>
      <point x="149" y="308" type="curve"/>
      <point x="112" y="222"/>
      <point x="120" y="239"/>
      <point x="111" y="200" type="curve"/>
      <point x="100" y="150"/>
      <point x="88" y="111"/>
      <point x="88" y="85" type="curve"/>
      <point x="88" y="52"/>
      <point x="117" y="27"/>
      <point x="145" y="27" type="curve"/>
      <point x="147" y="27"/>
      <point x="189" y="79"/>
      <point x="211" y="102" type="curve"/>
      <point x="274" y="167"/>
      <point x="314" y="217"/>
      <point x="332" y="216" type="curve"/>
      <point x="333" y="216"/>
      <point x="333" y="216"/>
      <point x="333" y="214" type="curve"/>
      <point x="333" y="208"/>
      <point x="327" y="191"/>
      <point x="308" y="149" type="curve"/>
      <point x="285" y="82" type="line"/>
      <point x="285" y="80" type="line"/>
      <point x="285" y="79"/>
      <point x="285" y="78"/>
      <point x="285" y="77" type="curve"/>
      <point x="285" y="68"/>
      <point x="292" y="55"/>
      <point x="298" y="51" type="curve"/>
      <point x="309" y="42" type="line" smooth="yes"/>
      <point x="314" y="38"/>
      <point x="319" y="36"/>
      <point x="324" y="36" type="curve"/>
      <point x="348" y="37"/>
      <point x="367" y="65"/>
      <point x="391" y="83" type="curve"/>
      <point x="392" y="85"/>
      <point x="394" y="87"/>
      <point x="396" y="88" type="curve"/>
      <point x="453" y="150"/>
      <point x="492" y="183"/>
      <point x="509" y="183" type="curve"/>
      <point x="511" y="183"/>
      <point x="512" y="181"/>
      <point x="512" y="178" type="curve"/>
      <point x="512" y="171"/>
      <point x="507" y="154"/>
      <point x="507" y="126" type="curve"/>
      <point x="507" y="61"/>
      <point x="547" y="31"/>
      <point x="559" y="27" type="curve"/>
      <point x="564" y="24"/>
      <point x="571" y="23"/>
    </contour>
  </outline>
</glyph>
<glyph name="n" format="2">
  <advance width="459"/>
  <unicode hex="006E"/>
  <anchor x="101" y="560" name="apostrophe"/>
  <anchor x="188" y="-110" name="bottom"/>
  <anchor x="438" y="560" name="top"/>
  <outline>
    <contour>
      <point x="443" y="24" type="curve"/>
      <point x="460" y="28"/>
      <point x="483" y="48"/>
      <point x="484" y="65" type="curve"/>
      <point x="473" y="90"/>
      <point x="467" y="102"/>
      <point x="464" y="116" type="curve"/>
      <point x="464" y="116"/>
      <point x="462" y="120"/>
      <point x="464" y="122" type="curve"/>
      <point x="463" y="126"/>
      <point x="461" y="128"/>
      <point x="461" y="128" type="curve"/>
      <point x="469" y="163"/>
      <point x="462" y="220"/>
      <point x="465" y="252" type="curve"/>
      <point x="465" y="259"/>
      <point x="467" y="269"/>
      <point x="467" y="274" type="curve"/>
      <point x="462" y="290"/>
      <point x="421" y="314"/>
      <point x="401" y="315" type="curve"/>
      <point x="396" y="315"/>
      <point x="367" y="300"/>
      <point x="352" y="290" type="curve"/>
      <point x="328" y="274"/>
      <point x="270" y="230"/>
      <point x="261" y="220" type="curve"/>
      <point x="245" y="209"/>
      <point x="215" y="186"/>
      <point x="215" y="186" type="curve"/>
      <point x="215" y="192"/>
      <point x="228" y="212"/>
      <point x="237" y="234" type="curve"/>
      <point x="275" y="297"/>
      <point x="275" y="333"/>
      <point x="247" y="357" type="curve"/>
      <point x="233" y="368"/>
      <point x="200" y="374"/>
      <point x="191" y="367" type="curve"/>
      <point x="190" y="367" type="line" smooth="yes"/>
      <point x="189" y="367" type="line"/>
      <point x="183" y="366"/>
      <point x="180" y="359"/>
      <point x="182" y="356" type="curve"/>
      <point x="177" y="327"/>
      <point x="170" y="304"/>
      <point x="155" y="270" type="curve"/>
      <point x="146" y="249"/>
      <point x="134" y="222"/>
      <point x="129" y="204" type="curve"/>
      <point x="122" y="192"/>
      <point x="118" y="182"/>
      <point x="113" y="173" type="curve"/>
      <point x="97" y="136"/>
      <point x="89" y="117"/>
      <point x="89" y="85" type="curve"/>
      <point x="91" y="79"/>
      <point x="107" y="59"/>
      <point x="117" y="48" type="curve"/>
      <point x="130" y="37"/>
      <point x="142" y="27"/>
      <point x="153" y="32" type="curve"/>
      <point x="167" y="32"/>
      <point x="178" y="54"/>
      <point x="207" y="86" type="curve"/>
      <point x="262" y="134"/>
      <point x="315" y="176"/>
      <point x="358" y="196" type="curve"/>
      <point x="375" y="203"/>
      <point x="381" y="199"/>
      <point x="384" y="179" type="curve"/>
      <point x="384" y="172"/>
      <point x="384" y="163"/>
      <point x="384" y="160" type="curve"/>
      <point x="383" y="136"/>
      <point x="375" y="95"/>
      <point x="383" y="64" type="curve"/>
      <point x="395" y="33"/>
      <point x="414" y="26"/>
    </contour>
  </outline>
</glyph>
<glyph name="o" format="2">
  <advance width="362"/>
  <unicode hex="006F"/>
  <outline>
    <contour>
      <point x="168" y="7" type="curve"/>
      <point x="198" y="9"/>
      <point x="232" y="10"/>
      <point x="260" y="29" type="curve"/>
      <point x="298" y="52"/>
      <point x="329" y="74"/>
      <point x="362" y="122" type="curve"/>
      <point x="415" y="198"/>
      <point x="421" y="256"/>
      <point x="417" y="296" type="curve"/>
      <point x="413" y="332"/>
      <point x="402" y="354"/>
      <point x="372" y="367" type="curve"/>
      <point x="352" y="388"/>
      <point x="317" y="385"/>
      <point x="288" y="378" type="curve"/>
      <point x="258" y="371"/>
      <point x="231" y="354"/>
      <point x="198" y="326" type="curve"/>
      <point x="173" y="306"/>
      <point x="139" y="260"/>
      <point x="127" y="240" type="curve"/>
      <point x="107" y="208"/>
      <point x="94" y="165"/>
      <point x="97" y="155" type="curve"/>
      <point x="98" y="149"/>
      <point x="98" y="144"/>
      <point x="93" y="144" type="curve"/>
      <point x="90" y="139"/>
      <point x="85" y="139"/>
      <point x="92" y="132" type="curve"/>
      <point x="92" y="132"/>
      <point x="94" y="120"/>
      <point x="90" y="109" type="curve"/>
      <point x="86" y="86"/>
      <point x="103" y="53"/>
      <point x="129" y="26" type="curve"/>
      <point x="143" y="14"/>
      <point x="150" y="7"/>
    </contour>
    <contour>
      <point x="270" y="129" type="curve"/>
      <point x="213" y="74"/>
      <point x="183" y="91"/>
      <point x="189" y="141" type="curve"/>
      <point x="202" y="203"/>
      <point x="240" y="244"/>
      <point x="280" y="278" type="curve"/>
      <point x="299" y="291"/>
      <point x="309" y="297"/>
      <point x="321" y="288" type="curve"/>
      <point x="332" y="283"/>
      <point x="329" y="236"/>
      <point x="322" y="225" type="curve"/>
      <point x="307" y="183"/>
      <point x="299" y="154"/>
    </contour>
  </outline>
</glyph>
<glyph name="r" format="1">
  <advance width="360"/>
  <unicode hex="0072"/>
  <outline>
    <contour>
      <point x="119" y="27" type="curve"/>
      <point x="140" y="5"/>
      <point x="154" y="14"/>
      <point x="170" y="35" type="curve"/>
      <point x="179" y="47"/>
      <point x="183" y="63"/>
      <point x="183" y="63" type="curve"/>
      <point x="183" y="69"/>
      <point x="195" y="125"/>
      <point x="205" y="136" type="curve"/>
      <point x="215" y="153"/>
      <point x="226" y="160"/>
      <point x="236" y="171" type="curve"/>
      <point x="279" y="218"/>
      <point x="316" y="233"/>
      <point x="367" y="262" type="curve"/>
      <point x="385" y="270"/>
      <point x="397" y="276"/>
      <point x="414" y="277" type="curve"/>
      <point x="435" y="278"/>
      <point x="457" y="301"/>
      <point x="457" y="311" type="curve"/>
      <point x="457" y="311"/>
      <point x="457" y="317"/>
      <point x="452" y="317" type="curve"/>
      <point x="452" y="317"/>
      <point x="441" y="322"/>
      <point x="440" y="333" type="curve"/>
      <point x="432" y="353"/>
      <point x="386" y="356"/>
      <point x="356" y="342" type="curve"/>
      <point x="350" y="339"/>
      <point x="334" y="334"/>
      <point x="323" y="328" type="curve"/>
      <point x="306" y="320"/>
      <point x="228" y="263"/>
      <point x="211" y="235" type="curve"/>
      <point x="200" y="232"/>
      <point x="221" y="266"/>
      <point x="232" y="290" type="curve"/>
      <point x="264" y="353"/>
      <point x="267" y="379"/>
      <point x="253" y="391" type="curve"/>
      <point x="242" y="402"/>
      <point x="205" y="402"/>
      <point x="191" y="389" type="curve"/>
      <point x="164" y="349"/>
      <point x="116" y="207"/>
      <point x="112" y="175" type="curve"/>
      <point x="103" y="137"/>
      <point x="96" y="113"/>
      <point x="92" y="76" type="curve"/>
      <point x="88" y="49"/>
      <point x="107" y="36"/>
    </contour>
  </outline>
</glyph>
<glyph name="s" format="2">
  <advance width="350"/>
  <unicode hex="0073"/>
  <outline>
    <contour>
      <point x="200" y="-15" type="curve"/>
      <point x="280" y="-15"/>
      <point x="332" y="10"/>
      <point x="332" y="56" type="curve"/>
      <point x="332" y="66"/>
      <point x="329" y="76"/>
      <point x="323" y="88" type="curve"/>
      <point x="318" y="104"/>
      <point x="305" y="120"/>
      <point x="241" y="168" type="curve"/>
      <point x="208" y="192"/>
      <point x="201" y="202"/>
      <point x="201" y="213" type="curve"/>
      <point x="201" y="216"/>
      <point x="201" y="219"/>
      <point x="202" y="221" type="curve"/>
      <point x="202" y="226" type="line"/>
      <point x="204" y="229" type="line"/>
      <point x="209" y="258"/>
      <point x="245" y="295"/>
      <point x="249" y="295" type="curve"/>
      <point x="250" y="295"/>
      <point x="250" y="294"/>
      <point x="250" y="294" type="curve"/>
      <point x="255" y="294"/>
      <point x="257" y="296"/>
      <point x="262" y="306" type="curve"/>
      <point x="278" y="321"/>
      <point x="312" y="340"/>
      <point x="341" y="353" type="curve"/>
      <point x="352" y="353"/>
      <point x="358" y="353"/>
      <point x="358" y="345" type="curve"/>
      <point x="358" y="313"/>
      <point x="317" y="285"/>
      <point x="317" y="277" type="curve"/>
      <point x="317" y="260"/>
      <point x="342" y="244"/>
      <point x="346" y="243" type="curve"/>
      <point x="347" y="243"/>
      <point x="349" y="242"/>
      <point x="350" y="242" type="curve"/>
      <point x="376" y="242"/>
      <point x="419" y="271"/>
      <point x="419" y="290" type="curve"/>
      <point x="419" y="296"/>
      <point x="424" y="296"/>
      <point x="424" y="296" type="curve"/>
      <point x="437" y="296"/>
      <point x="436" y="345"/>
      <point x="436" y="369" type="curve"/>
      <point x="431" y="382"/>
      <point x="398" y="421"/>
      <point x="381" y="421" type="curve"/>
      <point x="379" y="421"/>
      <point x="376" y="420"/>
      <point x="373" y="419" type="curve"/>
      <point x="368" y="422"/>
      <point x="358" y="423"/>
      <point x="347" y="423" type="curve"/>
      <point x="331" y="423"/>
      <point x="314" y="421"/>
      <point x="303" y="416" type="curve"/>
      <point x="222" y="392"/>
      <point x="114" y="294"/>
      <point x="114" y="222" type="curve"/>
      <point x="114" y="200"/>
      <point x="123" y="166"/>
      <point x="133" y="166" type="curve"/>
      <point x="133" y="166"/>
      <point x="133" y="166"/>
      <point x="133" y="161" type="curve"/>
      <point x="132" y="160"/>
      <point x="132" y="159"/>
      <point x="132" y="159" type="curve"/>
      <point x="132" y="143"/>
      <point x="211" y="96"/>
      <point x="211" y="87" type="curve"/>
      <point x="225" y="87"/>
      <point x="236" y="73"/>
      <point x="236" y="70" type="curve"/>
      <point x="236" y="63"/>
      <point x="206" y="57"/>
      <point x="181" y="57" type="curve"/>
      <point x="155" y="60" type="line" smooth="yes"/>
      <point x="137" y="62"/>
      <point x="124" y="67"/>
      <point x="114" y="66" type="curve"/>
      <point x="111" y="66"/>
      <point x="108" y="66"/>
      <point x="106" y="65" type="curve"/>
      <point x="101" y="61" type="line"/>
      <point x="94" y="59"/>
      <point x="90" y="54"/>
      <point x="90" y="46" type="curve"/>
      <point x="91" y="21"/>
      <point x="150" y="-15"/>
    </contour>
  </outline>
</glyph>
<glyph name="t" format="1">
  <advance width="331"/>
  <unicode hex="0074"/>
  <outline>
    <contour>
      <point x="171" y="-1" type="curve"/>
      <point x="205" y="-8"/>
      <point x="272" y="-4"/>
      <point x="332" y="34" type="curve"/>
      <point x="374" y="58"/>
      <point x="374" y="81"/>
      <point x="374" y="97" type="curve"/>
      <point x="368" y="113"/>
      <point x="352" y="133"/>
      <point x="346" y="122" type="curve"/>
      <point x="346" y="122"/>
      <point x="331" y="112"/>
      <point x="319" y="106" type="curve"/>
      <point x="306" y="98"/>
      <point x="288" y="90"/>
      <point x="274" y="84" type="curve"/>
      <point x="255" y="78"/>
      <point x="222" y="76"/>
      <point x="207" y="78" type="curve"/>
      <point x="179" y="81"/>
      <point x="176" y="91"/>
      <point x="180" y="116" type="curve"/>
      <point x="189" y="167"/>
      <point x="201" y="217"/>
      <point x="220" y="273" type="curve"/>
      <point x="236" y="300"/>
      <point x="246" y="326"/>
      <point x="252" y="331" type="curve"/>
      <point x="257" y="342"/>
      <point x="260" y="347"/>
      <point x="271" y="350" type="curve"/>
      <point x="282" y="353"/>
      <point x="283" y="352"/>
      <point x="300" y="353" type="curve"/>
      <point x="310" y="353"/>
      <point x="334" y="353"/>
      <point x="366" y="358" type="curve"/>
      <point x="417" y="358"/>
      <point x="421" y="360"/>
      <point x="417" y="392" type="curve"/>
      <point x="414" y="414"/>
      <point x="398" y="432"/>
      <point x="360" y="426" type="curve"/>
      <point x="298" y="416"/>
      <point x="289" y="417"/>
      <point x="310" y="447" type="curve"/>
      <point x="322" y="470"/>
      <point x="337" y="485"/>
      <point x="348" y="508" type="curve"/>
      <point x="360" y="526"/>
      <point x="357" y="536"/>
      <point x="347" y="550" type="curve"/>
      <point x="327" y="567"/>
      <point x="294" y="558"/>
      <point x="282" y="548" type="curve"/>
      <point x="270" y="538"/>
      <point x="262" y="523"/>
      <point x="256" y="514" type="curve"/>
      <point x="242" y="492"/>
      <point x="239" y="484"/>
      <point x="230" y="467" type="curve"/>
      <point x="221" y="451"/>
      <point x="217" y="446"/>
      <point x="210" y="432" type="curve"/>
      <point x="207" y="423"/>
      <point x="201" y="418"/>
      <point x="196" y="416" type="curve"/>
      <point x="189" y="414"/>
      <point x="145" y="412"/>
      <point x="135" y="414" type="curve"/>
      <point x="129" y="414"/>
      <point x="113" y="387"/>
      <point x="113" y="376" type="curve"/>
      <point x="113" y="371"/>
      <point x="119" y="360"/>
      <point x="129" y="358" type="curve"/>
      <point x="169" y="347" type="line"/>
      <point x="142" y="289" type="line"/>
      <point x="132" y="259"/>
      <point x="116" y="217"/>
      <point x="110" y="196" type="curve"/>
      <point x="101" y="161"/>
      <point x="97" y="77"/>
      <point x="105" y="71" type="curve"/>
      <point x="105" y="71"/>
      <point x="110" y="66"/>
      <point x="110" y="63" type="curve"/>
      <point x="116" y="43"/>
      <point x="149" y="3"/>
    </contour>
  </outline>
</glyph>
<glyph name="v" format="2">
  <advance width="331"/>
  <unicode hex="0076"/>
  <outline>
    <contour>
      <point x="179" y="53" type="curve"/>
      <point x="195" y="37"/>
      <point x="227" y="43"/>
      <point x="259" y="74" type="curve"/>
      <point x="275" y="96"/>
      <point x="297" y="112"/>
      <point x="302" y="117" type="curve"/>
      <point x="313" y="128"/>
      <point x="366" y="197"/>
      <point x="382" y="229" type="curve"/>
      <point x="387" y="234"/>
      <point x="392" y="250"/>
      <point x="403" y="266" type="curve"/>
      <point x="430" y="303"/>
      <point x="420" y="338"/>
      <point x="388" y="333" type="curve"/>
      <point x="372" y="328"/>
      <point x="339" y="295"/>
      <point x="325" y="276" type="curve"/>
      <point x="304" y="249"/>
      <point x="291" y="228"/>
      <point x="263" y="191" type="curve"/>
      <point x="247" y="170"/>
      <point x="235" y="156"/>
      <point x="230" y="151" type="curve"/>
      <point x="219" y="140"/>
      <point x="220" y="163"/>
      <point x="215" y="174" type="curve"/>
      <point x="215" y="179"/>
      <point x="211" y="196"/>
      <point x="206" y="238" type="curve"/>
      <point x="195" y="308"/>
      <point x="182" y="354"/>
      <point x="166" y="360" type="curve"/>
      <point x="160" y="361"/>
      <point x="136" y="359"/>
      <point x="130" y="355" type="curve"/>
      <point x="114" y="345"/>
      <point x="99" y="314"/>
      <point x="106" y="290" type="curve"/>
      <point x="110" y="278"/>
      <point x="117" y="259"/>
      <point x="122" y="233" type="curve"/>
      <point x="133" y="164"/>
      <point x="164" y="64"/>
    </contour>
  </outline>
</glyph>
<glyph name="x" format="2">
  <advance width="343"/>
  <unicode hex="0078"/>
  <outline>
    <contour>
      <point x="391" y="-12" type="curve"/>
      <point x="407" y="-12"/>
      <point x="422" y="44"/>
      <point x="406" y="60" type="curve"/>
      <point x="396" y="65"/>
      <point x="390" y="70"/>
      <point x="385" y="70" type="curve"/>
      <point x="380" y="70"/>
      <point x="330" y="107"/>
      <point x="319" y="123" type="curve"/>
      <point x="309" y="128"/>
      <point x="298" y="142"/>
      <point x="293" y="152" type="curve"/>
      <point x="277" y="179" type="line"/>
      <point x="303" y="200" type="line" smooth="yes"/>
      <point x="346" y="237"/>
      <point x="345" y="240"/>
      <point x="382" y="267" type="curve"/>
      <point x="409" y="282"/>
      <point x="416" y="303"/>
      <point x="416" y="319" type="curve"/>
      <point x="416" y="340"/>
      <point x="381" y="367"/>
      <point x="365" y="356" type="curve"/>
      <point x="354" y="351"/>
      <point x="301" y="306"/>
      <point x="295" y="301" type="curve"/>
      <point x="295" y="301"/>
      <point x="285" y="290"/>
      <point x="269" y="275" type="curve"/>
      <point x="237" y="253"/>
      <point x="232" y="256"/>
      <point x="232" y="277" type="curve"/>
      <point x="232" y="293"/>
      <point x="200" y="357"/>
      <point x="189" y="357" type="curve"/>
      <point x="173" y="368"/>
      <point x="142" y="350"/>
      <point x="132" y="340" type="curve"/>
      <point x="132" y="340" type="line" smooth="yes"/>
      <point x="132" y="340" type="line"/>
      <point x="121" y="324"/>
      <point x="121" y="324"/>
      <point x="137" y="302" type="curve"/>
      <point x="142" y="286"/>
      <point x="153" y="260"/>
      <point x="163" y="239" type="curve"/>
      <point x="174" y="201" type="line"/>
      <point x="123" y="149" type="line" smooth="yes"/>
      <point x="86" y="117"/>
      <point x="54" y="79"/>
      <point x="54" y="79" type="curve"/>
      <point x="54" y="44"/>
      <point x="90" y="20"/>
      <point x="106" y="20" type="curve"/>
      <point x="116" y="20"/>
      <point x="132" y="36"/>
      <point x="169" y="73" type="curve"/>
      <point x="196" y="100"/>
      <point x="216" y="121"/>
      <point x="216" y="121" type="curve"/>
      <point x="221" y="121"/>
      <point x="226" y="116"/>
      <point x="226" y="111" type="curve"/>
      <point x="226" y="105"/>
      <point x="232" y="100"/>
      <point x="232" y="100" type="curve"/>
      <point x="237" y="100"/>
      <point x="237" y="100"/>
      <point x="237" y="95" type="curve"/>
      <point x="237" y="79"/>
      <point x="311" y="15"/>
      <point x="338" y="4" type="curve"/>
      <point x="349" y="-1"/>
      <point x="365" y="-6"/>
      <point x="370" y="-6" type="curve"/>
      <point x="375" y="-12"/>
      <point x="386" y="-12"/>
    </contour>
  </outline>
</glyph>
<glyph name="bar" format="1">
  <advance width="330"/>
  <unicode hex="007C"/>
  <outline>
    <contour>
      <point x="150" y="-148" type="curve"/>
      <point x="160" y="-143"/>
      <point x="175" y="-137"/>
      <point x="175" y="-105" type="curve"/>
      <point x="175" y="-68"/>
      <point x="236" y="134"/>
      <point x="258" y="208" type="curve"/>
      <point x="268" y="235"/>
      <point x="274" y="256"/>
      <point x="274" y="261" type="curve"/>
      <point x="274" y="261"/>
      <point x="274" y="272"/>
      <point x="279" y="272" type="curve"/>
      <point x="284" y="277"/>
      <point x="284" y="283"/>
      <point x="284" y="288" type="curve"/>
      <point x="284" y="293"/>
      <point x="316" y="368"/>
      <point x="327" y="389" type="curve"/>
      <point x="332" y="405"/>
      <point x="338" y="416"/>
      <point x="338" y="421" type="curve"/>
      <point x="338" y="426"/>
      <point x="403" y="573"/>
      <point x="414" y="600" type="curve"/>
      <point x="451" y="679"/>
      <point x="457" y="685"/>
      <point x="457" y="711" type="curve"/>
      <point x="457" y="727"/>
      <point x="442" y="747"/>
      <point x="431" y="757" type="curve"/>
      <point x="420" y="768"/>
      <point x="415" y="773"/>
      <point x="415" y="773" type="curve"/>
      <point x="410" y="773"/>
      <point x="403" y="772"/>
      <point x="399" y="768" type="curve"/>
      <point x="388" y="768"/>
      <point x="368" y="754"/>
      <point x="368" y="743" type="curve"/>
      <point x="368" y="727"/>
      <point x="244" y="405"/>
      <point x="222" y="363" type="curve"/>
      <point x="222" y="357"/>
      <point x="217" y="352"/>
      <point x="217" y="347" type="curve"/>
      <point x="217" y="341"/>
      <point x="212" y="331"/>
      <point x="212" y="325" type="curve"/>
      <point x="206" y="320"/>
      <point x="201" y="304"/>
      <point x="201" y="293" type="curve"/>
      <point x="201" y="283"/>
      <point x="196" y="272"/>
      <point x="191" y="272" type="curve"/>
      <point x="185" y="261"/>
      <point x="113" y="41"/>
      <point x="108" y="14" type="curve"/>
      <point x="108" y="4"/>
      <point x="103" y="-12"/>
      <point x="97" y="-28" type="curve"/>
      <point x="81" y="-103"/>
      <point x="112" y="-158"/>
    </contour>
  </outline>
</glyph>
<glyph name="braceright" format="2">
  <advance width="330"/>
  <unicode hex="007D"/>
  <outline>
    <contour>
      <point x="141" y="-126" type="curve"/>
      <point x="191" y="-124"/>
      <point x="253" y="-87"/>
      <point x="253" y="-59" type="curve"/>
      <point x="251" y="-55"/>
      <point x="256" y="-55"/>
      <point x="256" y="-55" type="curve"/>
      <point x="262" y="-55"/>
      <point x="270" y="-25"/>
      <point x="279" y="15" type="curve"/>
      <point x="284" y="27"/>
      <point x="287" y="84"/>
      <point x="286" y="127" type="curve"/>
      <point x="284" y="202"/>
      <point x="286" y="230"/>
      <point x="313" y="244" type="curve"/>
      <point x="318" y="244"/>
      <point x="318" y="248"/>
      <point x="318" y="258" type="curve"/>
      <point x="313" y="269"/>
      <point x="306" y="277"/>
      <point x="304" y="289" type="curve"/>
      <point x="295" y="310"/>
      <point x="295" y="318"/>
      <point x="304" y="324" type="curve"/>
      <point x="311" y="328"/>
      <point x="311" y="328"/>
      <point x="311" y="328" type="curve"/>
      <point x="311" y="328"/>
      <point x="316" y="341"/>
      <point x="322" y="347" type="curve"/>
      <point x="339" y="365"/>
      <point x="372" y="419"/>
      <point x="372" y="428" type="curve"/>
      <point x="372" y="433"/>
      <point x="377" y="433"/>
      <point x="383" y="437" type="curve"/>
      <point x="389" y="444"/>
      <point x="406" y="487"/>
      <point x="425" y="549" type="curve"/>
      <point x="439" y="589"/>
      <point x="439" y="594"/>
      <point x="433" y="619" type="curve"/>
      <point x="431" y="635"/>
      <point x="426" y="664"/>
      <point x="421" y="668" type="curve"/>
      <point x="410" y="688"/>
      <point x="358" y="731"/>
      <point x="352" y="731" type="curve"/>
      <point x="347" y="731"/>
      <point x="341" y="735"/>
      <point x="337" y="739" type="curve"/>
      <point x="328" y="749"/>
      <point x="287" y="738"/>
      <point x="279" y="722" type="curve"/>
      <point x="267" y="708"/>
      <point x="269" y="683"/>
      <point x="290" y="679" type="curve"/>
      <point x="324" y="669"/>
      <point x="337" y="661"/>
      <point x="348" y="640" type="curve"/>
      <point x="362" y="620"/>
      <point x="362" y="609"/>
      <point x="357" y="597" type="curve"/>
      <point x="357" y="597"/>
      <point x="357" y="592"/>
      <point x="357" y="587" type="curve"/>
      <point x="347" y="547"/>
      <point x="320" y="489"/>
      <point x="286" y="435" type="curve"/>
      <point x="267" y="399"/>
      <point x="259" y="390"/>
      <point x="225" y="353" type="curve"/>
      <point x="214" y="345"/>
      <point x="210" y="320"/>
      <point x="221" y="294" type="curve"/>
      <point x="223" y="281"/>
      <point x="223" y="271"/>
      <point x="212" y="261" type="curve"/>
      <point x="201" y="240"/>
      <point x="201" y="235"/>
      <point x="205" y="147" type="curve"/>
      <point x="207" y="95"/>
      <point x="204" y="50"/>
      <point x="204" y="46" type="curve"/>
      <point x="204" y="40"/>
      <point x="200" y="25"/>
      <point x="196" y="9" type="curve"/>
      <point x="186" y="-41"/>
      <point x="185" y="-46"/>
      <point x="128" y="-56" type="curve"/>
      <point x="105" y="-65"/>
      <point x="91" y="-76"/>
      <point x="91" y="-76" type="curve"/>
      <point x="91" y="-81"/>
      <point x="83" y="-81"/>
      <point x="76" y="-76" type="curve"/>
      <point x="76" y="-76"/>
      <point x="70" y="-81"/>
      <point x="70" y="-87" type="curve"/>
      <point x="70" y="-102"/>
      <point x="105" y="-128"/>
    </contour>
  </outline>
</glyph>
<glyph name="asciitilde" format="2">
  <advance width="446"/>
  <unicode hex="007E"/>
  <outline>
    <contour>
      <point x="361" y="187" type="curve" smooth="yes"/>
      <point x="369" y="187"/>
      <point x="377" y="190"/>
      <point x="391" y="196" type="curve" smooth="yes"/>
      <point x="406" y="203"/>
      <point x="428" y="213"/>
      <point x="462" y="227" type="curve"/>
      <point x="483" y="239" type="line"/>
      <point x="497" y="253"/>
      <point x="500" y="263"/>
      <point x="500" y="271" type="curve" smooth="yes"/>
      <point x="500" y="288"/>
      <point x="483" y="305"/>
      <point x="468" y="305" type="curve" smooth="yes"/>
      <point x="462" y="305"/>
      <point x="455" y="304"/>
      <point x="448" y="302" type="curve" smooth="yes"/>
      <point x="442" y="301"/>
      <point x="436" y="299"/>
      <point x="430" y="297" type="curve"/>
      <point x="404" y="286" type="line"/>
      <point x="384" y="277"/>
      <point x="365" y="268"/>
      <point x="351" y="268" type="curve" smooth="yes"/>
      <point x="327" y="268"/>
      <point x="299" y="286"/>
      <point x="269" y="309" type="curve" smooth="yes"/>
      <point x="252" y="322"/>
      <point x="226" y="326"/>
      <point x="185" y="320" type="curve"/>
      <point x="121" y="293"/>
      <point x="97" y="246"/>
      <point x="97" y="236" type="curve" smooth="yes"/>
      <point x="97" y="222"/>
      <point x="111" y="199"/>
      <point x="138" y="199" type="curve" smooth="yes"/>
      <point x="143" y="199"/>
      <point x="151" y="210"/>
      <point x="153" y="216" type="curve"/>
      <point x="179" y="219"/>
      <point x="186" y="253"/>
      <point x="214" y="253" type="curve" smooth="yes"/>
      <point x="232" y="253"/>
      <point x="256" y="231"/>
      <point x="279" y="216" type="curve" smooth="yes"/>
      <point x="307" y="198"/>
      <point x="327" y="187"/>
    </contour>
  </outline>
</glyph>
<glyph name="exclamdown" format="1">
  <advance width="210"/>
  <unicode hex="00A1"/>
  <outline>
    <contour>
      <point x="26" y="-234" type="curve"/>
      <point x="31" y="-234"/>
      <point x="45" y="-234"/>
      <point x="50" y="-230" type="curve"/>
      <point x="61" y="-232"/>
      <point x="66" y="-220"/>
      <point x="68" y="-209" type="curve"/>
      <point x="69" y="-193"/>
      <point x="130" y="-42"/>
      <point x="155" y="0" type="curve"/>
      <point x="155" y="6"/>
      <point x="160" y="9"/>
      <point x="160" y="14" type="curve"/>
      <point x="160" y="20"/>
      <point x="168" y="29"/>
      <point x="168" y="35" type="curve"/>
      <point x="174" y="40"/>
      <point x="179" y="56"/>
      <point x="179" y="67" type="curve"/>
      <point x="179" y="77"/>
      <point x="187" y="88"/>
      <point x="192" y="88" type="curve"/>
      <point x="198" y="99"/>
      <point x="219" y="146"/>
      <point x="226" y="172" type="curve"/>
      <point x="226" y="182"/>
      <point x="232" y="198"/>
      <point x="240" y="214" type="curve"/>
      <point x="264" y="309"/>
      <point x="236" y="345"/>
      <point x="198" y="338" type="curve"/>
      <point x="188" y="333"/>
      <point x="173" y="325"/>
      <point x="170" y="293" type="curve"/>
      <point x="168" y="264"/>
      <point x="158" y="226"/>
      <point x="133" y="155" type="curve"/>
      <point x="120" y="128"/>
      <point x="114" y="107"/>
      <point x="114" y="102" type="curve"/>
      <point x="114" y="102"/>
      <point x="114" y="91"/>
      <point x="109" y="91" type="curve"/>
      <point x="104" y="86"/>
      <point x="103" y="80"/>
      <point x="101" y="75" type="curve"/>
      <point x="101" y="70"/>
      <point x="88" y="31"/>
      <point x="76" y="11" type="curve"/>
      <point x="69" y="-5"/>
      <point x="63" y="-16"/>
      <point x="63" y="-21" type="curve"/>
      <point x="63" y="-26"/>
      <point x="47" y="-53"/>
      <point x="34" y="-78" type="curve"/>
      <point x="13" y="-116"/>
      <point x="-7" y="-148"/>
      <point x="-9" y="-174" type="curve"/>
      <point x="-9" y="-190"/>
      <point x="-9" y="-208"/>
      <point x="1" y="-218" type="curve"/>
      <point x="10" y="-229"/>
      <point x="26" y="-234"/>
    </contour>
    <contour>
      <point x="236" y="400" type="curve"/>
      <point x="263" y="390"/>
      <point x="268" y="390"/>
      <point x="295" y="406" type="curve"/>
      <point x="333" y="432"/>
      <point x="344" y="460"/>
      <point x="317" y="487" type="curve"/>
      <point x="295" y="503"/>
      <point x="279" y="503"/>
      <point x="251" y="492" type="curve"/>
      <point x="198" y="465"/>
      <point x="192" y="428"/>
    </contour>
  </outline>
</glyph>
